<?xml version="1.0" encoding="utf-8"?>
<!-- Generator: Adobe Illustrator 16.0.0, SVG Export Plug-In . SVG Version: 6.00 Build 0)  -->
<!DOCTYPE svg PUBLIC "-//W3C//DTD SVG 1.1//EN" "http://www.w3.org/Graphics/SVG/1.1/DTD/svg11.dtd">
<svg version="1.1" xmlns="http://www.w3.org/2000/svg" xmlns:xlink="http://www.w3.org/1999/xlink" x="0px" y="0px" width="70px"
	 height="70.001px" viewBox="0 0 70 70.001" enable-background="new 0 0 70 70.001" xml:space="preserve">
<g id="Layer_1">
</g>
<g id="Layer_7" display="none">
</g>
<g id="water">
</g>
<g id="water_1_">
	<g>
		<defs>
			<rect id="SVGID_1_" x="803.414" y="-1057.298" width="2006.02" height="1864.493"/>
		</defs>
		<clipPath id="SVGID_2_">
			<use xlink:href="#SVGID_1_"  overflow="visible"/>
		</clipPath>
		<g opacity="0.6" clip-path="url(#SVGID_2_)">
			<g>
				<line fill="none" stroke="#808285" x1="65.904" y1="803.562" x2="1627.743" y2="-1057.298"/>
			</g>
			<g>
				<line fill="none" stroke="#808285" x1="55.904" y1="803.562" x2="1617.743" y2="-1057.298"/>
			</g>
			<g>
				<line fill="none" stroke="#808285" x1="45.904" y1="803.562" x2="1607.743" y2="-1057.298"/>
			</g>
			<g>
				<line fill="none" stroke="#808285" x1="35.904" y1="803.562" x2="1597.743" y2="-1057.298"/>
			</g>
			<g>
				<line fill="none" stroke="#808285" x1="25.904" y1="803.562" x2="1587.743" y2="-1057.298"/>
			</g>
			<g>
				<line fill="none" stroke="#808285" x1="15.904" y1="803.562" x2="1577.743" y2="-1057.298"/>
			</g>
			<g>
				<line fill="none" stroke="#808285" x1="5.904" y1="803.562" x2="1567.743" y2="-1057.298"/>
			</g>
			<g>
				<line fill="none" stroke="#808285" x1="-4.096" y1="803.562" x2="1557.743" y2="-1057.298"/>
			</g>
			<g>
				<line fill="none" stroke="#808285" x1="-14.096" y1="803.562" x2="1547.743" y2="-1057.298"/>
			</g>
			<g>
				<line fill="none" stroke="#808285" x1="-24.096" y1="803.562" x2="1537.743" y2="-1057.298"/>
			</g>
			<g>
				<line fill="none" stroke="#808285" x1="-34.096" y1="803.562" x2="1527.743" y2="-1057.298"/>
			</g>
			<g>
				<line fill="none" stroke="#808285" x1="-44.096" y1="803.562" x2="1517.743" y2="-1057.298"/>
			</g>
			<g>
				<line fill="none" stroke="#808285" x1="-54.096" y1="803.562" x2="1507.743" y2="-1057.298"/>
			</g>
			<g>
				<line fill="none" stroke="#808285" x1="-64.096" y1="803.562" x2="1497.743" y2="-1057.298"/>
			</g>
			<g>
				<line fill="none" stroke="#808285" x1="-74.096" y1="803.562" x2="1487.743" y2="-1057.298"/>
			</g>
			<g>
				<line fill="none" stroke="#808285" x1="-84.096" y1="803.562" x2="1477.743" y2="-1057.298"/>
			</g>
			<g>
				<line fill="none" stroke="#808285" x1="-94.096" y1="803.562" x2="1467.743" y2="-1057.298"/>
			</g>
			<g>
				<line fill="none" stroke="#808285" x1="-104.096" y1="803.562" x2="1457.743" y2="-1057.298"/>
			</g>
			<g>
				<line fill="none" stroke="#808285" x1="-114.096" y1="803.562" x2="1447.743" y2="-1057.298"/>
			</g>
			<g>
				<line fill="none" stroke="#808285" x1="-124.096" y1="803.562" x2="1437.743" y2="-1057.298"/>
			</g>
			<g>
				<line fill="none" stroke="#808285" x1="-134.096" y1="803.562" x2="1427.743" y2="-1057.298"/>
			</g>
			<g>
				<line fill="none" stroke="#808285" x1="-144.096" y1="803.562" x2="1417.743" y2="-1057.298"/>
			</g>
			<g>
				<line fill="none" stroke="#808285" x1="-154.096" y1="803.562" x2="1407.743" y2="-1057.298"/>
			</g>
			<g>
				<line fill="none" stroke="#808285" x1="-164.096" y1="803.562" x2="1397.743" y2="-1057.298"/>
			</g>
			<g>
				<line fill="none" stroke="#808285" x1="-174.096" y1="803.562" x2="1387.743" y2="-1057.298"/>
			</g>
			<g>
				<line fill="none" stroke="#808285" x1="-184.096" y1="803.562" x2="1377.743" y2="-1057.298"/>
			</g>
			<g>
				<line fill="none" stroke="#808285" x1="-194.096" y1="803.562" x2="1367.743" y2="-1057.298"/>
			</g>
			<g>
				<line fill="none" stroke="#808285" x1="-204.096" y1="803.562" x2="1357.743" y2="-1057.298"/>
			</g>
			<g>
				<line fill="none" stroke="#808285" x1="-214.096" y1="803.562" x2="1347.743" y2="-1057.298"/>
			</g>
			<g>
				<line fill="none" stroke="#808285" x1="-224.096" y1="803.562" x2="1337.743" y2="-1057.298"/>
			</g>
			<g>
				<line fill="none" stroke="#808285" x1="-234.096" y1="803.562" x2="1327.743" y2="-1057.298"/>
			</g>
			<g>
				<line fill="none" stroke="#808285" x1="-244.096" y1="803.562" x2="1317.743" y2="-1057.298"/>
			</g>
			<g>
				<line fill="none" stroke="#808285" x1="-254.096" y1="803.562" x2="1307.743" y2="-1057.298"/>
			</g>
			<g>
				<line fill="none" stroke="#808285" x1="-264.096" y1="803.562" x2="1297.743" y2="-1057.298"/>
			</g>
			<g>
				<line fill="none" stroke="#808285" x1="-274.096" y1="803.562" x2="1287.743" y2="-1057.298"/>
			</g>
			<g>
				<line fill="none" stroke="#808285" x1="-284.096" y1="803.562" x2="1277.743" y2="-1057.298"/>
			</g>
			<g>
				<line fill="none" stroke="#808285" x1="-294.096" y1="803.562" x2="1267.743" y2="-1057.298"/>
			</g>
			<g>
				<line fill="none" stroke="#808285" x1="-304.096" y1="803.562" x2="1257.743" y2="-1057.298"/>
			</g>
			<g>
				<line fill="none" stroke="#808285" x1="-314.096" y1="803.562" x2="1247.743" y2="-1057.298"/>
			</g>
			<g>
				<line fill="none" stroke="#808285" x1="-324.096" y1="803.562" x2="1237.743" y2="-1057.298"/>
			</g>
			<g>
				<line fill="none" stroke="#808285" x1="-334.096" y1="803.562" x2="1227.743" y2="-1057.298"/>
			</g>
			<g>
				<line fill="none" stroke="#808285" x1="-344.096" y1="803.562" x2="1217.743" y2="-1057.298"/>
			</g>
			<g>
				<line fill="none" stroke="#808285" x1="-354.096" y1="803.562" x2="1207.743" y2="-1057.298"/>
			</g>
			<g>
				<line fill="none" stroke="#808285" x1="-364.096" y1="803.562" x2="1197.743" y2="-1057.298"/>
			</g>
			<g>
				<line fill="none" stroke="#808285" x1="-374.096" y1="803.562" x2="1187.742" y2="-1057.298"/>
			</g>
			<g>
				<line fill="none" stroke="#808285" x1="-384.096" y1="803.562" x2="1177.742" y2="-1057.298"/>
			</g>
			<g>
				<line fill="none" stroke="#808285" x1="-394.096" y1="803.562" x2="1167.742" y2="-1057.298"/>
			</g>
			<g>
				<line fill="none" stroke="#808285" x1="-404.096" y1="803.562" x2="1157.742" y2="-1057.298"/>
			</g>
			<g>
				<line fill="none" stroke="#808285" x1="-414.096" y1="803.562" x2="1147.742" y2="-1057.298"/>
			</g>
			<g>
				<line fill="none" stroke="#808285" x1="-424.096" y1="803.562" x2="1137.742" y2="-1057.298"/>
			</g>
			<g>
				<line fill="none" stroke="#808285" x1="-434.096" y1="803.562" x2="1127.742" y2="-1057.298"/>
			</g>
			<g>
				<line fill="none" stroke="#808285" x1="-444.096" y1="803.562" x2="1117.742" y2="-1057.298"/>
			</g>
			<g>
				<line fill="none" stroke="#808285" x1="-454.096" y1="803.562" x2="1107.742" y2="-1057.298"/>
			</g>
			<g>
				<line fill="none" stroke="#808285" x1="-464.096" y1="803.562" x2="1097.742" y2="-1057.298"/>
			</g>
			<g>
				<line fill="none" stroke="#808285" x1="-474.096" y1="803.562" x2="1087.742" y2="-1057.298"/>
			</g>
			<g>
				<line fill="none" stroke="#808285" x1="-484.096" y1="803.562" x2="1077.742" y2="-1057.298"/>
			</g>
			<g>
				<line fill="none" stroke="#808285" x1="-494.096" y1="803.562" x2="1067.742" y2="-1057.298"/>
			</g>
			<g>
				<line fill="none" stroke="#808285" x1="-504.096" y1="803.562" x2="1057.742" y2="-1057.298"/>
			</g>
			<g>
				<line fill="none" stroke="#808285" x1="-514.096" y1="803.562" x2="1047.742" y2="-1057.298"/>
			</g>
			<g>
				<line fill="none" stroke="#808285" x1="-524.096" y1="803.562" x2="1037.742" y2="-1057.298"/>
			</g>
			<g>
				<line fill="none" stroke="#808285" x1="-534.096" y1="803.562" x2="1027.742" y2="-1057.298"/>
			</g>
			<g>
				<line fill="none" stroke="#808285" x1="-544.096" y1="803.562" x2="1017.742" y2="-1057.298"/>
			</g>
			<g>
				<line fill="none" stroke="#808285" x1="-554.096" y1="803.562" x2="1007.742" y2="-1057.298"/>
			</g>
			<g>
				<line fill="none" stroke="#808285" x1="-564.096" y1="803.562" x2="997.742" y2="-1057.298"/>
			</g>
			<g>
				<line fill="none" stroke="#808285" x1="-574.096" y1="803.562" x2="987.742" y2="-1057.298"/>
			</g>
			<g>
				<line fill="none" stroke="#808285" x1="-584.096" y1="803.562" x2="977.742" y2="-1057.298"/>
			</g>
			<g>
				<line fill="none" stroke="#808285" x1="-594.096" y1="803.562" x2="967.742" y2="-1057.298"/>
			</g>
			<g>
				<line fill="none" stroke="#808285" x1="-604.096" y1="803.562" x2="957.742" y2="-1057.298"/>
			</g>
			<g>
				<line fill="none" stroke="#808285" x1="-614.096" y1="803.562" x2="947.742" y2="-1057.298"/>
			</g>
			<g>
				<line fill="none" stroke="#808285" x1="-624.096" y1="803.562" x2="937.742" y2="-1057.298"/>
			</g>
			<g>
				<line fill="none" stroke="#808285" x1="-634.096" y1="803.562" x2="927.742" y2="-1057.298"/>
			</g>
			<g>
				<line fill="none" stroke="#808285" x1="-644.096" y1="803.562" x2="917.742" y2="-1057.298"/>
			</g>
			<g>
				<line fill="none" stroke="#808285" x1="-654.096" y1="803.562" x2="907.742" y2="-1057.298"/>
			</g>
			<g>
				<line fill="none" stroke="#808285" x1="-664.096" y1="803.562" x2="897.742" y2="-1057.298"/>
			</g>
			<g>
				<line fill="none" stroke="#808285" x1="-674.096" y1="803.562" x2="887.742" y2="-1057.298"/>
			</g>
			<g>
				<line fill="none" stroke="#808285" x1="-684.096" y1="803.562" x2="877.742" y2="-1057.298"/>
			</g>
			<g>
				<line fill="none" stroke="#808285" x1="-694.096" y1="803.562" x2="867.742" y2="-1057.298"/>
			</g>
			<g>
				<line fill="none" stroke="#808285" x1="-704.096" y1="803.562" x2="857.742" y2="-1057.298"/>
			</g>
			<g>
				<line fill="none" stroke="#808285" x1="-714.096" y1="803.562" x2="847.742" y2="-1057.298"/>
			</g>
			<g>
				<line fill="none" stroke="#808285" x1="-724.096" y1="803.562" x2="837.742" y2="-1057.298"/>
			</g>
			<g>
				<line fill="none" stroke="#808285" x1="-734.096" y1="803.562" x2="827.742" y2="-1057.298"/>
			</g>
			<g>
				<line fill="none" stroke="#808285" x1="-744.096" y1="803.562" x2="817.742" y2="-1057.298"/>
			</g>
			<g>
				<line fill="none" stroke="#808285" x1="-754.096" y1="803.562" x2="807.742" y2="-1057.298"/>
			</g>
			<g>
				<line fill="none" stroke="#808285" x1="-764.096" y1="803.562" x2="797.742" y2="-1057.298"/>
			</g>
		</g>
	</g>
</g>
<g id="map">
</g>
<g id="building" display="none">
</g>
<g id="Layer_2">
</g>
<g id="Layer_6">
	<path fill="#F3B81A" d="M70,35c0,19.33-15.67,35.001-35,35.001C15.67,70.001,0,54.33,0,35S15.67,0,35,0C54.33,0,70,15.67,70,35z
		 M43.176,15.468c-1.875-1.876-4.919-1.876-6.796,0c-1.876,1.877-1.876,4.921,0,6.795c1.877,1.88,4.921,1.88,6.796,0
		C45.052,20.389,45.052,17.345,43.176,15.468z M27.863,31.471l10.965-6.818c-1.173-0.23-2.294-0.8-3.201-1.71
		c-0.906-0.903-1.477-2.023-1.706-3.198L27.103,30.71L27.863,31.471z M24.793,34.373c-0.016,0.187,0.027,0.407,0.184,0.563l0,0
		c0.168,0.164,0.397,0.218,0.65,0.217l0,0c0.763-0.015,2.045-0.491,4.363-1.703l0,0c4.458-2.347,7.624-4.39,9.961-5.616l0,0
		c1.168-0.615,2.13-1.022,2.923-1.171l0,0c0.794-0.149,1.397-0.052,1.958,0.321l0.323-0.477l0,0c-0.695-0.475-1.5-0.582-2.389-0.41
		l0,0c-2.659,0.518-6.379,3.342-13.044,6.842l0,0c-1.522,0.805-2.596,1.269-3.307,1.483l0,0c-0.354,0.109-0.62,0.155-0.792,0.155
		l0,0c-0.175,0-0.233-0.042-0.236-0.046l0,0c-0.007-0.006-0.023-0.022-0.019-0.113l0,0c0.009-0.336,0.518-1.155,1.033-1.797l0,0
		c0.513-0.662,1.018-1.198,1.021-1.198L27,31.031l0,0c-0.003,0.004-0.678,0.721-1.281,1.533l0,0
		c-0.299,0.406-0.583,0.834-0.758,1.229l0,0C24.874,33.992,24.81,34.181,24.793,34.373L24.793,34.373z"/>
	<rect x="6.625" y="38.754" fill="none" width="56.75" height="20.5"/>
	<text transform="matrix(1 0 0 1 26.6304 45.252)"><tspan x="0" y="0" fill="#F1F2F2" font-family="'TradeGothic-Roman'" font-size="9">Art / </tspan><tspan x="-19.629" y="8" fill="#F1F2F2" font-family="'TradeGothic-Roman'" font-size="9">Entertainment</tspan></text>
</g>
</svg>
