<?xml version="1.0" encoding="utf-8"?>
<!-- Generator: Adobe Illustrator 16.0.0, SVG Export Plug-In . SVG Version: 6.00 Build 0)  -->
<!DOCTYPE svg PUBLIC "-//W3C//DTD SVG 1.1//EN" "http://www.w3.org/Graphics/SVG/1.1/DTD/svg11.dtd">
<svg version="1.1" xmlns="http://www.w3.org/2000/svg" xmlns:xlink="http://www.w3.org/1999/xlink" x="0px" y="0px" width="70px"
	 height="70.001px" viewBox="0 0 70 70.001" enable-background="new 0 0 70 70.001" xml:space="preserve">
<g id="Layer_1">
</g>
<g id="Layer_7" display="none">
</g>
<g id="water">
</g>
<g id="water_1_">
	<g>
		<defs>
			<rect id="SVGID_1_" x="341.395" y="-1057.298" width="2006.02" height="1864.493"/>
		</defs>
		<clipPath id="SVGID_2_">
			<use xlink:href="#SVGID_1_"  overflow="visible"/>
		</clipPath>
		<g opacity="0.6" clip-path="url(#SVGID_2_)">
			<g>
				<line fill="none" stroke="#808285" x1="63.885" y1="803.562" x2="1625.724" y2="-1057.298"/>
			</g>
			<g>
				<line fill="none" stroke="#808285" x1="53.885" y1="803.562" x2="1615.724" y2="-1057.298"/>
			</g>
			<g>
				<line fill="none" stroke="#808285" x1="43.885" y1="803.562" x2="1605.724" y2="-1057.298"/>
			</g>
			<g>
				<line fill="none" stroke="#808285" x1="33.885" y1="803.562" x2="1595.724" y2="-1057.298"/>
			</g>
			<g>
				<line fill="none" stroke="#808285" x1="23.885" y1="803.562" x2="1585.724" y2="-1057.298"/>
			</g>
			<g>
				<line fill="none" stroke="#808285" x1="13.885" y1="803.562" x2="1575.724" y2="-1057.298"/>
			</g>
			<g>
				<line fill="none" stroke="#808285" x1="3.885" y1="803.562" x2="1565.724" y2="-1057.298"/>
			</g>
			<g>
				<line fill="none" stroke="#808285" x1="-6.115" y1="803.562" x2="1555.724" y2="-1057.298"/>
			</g>
			<g>
				<line fill="none" stroke="#808285" x1="-16.115" y1="803.562" x2="1545.724" y2="-1057.298"/>
			</g>
			<g>
				<line fill="none" stroke="#808285" x1="-26.115" y1="803.562" x2="1535.724" y2="-1057.298"/>
			</g>
			<g>
				<line fill="none" stroke="#808285" x1="-36.115" y1="803.562" x2="1525.724" y2="-1057.298"/>
			</g>
			<g>
				<line fill="none" stroke="#808285" x1="-46.115" y1="803.562" x2="1515.724" y2="-1057.298"/>
			</g>
			<g>
				<line fill="none" stroke="#808285" x1="-56.115" y1="803.562" x2="1505.724" y2="-1057.298"/>
			</g>
			<g>
				<line fill="none" stroke="#808285" x1="-66.115" y1="803.562" x2="1495.724" y2="-1057.298"/>
			</g>
			<g>
				<line fill="none" stroke="#808285" x1="-76.115" y1="803.562" x2="1485.724" y2="-1057.298"/>
			</g>
			<g>
				<line fill="none" stroke="#808285" x1="-86.115" y1="803.562" x2="1475.724" y2="-1057.298"/>
			</g>
			<g>
				<line fill="none" stroke="#808285" x1="-96.115" y1="803.562" x2="1465.724" y2="-1057.298"/>
			</g>
			<g>
				<line fill="none" stroke="#808285" x1="-106.115" y1="803.562" x2="1455.724" y2="-1057.298"/>
			</g>
			<g>
				<line fill="none" stroke="#808285" x1="-116.115" y1="803.562" x2="1445.724" y2="-1057.298"/>
			</g>
			<g>
				<line fill="none" stroke="#808285" x1="-126.115" y1="803.562" x2="1435.724" y2="-1057.298"/>
			</g>
			<g>
				<line fill="none" stroke="#808285" x1="-136.115" y1="803.562" x2="1425.724" y2="-1057.298"/>
			</g>
			<g>
				<line fill="none" stroke="#808285" x1="-146.115" y1="803.562" x2="1415.724" y2="-1057.298"/>
			</g>
			<g>
				<line fill="none" stroke="#808285" x1="-156.115" y1="803.562" x2="1405.724" y2="-1057.298"/>
			</g>
			<g>
				<line fill="none" stroke="#808285" x1="-166.115" y1="803.562" x2="1395.724" y2="-1057.298"/>
			</g>
			<g>
				<line fill="none" stroke="#808285" x1="-176.115" y1="803.562" x2="1385.724" y2="-1057.298"/>
			</g>
			<g>
				<line fill="none" stroke="#808285" x1="-186.115" y1="803.562" x2="1375.724" y2="-1057.298"/>
			</g>
			<g>
				<line fill="none" stroke="#808285" x1="-196.115" y1="803.562" x2="1365.724" y2="-1057.298"/>
			</g>
			<g>
				<line fill="none" stroke="#808285" x1="-206.115" y1="803.562" x2="1355.724" y2="-1057.298"/>
			</g>
			<g>
				<line fill="none" stroke="#808285" x1="-216.115" y1="803.562" x2="1345.724" y2="-1057.298"/>
			</g>
			<g>
				<line fill="none" stroke="#808285" x1="-226.115" y1="803.562" x2="1335.724" y2="-1057.298"/>
			</g>
			<g>
				<line fill="none" stroke="#808285" x1="-236.115" y1="803.562" x2="1325.724" y2="-1057.298"/>
			</g>
			<g>
				<line fill="none" stroke="#808285" x1="-246.115" y1="803.562" x2="1315.724" y2="-1057.298"/>
			</g>
			<g>
				<line fill="none" stroke="#808285" x1="-256.115" y1="803.562" x2="1305.724" y2="-1057.298"/>
			</g>
			<g>
				<line fill="none" stroke="#808285" x1="-266.115" y1="803.562" x2="1295.724" y2="-1057.298"/>
			</g>
			<g>
				<line fill="none" stroke="#808285" x1="-276.115" y1="803.562" x2="1285.724" y2="-1057.298"/>
			</g>
			<g>
				<line fill="none" stroke="#808285" x1="-286.115" y1="803.562" x2="1275.724" y2="-1057.298"/>
			</g>
			<g>
				<line fill="none" stroke="#808285" x1="-296.115" y1="803.562" x2="1265.724" y2="-1057.298"/>
			</g>
			<g>
				<line fill="none" stroke="#808285" x1="-306.115" y1="803.562" x2="1255.724" y2="-1057.298"/>
			</g>
			<g>
				<line fill="none" stroke="#808285" x1="-316.115" y1="803.562" x2="1245.724" y2="-1057.298"/>
			</g>
			<g>
				<line fill="none" stroke="#808285" x1="-326.115" y1="803.562" x2="1235.724" y2="-1057.298"/>
			</g>
			<g>
				<line fill="none" stroke="#808285" x1="-336.115" y1="803.562" x2="1225.724" y2="-1057.298"/>
			</g>
			<g>
				<line fill="none" stroke="#808285" x1="-346.115" y1="803.562" x2="1215.724" y2="-1057.298"/>
			</g>
			<g>
				<line fill="none" stroke="#808285" x1="-356.115" y1="803.562" x2="1205.724" y2="-1057.298"/>
			</g>
			<g>
				<line fill="none" stroke="#808285" x1="-366.115" y1="803.562" x2="1195.724" y2="-1057.298"/>
			</g>
			<g>
				<line fill="none" stroke="#808285" x1="-376.115" y1="803.562" x2="1185.724" y2="-1057.298"/>
			</g>
			<g>
				<line fill="none" stroke="#808285" x1="-386.115" y1="803.562" x2="1175.724" y2="-1057.298"/>
			</g>
			<g>
				<line fill="none" stroke="#808285" x1="-396.115" y1="803.562" x2="1165.724" y2="-1057.298"/>
			</g>
			<g>
				<line fill="none" stroke="#808285" x1="-406.115" y1="803.562" x2="1155.724" y2="-1057.298"/>
			</g>
			<g>
				<line fill="none" stroke="#808285" x1="-416.115" y1="803.562" x2="1145.724" y2="-1057.298"/>
			</g>
			<g>
				<line fill="none" stroke="#808285" x1="-426.115" y1="803.562" x2="1135.724" y2="-1057.298"/>
			</g>
			<g>
				<line fill="none" stroke="#808285" x1="-436.115" y1="803.562" x2="1125.724" y2="-1057.298"/>
			</g>
			<g>
				<line fill="none" stroke="#808285" x1="-446.115" y1="803.562" x2="1115.724" y2="-1057.298"/>
			</g>
			<g>
				<line fill="none" stroke="#808285" x1="-456.115" y1="803.562" x2="1105.724" y2="-1057.298"/>
			</g>
			<g>
				<line fill="none" stroke="#808285" x1="-466.115" y1="803.562" x2="1095.724" y2="-1057.298"/>
			</g>
			<g>
				<line fill="none" stroke="#808285" x1="-476.115" y1="803.562" x2="1085.724" y2="-1057.298"/>
			</g>
			<g>
				<line fill="none" stroke="#808285" x1="-486.115" y1="803.562" x2="1075.724" y2="-1057.298"/>
			</g>
			<g>
				<line fill="none" stroke="#808285" x1="-496.115" y1="803.562" x2="1065.724" y2="-1057.298"/>
			</g>
			<g>
				<line fill="none" stroke="#808285" x1="-506.115" y1="803.562" x2="1055.724" y2="-1057.298"/>
			</g>
			<g>
				<line fill="none" stroke="#808285" x1="-516.115" y1="803.562" x2="1045.724" y2="-1057.298"/>
			</g>
			<g>
				<line fill="none" stroke="#808285" x1="-526.115" y1="803.562" x2="1035.724" y2="-1057.298"/>
			</g>
			<g>
				<line fill="none" stroke="#808285" x1="-536.115" y1="803.562" x2="1025.724" y2="-1057.298"/>
			</g>
			<g>
				<line fill="none" stroke="#808285" x1="-546.115" y1="803.562" x2="1015.724" y2="-1057.298"/>
			</g>
			<g>
				<line fill="none" stroke="#808285" x1="-556.115" y1="803.562" x2="1005.724" y2="-1057.298"/>
			</g>
			<g>
				<line fill="none" stroke="#808285" x1="-566.115" y1="803.562" x2="995.724" y2="-1057.298"/>
			</g>
			<g>
				<line fill="none" stroke="#808285" x1="-576.115" y1="803.562" x2="985.724" y2="-1057.298"/>
			</g>
			<g>
				<line fill="none" stroke="#808285" x1="-586.115" y1="803.562" x2="975.724" y2="-1057.298"/>
			</g>
			<g>
				<line fill="none" stroke="#808285" x1="-596.115" y1="803.562" x2="965.724" y2="-1057.298"/>
			</g>
			<g>
				<line fill="none" stroke="#808285" x1="-606.115" y1="803.562" x2="955.724" y2="-1057.298"/>
			</g>
			<g>
				<line fill="none" stroke="#808285" x1="-616.115" y1="803.562" x2="945.724" y2="-1057.298"/>
			</g>
			<g>
				<line fill="none" stroke="#808285" x1="-626.115" y1="803.562" x2="935.724" y2="-1057.298"/>
			</g>
			<g>
				<line fill="none" stroke="#808285" x1="-636.115" y1="803.562" x2="925.724" y2="-1057.298"/>
			</g>
			<g>
				<line fill="none" stroke="#808285" x1="-646.115" y1="803.562" x2="915.724" y2="-1057.298"/>
			</g>
			<g>
				<line fill="none" stroke="#808285" x1="-656.115" y1="803.562" x2="905.724" y2="-1057.298"/>
			</g>
			<g>
				<line fill="none" stroke="#808285" x1="-666.115" y1="803.562" x2="895.724" y2="-1057.298"/>
			</g>
			<g>
				<line fill="none" stroke="#808285" x1="-676.115" y1="803.562" x2="885.724" y2="-1057.298"/>
			</g>
			<g>
				<line fill="none" stroke="#808285" x1="-686.115" y1="803.562" x2="875.724" y2="-1057.298"/>
			</g>
			<g>
				<line fill="none" stroke="#808285" x1="-696.115" y1="803.562" x2="865.724" y2="-1057.298"/>
			</g>
			<g>
				<line fill="none" stroke="#808285" x1="-706.115" y1="803.562" x2="855.724" y2="-1057.298"/>
			</g>
			<g>
				<line fill="none" stroke="#808285" x1="-716.115" y1="803.562" x2="845.724" y2="-1057.298"/>
			</g>
			<g>
				<line fill="none" stroke="#808285" x1="-726.115" y1="803.562" x2="835.724" y2="-1057.298"/>
			</g>
			<g>
				<line fill="none" stroke="#808285" x1="-736.115" y1="803.562" x2="825.724" y2="-1057.298"/>
			</g>
			<g>
				<line fill="none" stroke="#808285" x1="-746.115" y1="803.562" x2="815.724" y2="-1057.298"/>
			</g>
			<g>
				<line fill="none" stroke="#808285" x1="-756.115" y1="803.562" x2="805.724" y2="-1057.298"/>
			</g>
			<g>
				<line fill="none" stroke="#808285" x1="-766.115" y1="803.562" x2="795.724" y2="-1057.298"/>
			</g>
			<g>
				<line fill="none" stroke="#808285" x1="-776.115" y1="803.562" x2="785.724" y2="-1057.298"/>
			</g>
			<g>
				<line fill="none" stroke="#808285" x1="-786.115" y1="803.562" x2="775.724" y2="-1057.298"/>
			</g>
			<g>
				<line fill="none" stroke="#808285" x1="-796.115" y1="803.562" x2="765.724" y2="-1057.298"/>
			</g>
			<g>
				<line fill="none" stroke="#808285" x1="-806.115" y1="803.562" x2="755.724" y2="-1057.298"/>
			</g>
			<g>
				<line fill="none" stroke="#808285" x1="-816.115" y1="803.562" x2="745.724" y2="-1057.298"/>
			</g>
			<g>
				<line fill="none" stroke="#808285" x1="-826.115" y1="803.562" x2="735.724" y2="-1057.298"/>
			</g>
			<g>
				<line fill="none" stroke="#808285" x1="-836.115" y1="803.562" x2="725.724" y2="-1057.298"/>
			</g>
			<g>
				<line fill="none" stroke="#808285" x1="-846.115" y1="803.562" x2="715.724" y2="-1057.298"/>
			</g>
			<g>
				<line fill="none" stroke="#808285" x1="-856.115" y1="803.562" x2="705.724" y2="-1057.298"/>
			</g>
			<g>
				<line fill="none" stroke="#808285" x1="-866.115" y1="803.562" x2="695.724" y2="-1057.298"/>
			</g>
			<g>
				<line fill="none" stroke="#808285" x1="-876.115" y1="803.562" x2="685.724" y2="-1057.298"/>
			</g>
			<g>
				<line fill="none" stroke="#808285" x1="-886.115" y1="803.562" x2="675.724" y2="-1057.298"/>
			</g>
			<g>
				<line fill="none" stroke="#808285" x1="-896.115" y1="803.562" x2="665.724" y2="-1057.298"/>
			</g>
			<g>
				<line fill="none" stroke="#808285" x1="-906.115" y1="803.562" x2="655.724" y2="-1057.298"/>
			</g>
			<g>
				<line fill="none" stroke="#808285" x1="-916.115" y1="803.562" x2="645.724" y2="-1057.298"/>
			</g>
			<g>
				<line fill="none" stroke="#808285" x1="-926.115" y1="803.562" x2="635.724" y2="-1057.298"/>
			</g>
			<g>
				<line fill="none" stroke="#808285" x1="-936.115" y1="803.562" x2="625.724" y2="-1057.298"/>
			</g>
			<g>
				<line fill="none" stroke="#808285" x1="-946.115" y1="803.562" x2="615.724" y2="-1057.298"/>
			</g>
			<g>
				<line fill="none" stroke="#808285" x1="-956.115" y1="803.562" x2="605.724" y2="-1057.298"/>
			</g>
			<g>
				<line fill="none" stroke="#808285" x1="-966.115" y1="803.562" x2="595.724" y2="-1057.298"/>
			</g>
			<g>
				<line fill="none" stroke="#808285" x1="-976.115" y1="803.562" x2="585.724" y2="-1057.298"/>
			</g>
			<g>
				<line fill="none" stroke="#808285" x1="-986.115" y1="803.562" x2="575.724" y2="-1057.298"/>
			</g>
			<g>
				<line fill="none" stroke="#808285" x1="-996.115" y1="803.562" x2="565.724" y2="-1057.298"/>
			</g>
			<g>
				<line fill="none" stroke="#808285" x1="-1006.115" y1="803.562" x2="555.724" y2="-1057.298"/>
			</g>
			<g>
				<line fill="none" stroke="#808285" x1="-1016.115" y1="803.562" x2="545.724" y2="-1057.298"/>
			</g>
			<g>
				<line fill="none" stroke="#808285" x1="-1026.115" y1="803.562" x2="535.724" y2="-1057.298"/>
			</g>
			<g>
				<line fill="none" stroke="#808285" x1="-1036.115" y1="803.562" x2="525.724" y2="-1057.298"/>
			</g>
			<g>
				<line fill="none" stroke="#808285" x1="-1046.115" y1="803.562" x2="515.724" y2="-1057.298"/>
			</g>
			<g>
				<line fill="none" stroke="#808285" x1="-1056.115" y1="803.562" x2="505.724" y2="-1057.298"/>
			</g>
			<g>
				<line fill="none" stroke="#808285" x1="-1066.115" y1="803.562" x2="495.724" y2="-1057.298"/>
			</g>
			<g>
				<line fill="none" stroke="#808285" x1="-1076.115" y1="803.562" x2="485.724" y2="-1057.298"/>
			</g>
			<g>
				<line fill="none" stroke="#808285" x1="-1086.115" y1="803.562" x2="475.724" y2="-1057.298"/>
			</g>
			<g>
				<line fill="none" stroke="#808285" x1="-1096.115" y1="803.562" x2="465.724" y2="-1057.298"/>
			</g>
			<g>
				<line fill="none" stroke="#808285" x1="-1106.115" y1="803.562" x2="455.724" y2="-1057.298"/>
			</g>
			<g>
				<line fill="none" stroke="#808285" x1="-1116.115" y1="803.562" x2="445.724" y2="-1057.298"/>
			</g>
			<g>
				<line fill="none" stroke="#808285" x1="-1126.115" y1="803.562" x2="435.724" y2="-1057.298"/>
			</g>
			<g>
				<line fill="none" stroke="#808285" x1="-1136.115" y1="803.562" x2="425.724" y2="-1057.298"/>
			</g>
			<g>
				<line fill="none" stroke="#808285" x1="-1146.115" y1="803.562" x2="415.724" y2="-1057.298"/>
			</g>
			<g>
				<line fill="none" stroke="#808285" x1="-1156.115" y1="803.562" x2="405.724" y2="-1057.298"/>
			</g>
			<g>
				<line fill="none" stroke="#808285" x1="-1166.115" y1="803.562" x2="395.724" y2="-1057.298"/>
			</g>
			<g>
				<line fill="none" stroke="#808285" x1="-1176.115" y1="803.562" x2="385.724" y2="-1057.298"/>
			</g>
			<g>
				<line fill="none" stroke="#808285" x1="-1186.115" y1="803.562" x2="375.724" y2="-1057.298"/>
			</g>
			<g>
				<line fill="none" stroke="#808285" x1="-1196.115" y1="803.562" x2="365.724" y2="-1057.298"/>
			</g>
			<g>
				<line fill="none" stroke="#808285" x1="-1206.115" y1="803.562" x2="355.724" y2="-1057.298"/>
			</g>
			<g>
				<line fill="none" stroke="#808285" x1="-1216.115" y1="803.562" x2="345.724" y2="-1057.298"/>
			</g>
			<g>
				<line fill="none" stroke="#808285" x1="-1226.115" y1="803.562" x2="335.724" y2="-1057.298"/>
			</g>
		</g>
	</g>
</g>
<g id="map">
</g>
<g id="building" display="none">
</g>
<g id="Layer_2">
</g>
<g id="Layer_6">
	<path fill="#9BCB45" d="M70,35c0,19.33-15.67,35.001-35,35.001C15.67,70.001,0,54.33,0,35S15.67,0,35,0C54.33,0,70,15.67,70,35z
		 M44.312,18.268c1.307-1.488,2.148-3.413,1.366-4.192c-0.206-0.208-0.494-0.298-0.833-0.298c-0.936,0-2.264,0.707-3.356,1.666
		c-0.927,0.813-3.754,3.715-5.079,5.096l-1.078-0.355c0.415-0.415,0.586-0.595,0.683-0.693c0.04-0.039,0.068-0.07,0.093-0.095
		c0.355-0.356,0.333-0.738-0.063-1.135c-0.208-0.212-0.414-0.312-0.611-0.312c-0.18,0-0.355,0.082-0.522,0.248
		c-0.026,0.027-0.055,0.056-0.094,0.092c-0.11,0.107-0.315,0.307-0.831,0.822c-0.172,0.173-0.311,0.337-0.414,0.49
		c-2.385-0.787-5.531-1.771-6.881-2.192c-0.415-0.132-0.689-0.217-0.743-0.233c-0.114-0.038-0.23-0.056-0.345-0.056
		c-0.567,0-1.109,0.4-1.343,0.599c-0.18,0.155-0.268,0.383-0.234,0.617c0.031,0.227,0.185,0.435,0.393,0.529
		c0.019,0.01,6.094,2.982,6.853,3.361c0.434,0.214,1.479,1.005,2.119,1.501c-0.207,0.22-0.317,0.334-0.363,0.381
		c-1.272,1.256-2.997,3.134-4.1,4.459c-0.07,0.08-0.16,0.206-0.264,0.359c-0.357-0.099-1.332-0.354-2.902-0.757
		c-0.033-0.006-0.066-0.014-0.1-0.014c-0.115,0-0.224,0.053-0.301,0.146l-0.372,0.463c-0.077,0.096-0.103,0.219-0.076,0.332
		c0.017,0.072,0.054,0.139,0.106,0.192c0.007,0.008,0.015,0.017,0.029,0.026c0.02,0.016,0.04,0.029,0.064,0.041
		c0.004,0.006,0.01,0.007,0.017,0.011c0.274,0.152,2.19,1.396,2.2,1.401l0.009,0.006c0.061,0.031,0.116,0.062,0.164,0.086
		c-0.028,0.057-0.057,0.112-0.087,0.174c-0.063,0.123-0.125,0.24-0.182,0.352c-0.442,0.854-0.663,1.283-0.467,1.479l0.123,0.123
		c0.048,0.047,0.11,0.069,0.191,0.069c0.243,0,0.645-0.206,1.286-0.537c0.111-0.059,0.229-0.117,0.353-0.182l0.031-0.016
		c0.047-0.025,0.094-0.048,0.141-0.072c0.026,0.047,0.053,0.1,0.083,0.155l0.007,0.015c0.008,0.017,1.253,1.928,1.404,2.201
		c0.003,0.004,0.006,0.012,0.009,0.021c0.013,0.021,0.027,0.042,0.046,0.065c0.058,0.067,0.132,0.114,0.211,0.129
		c0.031,0.008,0.062,0.01,0.093,0.01c0.087,0,0.172-0.024,0.241-0.082l0.465-0.375c0.12-0.094,0.171-0.248,0.132-0.396
		c-0.403-1.569-0.657-2.543-0.758-2.902c0.155-0.106,0.28-0.195,0.362-0.266c1.326-1.104,3.201-2.827,4.458-4.1
		c0.052-0.053,0.221-0.211,0.38-0.361c0.364,0.471,1.274,1.663,1.502,2.118c0.31,0.619,3.061,6.191,3.356,6.841l0.004,0.008
		c0.095,0.21,0.301,0.365,0.529,0.397c0.033,0.004,0.065,0.004,0.096,0.004c0.198,0,0.388-0.087,0.519-0.239
		c0.239-0.282,0.772-1.012,0.548-1.69c-0.021-0.055-0.11-0.339-0.253-0.786c-0.447-1.401-1.373-4.312-2.195-6.822
		c0.158-0.104,0.331-0.249,0.509-0.425c0.517-0.519,0.715-0.725,0.821-0.834c0.039-0.042,0.067-0.068,0.091-0.093
		c0.356-0.356,0.336-0.738-0.061-1.135c-0.209-0.208-0.414-0.314-0.612-0.314c-0.179,0-0.353,0.086-0.522,0.254
		c-0.025,0.025-0.054,0.051-0.096,0.091c-0.1,0.098-0.281,0.272-0.706,0.696c-0.127-0.394-0.244-0.76-0.348-1.087
		C40.601,22.016,43.513,19.18,44.312,18.268z"/>
	<rect x="8.5" y="42.559" fill="none" width="53" height="8.083"/>
	<text transform="matrix(1 0 0 1 23.2505 49.0566)" fill="#F1F2F2" font-family="'TradeGothic-Roman'" font-size="9">Travel</text>
</g>
</svg>
