<?xml version="1.0" encoding="utf-8"?>
<!-- Generator: Adobe Illustrator 16.0.0, SVG Export Plug-In . SVG Version: 6.00 Build 0)  -->
<!DOCTYPE svg PUBLIC "-//W3C//DTD SVG 1.1//EN" "http://www.w3.org/Graphics/SVG/1.1/DTD/svg11.dtd">
<svg version="1.1" xmlns="http://www.w3.org/2000/svg" xmlns:xlink="http://www.w3.org/1999/xlink" x="0px" y="0px" width="60px"
	 height="60px" viewBox="2079.07 858.689 60 60" enable-background="new 2079.07 858.689 60 60" xml:space="preserve">
<g id="web">
</g>
<g id="map">
</g>
<g id="Layer_10">
</g>
<g id="svg-dot" display="none">
</g>
<g id="sidebar" display="none">
</g>
<g id="collide" display="none">
</g>
<g id="lines" display="none">
</g>
<g id="users" display="none">
</g>
<g id="Layer_7" display="none">
</g>
<g id="overlay">
	<rect x="2079.07" y="858.689" opacity="0.7" fill="#212121" width="1625.76" height="1045.957"/>
	<g>
		<defs>
			<rect id="SVGID_5_" x="143.594" y="124.879" width="1625.759" height="1045.957"/>
		</defs>
		<clipPath id="SVGID_2_">
			<use xlink:href="#SVGID_5_"  overflow="visible"/>
		</clipPath>
		<g opacity="0.6" clip-path="url(#SVGID_2_)">
			<g>
				<line fill="none" stroke="#4B4C4C" x1="1306.5" y1="1906.504" x2="2868.339" y2="45.646"/>
			</g>
			<g>
				<line fill="none" stroke="#4B4C4C" x1="1300.5" y1="1906.504" x2="2862.339" y2="45.646"/>
			</g>
			<g>
				<line fill="none" stroke="#4B4C4C" x1="1294.5" y1="1906.504" x2="2856.339" y2="45.646"/>
			</g>
			<g>
				<line fill="none" stroke="#4B4C4C" x1="1288.5" y1="1906.504" x2="2850.339" y2="45.646"/>
			</g>
			<g>
				<line fill="none" stroke="#4B4C4C" x1="1282.5" y1="1906.504" x2="2844.339" y2="45.646"/>
			</g>
			<g>
				<line fill="none" stroke="#4B4C4C" x1="1276.5" y1="1906.504" x2="2838.339" y2="45.646"/>
			</g>
			<g>
				<line fill="none" stroke="#4B4C4C" x1="1270.5" y1="1906.504" x2="2832.339" y2="45.646"/>
			</g>
			<g>
				<line fill="none" stroke="#4B4C4C" x1="1264.5" y1="1906.504" x2="2826.339" y2="45.646"/>
			</g>
			<g>
				<line fill="none" stroke="#4B4C4C" x1="1258.5" y1="1906.504" x2="2820.339" y2="45.646"/>
			</g>
			<g>
				<line fill="none" stroke="#4B4C4C" x1="1252.5" y1="1906.504" x2="2814.339" y2="45.646"/>
			</g>
			<g>
				<line fill="none" stroke="#4B4C4C" x1="1246.5" y1="1906.504" x2="2808.339" y2="45.646"/>
			</g>
			<g>
				<line fill="none" stroke="#4B4C4C" x1="1240.5" y1="1906.504" x2="2802.339" y2="45.646"/>
			</g>
			<g>
				<line fill="none" stroke="#4B4C4C" x1="1234.5" y1="1906.504" x2="2796.339" y2="45.646"/>
			</g>
			<g>
				<line fill="none" stroke="#4B4C4C" x1="1228.5" y1="1906.504" x2="2790.339" y2="45.646"/>
			</g>
			<g>
				<line fill="none" stroke="#4B4C4C" x1="1222.5" y1="1906.504" x2="2784.339" y2="45.646"/>
			</g>
			<g>
				<line fill="none" stroke="#4B4C4C" x1="1216.5" y1="1906.504" x2="2778.339" y2="45.646"/>
			</g>
			<g>
				<line fill="none" stroke="#4B4C4C" x1="1210.5" y1="1906.504" x2="2772.339" y2="45.646"/>
			</g>
			<g>
				<line fill="none" stroke="#4B4C4C" x1="1204.5" y1="1906.504" x2="2766.339" y2="45.646"/>
			</g>
			<g>
				<line fill="none" stroke="#4B4C4C" x1="1198.5" y1="1906.504" x2="2760.339" y2="45.646"/>
			</g>
			<g>
				<line fill="none" stroke="#4B4C4C" x1="1192.5" y1="1906.504" x2="2754.339" y2="45.646"/>
			</g>
			<g>
				<line fill="none" stroke="#4B4C4C" x1="1186.5" y1="1906.504" x2="2748.339" y2="45.646"/>
			</g>
			<g>
				<line fill="none" stroke="#4B4C4C" x1="1180.5" y1="1906.504" x2="2742.339" y2="45.646"/>
			</g>
			<g>
				<line fill="none" stroke="#4B4C4C" x1="1174.5" y1="1906.504" x2="2736.339" y2="45.646"/>
			</g>
			<g>
				<line fill="none" stroke="#4B4C4C" x1="1168.5" y1="1906.504" x2="2730.339" y2="45.646"/>
			</g>
			<g>
				<line fill="none" stroke="#4B4C4C" x1="1162.5" y1="1906.504" x2="2724.339" y2="45.646"/>
			</g>
			<g>
				<line fill="none" stroke="#4B4C4C" x1="1156.5" y1="1906.504" x2="2718.339" y2="45.646"/>
			</g>
			<g>
				<line fill="none" stroke="#4B4C4C" x1="1150.5" y1="1906.504" x2="2712.339" y2="45.646"/>
			</g>
			<g>
				<line fill="none" stroke="#4B4C4C" x1="1144.5" y1="1906.504" x2="2706.339" y2="45.646"/>
			</g>
			<g>
				<line fill="none" stroke="#4B4C4C" x1="1138.5" y1="1906.504" x2="2700.339" y2="45.646"/>
			</g>
			<g>
				<line fill="none" stroke="#4B4C4C" x1="1132.5" y1="1906.504" x2="2694.339" y2="45.646"/>
			</g>
			<g>
				<line fill="none" stroke="#4B4C4C" x1="1126.5" y1="1906.504" x2="2688.339" y2="45.646"/>
			</g>
			<g>
				<line fill="none" stroke="#4B4C4C" x1="1120.5" y1="1906.504" x2="2682.339" y2="45.646"/>
			</g>
			<g>
				<line fill="none" stroke="#4B4C4C" x1="1114.5" y1="1906.504" x2="2676.339" y2="45.646"/>
			</g>
			<g>
				<line fill="none" stroke="#4B4C4C" x1="1108.5" y1="1906.504" x2="2670.339" y2="45.646"/>
			</g>
			<g>
				<line fill="none" stroke="#4B4C4C" x1="1102.5" y1="1906.504" x2="2664.339" y2="45.646"/>
			</g>
			<g>
				<line fill="none" stroke="#4B4C4C" x1="1096.5" y1="1906.504" x2="2658.339" y2="45.646"/>
			</g>
			<g>
				<line fill="none" stroke="#4B4C4C" x1="1090.5" y1="1906.504" x2="2652.339" y2="45.646"/>
			</g>
			<g>
				<line fill="none" stroke="#4B4C4C" x1="1084.5" y1="1906.504" x2="2646.339" y2="45.646"/>
			</g>
			<g>
				<line fill="none" stroke="#4B4C4C" x1="1078.5" y1="1906.504" x2="2640.339" y2="45.646"/>
			</g>
			<g>
				<line fill="none" stroke="#4B4C4C" x1="1072.5" y1="1906.504" x2="2634.339" y2="45.646"/>
			</g>
			<g>
				<line fill="none" stroke="#4B4C4C" x1="1066.5" y1="1906.504" x2="2628.339" y2="45.646"/>
			</g>
			<g>
				<line fill="none" stroke="#4B4C4C" x1="1060.5" y1="1906.504" x2="2622.339" y2="45.646"/>
			</g>
			<g>
				<line fill="none" stroke="#4B4C4C" x1="1054.5" y1="1906.504" x2="2616.339" y2="45.646"/>
			</g>
			<g>
				<line fill="none" stroke="#4B4C4C" x1="1048.5" y1="1906.504" x2="2610.339" y2="45.646"/>
			</g>
			<g>
				<line fill="none" stroke="#4B4C4C" x1="1042.5" y1="1906.504" x2="2604.339" y2="45.646"/>
			</g>
			<g>
				<line fill="none" stroke="#4B4C4C" x1="1036.5" y1="1906.504" x2="2598.339" y2="45.646"/>
			</g>
			<g>
				<line fill="none" stroke="#4B4C4C" x1="1030.5" y1="1906.504" x2="2592.339" y2="45.646"/>
			</g>
			<g>
				<line fill="none" stroke="#4B4C4C" x1="1024.5" y1="1906.504" x2="2586.339" y2="45.646"/>
			</g>
			<g>
				<line fill="none" stroke="#4B4C4C" x1="1018.5" y1="1906.504" x2="2580.339" y2="45.646"/>
			</g>
			<g>
				<line fill="none" stroke="#4B4C4C" x1="1012.5" y1="1906.504" x2="2574.339" y2="45.646"/>
			</g>
			<g>
				<line fill="none" stroke="#4B4C4C" x1="1006.5" y1="1906.504" x2="2568.339" y2="45.646"/>
			</g>
			<g>
				<line fill="none" stroke="#4B4C4C" x1="1000.5" y1="1906.504" x2="2562.339" y2="45.646"/>
			</g>
			<g>
				<line fill="none" stroke="#4B4C4C" x1="994.5" y1="1906.504" x2="2556.339" y2="45.646"/>
			</g>
			<g>
				<line fill="none" stroke="#4B4C4C" x1="988.5" y1="1906.504" x2="2550.339" y2="45.646"/>
			</g>
			<g>
				<line fill="none" stroke="#4B4C4C" x1="982.5" y1="1906.504" x2="2544.339" y2="45.646"/>
			</g>
			<g>
				<line fill="none" stroke="#4B4C4C" x1="976.5" y1="1906.504" x2="2538.339" y2="45.646"/>
			</g>
			<g>
				<line fill="none" stroke="#4B4C4C" x1="970.5" y1="1906.504" x2="2532.339" y2="45.646"/>
			</g>
			<g>
				<line fill="none" stroke="#4B4C4C" x1="964.5" y1="1906.504" x2="2526.339" y2="45.646"/>
			</g>
			<g>
				<line fill="none" stroke="#4B4C4C" x1="958.5" y1="1906.504" x2="2520.339" y2="45.646"/>
			</g>
			<g>
				<line fill="none" stroke="#4B4C4C" x1="952.5" y1="1906.504" x2="2514.339" y2="45.646"/>
			</g>
			<g>
				<line fill="none" stroke="#4B4C4C" x1="946.5" y1="1906.504" x2="2508.339" y2="45.646"/>
			</g>
			<g>
				<line fill="none" stroke="#4B4C4C" x1="940.5" y1="1906.504" x2="2502.339" y2="45.646"/>
			</g>
			<g>
				<line fill="none" stroke="#4B4C4C" x1="934.5" y1="1906.504" x2="2496.339" y2="45.646"/>
			</g>
			<g>
				<line fill="none" stroke="#4B4C4C" x1="928.5" y1="1906.504" x2="2490.339" y2="45.646"/>
			</g>
			<g>
				<line fill="none" stroke="#4B4C4C" x1="922.5" y1="1906.504" x2="2484.339" y2="45.646"/>
			</g>
			<g>
				<line fill="none" stroke="#4B4C4C" x1="916.5" y1="1906.504" x2="2478.339" y2="45.646"/>
			</g>
			<g>
				<line fill="none" stroke="#4B4C4C" x1="910.5" y1="1906.504" x2="2472.339" y2="45.646"/>
			</g>
			<g>
				<line fill="none" stroke="#4B4C4C" x1="904.5" y1="1906.504" x2="2466.339" y2="45.646"/>
			</g>
			<g>
				<line fill="none" stroke="#4B4C4C" x1="898.5" y1="1906.504" x2="2460.339" y2="45.646"/>
			</g>
			<g>
				<line fill="none" stroke="#4B4C4C" x1="892.5" y1="1906.504" x2="2454.339" y2="45.646"/>
			</g>
			<g>
				<line fill="none" stroke="#4B4C4C" x1="886.5" y1="1906.504" x2="2448.339" y2="45.646"/>
			</g>
			<g>
				<line fill="none" stroke="#4B4C4C" x1="880.5" y1="1906.504" x2="2442.339" y2="45.646"/>
			</g>
			<g>
				<line fill="none" stroke="#4B4C4C" x1="874.5" y1="1906.504" x2="2436.339" y2="45.646"/>
			</g>
			<g>
				<line fill="none" stroke="#4B4C4C" x1="868.5" y1="1906.504" x2="2430.339" y2="45.646"/>
			</g>
			<g>
				<line fill="none" stroke="#4B4C4C" x1="862.5" y1="1906.504" x2="2424.339" y2="45.646"/>
			</g>
			<g>
				<line fill="none" stroke="#4B4C4C" x1="856.5" y1="1906.504" x2="2418.339" y2="45.646"/>
			</g>
			<g>
				<line fill="none" stroke="#4B4C4C" x1="850.5" y1="1906.504" x2="2412.339" y2="45.646"/>
			</g>
			<g>
				<line fill="none" stroke="#4B4C4C" x1="844.5" y1="1906.504" x2="2406.339" y2="45.646"/>
			</g>
			<g>
				<line fill="none" stroke="#4B4C4C" x1="838.5" y1="1906.504" x2="2400.339" y2="45.646"/>
			</g>
			<g>
				<line fill="none" stroke="#4B4C4C" x1="832.5" y1="1906.504" x2="2394.339" y2="45.646"/>
			</g>
			<g>
				<line fill="none" stroke="#4B4C4C" x1="826.5" y1="1906.504" x2="2388.339" y2="45.646"/>
			</g>
			<g>
				<line fill="none" stroke="#4B4C4C" x1="820.5" y1="1906.504" x2="2382.339" y2="45.646"/>
			</g>
			<g>
				<line fill="none" stroke="#4B4C4C" x1="814.5" y1="1906.504" x2="2376.339" y2="45.646"/>
			</g>
			<g>
				<line fill="none" stroke="#4B4C4C" x1="808.5" y1="1906.504" x2="2370.339" y2="45.646"/>
			</g>
			<g>
				<line fill="none" stroke="#4B4C4C" x1="802.5" y1="1906.504" x2="2364.339" y2="45.646"/>
			</g>
			<g>
				<line fill="none" stroke="#4B4C4C" x1="796.5" y1="1906.504" x2="2358.339" y2="45.646"/>
			</g>
			<g>
				<line fill="none" stroke="#4B4C4C" x1="790.5" y1="1906.504" x2="2352.339" y2="45.646"/>
			</g>
			<g>
				<line fill="none" stroke="#4B4C4C" x1="784.5" y1="1906.504" x2="2346.339" y2="45.646"/>
			</g>
			<g>
				<line fill="none" stroke="#4B4C4C" x1="778.5" y1="1906.504" x2="2340.339" y2="45.646"/>
			</g>
			<g>
				<line fill="none" stroke="#4B4C4C" x1="772.5" y1="1906.504" x2="2334.339" y2="45.646"/>
			</g>
			<g>
				<line fill="none" stroke="#4B4C4C" x1="766.5" y1="1906.504" x2="2328.339" y2="45.646"/>
			</g>
			<g>
				<line fill="none" stroke="#4B4C4C" x1="760.5" y1="1906.504" x2="2322.339" y2="45.646"/>
			</g>
			<g>
				<line fill="none" stroke="#4B4C4C" x1="754.5" y1="1906.504" x2="2316.339" y2="45.646"/>
			</g>
			<g>
				<line fill="none" stroke="#4B4C4C" x1="748.5" y1="1906.504" x2="2310.339" y2="45.646"/>
			</g>
			<g>
				<line fill="none" stroke="#4B4C4C" x1="742.5" y1="1906.504" x2="2304.339" y2="45.646"/>
			</g>
			<g>
				<line fill="none" stroke="#4B4C4C" x1="736.5" y1="1906.504" x2="2298.339" y2="45.646"/>
			</g>
			<g>
				<line fill="none" stroke="#4B4C4C" x1="730.5" y1="1906.504" x2="2292.339" y2="45.646"/>
			</g>
			<g>
				<line fill="none" stroke="#4B4C4C" x1="724.5" y1="1906.504" x2="2286.339" y2="45.646"/>
			</g>
			<g>
				<line fill="none" stroke="#4B4C4C" x1="718.5" y1="1906.504" x2="2280.339" y2="45.646"/>
			</g>
			<g>
				<line fill="none" stroke="#4B4C4C" x1="712.5" y1="1906.504" x2="2274.339" y2="45.646"/>
			</g>
			<g>
				<line fill="none" stroke="#4B4C4C" x1="706.5" y1="1906.504" x2="2268.339" y2="45.646"/>
			</g>
			<g>
				<line fill="none" stroke="#4B4C4C" x1="700.5" y1="1906.504" x2="2262.339" y2="45.646"/>
			</g>
			<g>
				<line fill="none" stroke="#4B4C4C" x1="694.5" y1="1906.504" x2="2256.339" y2="45.646"/>
			</g>
			<g>
				<line fill="none" stroke="#4B4C4C" x1="688.5" y1="1906.504" x2="2250.339" y2="45.646"/>
			</g>
			<g>
				<line fill="none" stroke="#4B4C4C" x1="682.5" y1="1906.504" x2="2244.339" y2="45.646"/>
			</g>
			<g>
				<line fill="none" stroke="#4B4C4C" x1="676.5" y1="1906.504" x2="2238.339" y2="45.646"/>
			</g>
			<g>
				<line fill="none" stroke="#4B4C4C" x1="670.5" y1="1906.504" x2="2232.339" y2="45.646"/>
			</g>
			<g>
				<line fill="none" stroke="#4B4C4C" x1="664.5" y1="1906.504" x2="2226.339" y2="45.646"/>
			</g>
			<g>
				<line fill="none" stroke="#4B4C4C" x1="658.5" y1="1906.504" x2="2220.339" y2="45.646"/>
			</g>
			<g>
				<line fill="none" stroke="#4B4C4C" x1="652.5" y1="1906.504" x2="2214.339" y2="45.646"/>
			</g>
			<g>
				<line fill="none" stroke="#4B4C4C" x1="646.5" y1="1906.504" x2="2208.339" y2="45.646"/>
			</g>
			<g>
				<line fill="none" stroke="#4B4C4C" x1="640.5" y1="1906.504" x2="2202.339" y2="45.646"/>
			</g>
			<g>
				<line fill="none" stroke="#4B4C4C" x1="634.5" y1="1906.504" x2="2196.339" y2="45.646"/>
			</g>
			<g>
				<line fill="none" stroke="#4B4C4C" x1="628.5" y1="1906.504" x2="2190.339" y2="45.646"/>
			</g>
			<g>
				<line fill="none" stroke="#4B4C4C" x1="622.5" y1="1906.504" x2="2184.339" y2="45.646"/>
			</g>
			<g>
				<line fill="none" stroke="#4B4C4C" x1="616.5" y1="1906.504" x2="2178.339" y2="45.646"/>
			</g>
			<g>
				<line fill="none" stroke="#4B4C4C" x1="610.5" y1="1906.504" x2="2172.339" y2="45.646"/>
			</g>
			<g>
				<line fill="none" stroke="#4B4C4C" x1="604.5" y1="1906.504" x2="2166.339" y2="45.646"/>
			</g>
			<g>
				<line fill="none" stroke="#4B4C4C" x1="598.5" y1="1906.504" x2="2160.339" y2="45.646"/>
			</g>
			<g>
				<line fill="none" stroke="#4B4C4C" x1="592.5" y1="1906.504" x2="2154.339" y2="45.646"/>
			</g>
			<g>
				<line fill="none" stroke="#4B4C4C" x1="586.5" y1="1906.504" x2="2148.339" y2="45.646"/>
			</g>
			<g>
				<line fill="none" stroke="#4B4C4C" x1="580.5" y1="1906.504" x2="2142.339" y2="45.646"/>
			</g>
			<g>
				<line fill="none" stroke="#4B4C4C" x1="574.5" y1="1906.504" x2="2136.339" y2="45.646"/>
			</g>
			<g>
				<line fill="none" stroke="#4B4C4C" x1="568.5" y1="1906.504" x2="2130.339" y2="45.646"/>
			</g>
			<g>
				<line fill="none" stroke="#4B4C4C" x1="562.5" y1="1906.504" x2="2124.339" y2="45.646"/>
			</g>
			<g>
				<line fill="none" stroke="#4B4C4C" x1="556.5" y1="1906.504" x2="2118.339" y2="45.646"/>
			</g>
			<g>
				<line fill="none" stroke="#4B4C4C" x1="550.5" y1="1906.504" x2="2112.339" y2="45.646"/>
			</g>
			<g>
				<line fill="none" stroke="#4B4C4C" x1="544.5" y1="1906.504" x2="2106.339" y2="45.646"/>
			</g>
			<g>
				<line fill="none" stroke="#4B4C4C" x1="538.5" y1="1906.504" x2="2100.339" y2="45.646"/>
			</g>
			<g>
				<line fill="none" stroke="#4B4C4C" x1="532.5" y1="1906.504" x2="2094.339" y2="45.646"/>
			</g>
			<g>
				<line fill="none" stroke="#4B4C4C" x1="526.5" y1="1906.504" x2="2088.339" y2="45.646"/>
			</g>
			<g>
				<line fill="none" stroke="#4B4C4C" x1="520.5" y1="1906.504" x2="2082.339" y2="45.646"/>
			</g>
		</g>
	</g>
	<rect x="2079.07" y="858.689" fill="none" width="1625.76" height="1045.957"/>
	<g>
		<defs>
			<rect id="SVGID_7_" x="2079.07" y="858.689" width="1625.76" height="1045.957"/>
		</defs>
		<clipPath id="SVGID_4_">
			<use xlink:href="#SVGID_7_"  overflow="visible"/>
		</clipPath>
		<g opacity="0.6" clip-path="url(#SVGID_4_)">
			<g>
				<line fill="none" stroke="#4B4C4C" x1="2139.035" y1="1579.456" x2="2939.035" y2="779.456"/>
			</g>
			<g>
				<line fill="none" stroke="#4B4C4C" x1="2133.035" y1="1579.456" x2="2933.035" y2="779.456"/>
			</g>
			<g>
				<line fill="none" stroke="#4B4C4C" x1="2127.035" y1="1579.456" x2="2927.035" y2="779.456"/>
			</g>
			<g>
				<line fill="none" stroke="#4B4C4C" x1="2121.035" y1="1579.456" x2="2921.035" y2="779.456"/>
			</g>
			<g>
				<line fill="none" stroke="#4B4C4C" x1="2115.035" y1="1579.456" x2="2915.035" y2="779.456"/>
			</g>
			<g>
				<line fill="none" stroke="#4B4C4C" x1="2109.035" y1="1579.456" x2="2909.035" y2="779.456"/>
			</g>
			<g>
				<line fill="none" stroke="#4B4C4C" x1="2103.035" y1="1579.456" x2="2903.035" y2="779.456"/>
			</g>
			<g>
				<line fill="none" stroke="#4B4C4C" x1="2097.035" y1="1579.456" x2="2897.035" y2="779.456"/>
			</g>
			<g>
				<line fill="none" stroke="#4B4C4C" x1="2091.035" y1="1579.456" x2="2891.035" y2="779.456"/>
			</g>
			<g>
				<line fill="none" stroke="#4B4C4C" x1="2085.035" y1="1579.456" x2="2885.035" y2="779.456"/>
			</g>
			<g>
				<line fill="none" stroke="#4B4C4C" x1="2079.035" y1="1579.456" x2="2879.035" y2="779.456"/>
			</g>
			<g>
				<line fill="none" stroke="#4B4C4C" x1="2073.035" y1="1579.456" x2="2873.035" y2="779.456"/>
			</g>
			<g>
				<line fill="none" stroke="#4B4C4C" x1="2067.035" y1="1579.456" x2="2867.035" y2="779.456"/>
			</g>
			<g>
				<line fill="none" stroke="#4B4C4C" x1="2061.035" y1="1579.456" x2="2861.035" y2="779.456"/>
			</g>
			<g>
				<line fill="none" stroke="#4B4C4C" x1="2055.035" y1="1579.456" x2="2855.035" y2="779.456"/>
			</g>
			<g>
				<line fill="none" stroke="#4B4C4C" x1="2049.035" y1="1579.456" x2="2849.035" y2="779.456"/>
			</g>
			<g>
				<line fill="none" stroke="#4B4C4C" x1="2043.035" y1="1579.456" x2="2843.035" y2="779.456"/>
			</g>
			<g>
				<line fill="none" stroke="#4B4C4C" x1="2037.035" y1="1579.456" x2="2837.035" y2="779.456"/>
			</g>
			<g>
				<line fill="none" stroke="#4B4C4C" x1="2031.035" y1="1579.456" x2="2831.035" y2="779.456"/>
			</g>
			<g>
				<line fill="none" stroke="#4B4C4C" x1="2025.035" y1="1579.456" x2="2825.035" y2="779.456"/>
			</g>
			<g>
				<line fill="none" stroke="#4B4C4C" x1="2019.035" y1="1579.456" x2="2819.035" y2="779.456"/>
			</g>
			<g>
				<line fill="none" stroke="#4B4C4C" x1="2013.035" y1="1579.456" x2="2813.035" y2="779.456"/>
			</g>
			<g>
				<line fill="none" stroke="#4B4C4C" x1="2007.035" y1="1579.456" x2="2807.035" y2="779.456"/>
			</g>
			<g>
				<line fill="none" stroke="#4B4C4C" x1="2001.035" y1="1579.456" x2="2801.035" y2="779.456"/>
			</g>
			<g>
				<line fill="none" stroke="#4B4C4C" x1="1995.035" y1="1579.456" x2="2795.035" y2="779.456"/>
			</g>
			<g>
				<line fill="none" stroke="#4B4C4C" x1="1989.035" y1="1579.456" x2="2789.035" y2="779.456"/>
			</g>
			<g>
				<line fill="none" stroke="#4B4C4C" x1="1983.035" y1="1579.456" x2="2783.035" y2="779.456"/>
			</g>
			<g>
				<line fill="none" stroke="#4B4C4C" x1="1977.035" y1="1579.456" x2="2777.035" y2="779.456"/>
			</g>
			<g>
				<line fill="none" stroke="#4B4C4C" x1="1971.035" y1="1579.456" x2="2771.035" y2="779.456"/>
			</g>
			<g>
				<line fill="none" stroke="#4B4C4C" x1="1965.035" y1="1579.456" x2="2765.035" y2="779.456"/>
			</g>
			<g>
				<line fill="none" stroke="#4B4C4C" x1="1959.035" y1="1579.456" x2="2759.035" y2="779.456"/>
			</g>
			<g>
				<line fill="none" stroke="#4B4C4C" x1="1953.035" y1="1579.456" x2="2753.035" y2="779.456"/>
			</g>
			<g>
				<line fill="none" stroke="#4B4C4C" x1="1947.035" y1="1579.456" x2="2747.035" y2="779.456"/>
			</g>
			<g>
				<line fill="none" stroke="#4B4C4C" x1="1941.035" y1="1579.456" x2="2741.035" y2="779.456"/>
			</g>
			<g>
				<line fill="none" stroke="#4B4C4C" x1="1935.035" y1="1579.456" x2="2735.035" y2="779.456"/>
			</g>
			<g>
				<line fill="none" stroke="#4B4C4C" x1="1929.035" y1="1579.456" x2="2729.035" y2="779.456"/>
			</g>
			<g>
				<line fill="none" stroke="#4B4C4C" x1="1923.035" y1="1579.456" x2="2723.035" y2="779.456"/>
			</g>
			<g>
				<line fill="none" stroke="#4B4C4C" x1="1917.035" y1="1579.456" x2="2717.035" y2="779.456"/>
			</g>
			<g>
				<line fill="none" stroke="#4B4C4C" x1="1911.035" y1="1579.456" x2="2711.035" y2="779.456"/>
			</g>
			<g>
				<line fill="none" stroke="#4B4C4C" x1="1905.035" y1="1579.456" x2="2705.035" y2="779.456"/>
			</g>
			<g>
				<line fill="none" stroke="#4B4C4C" x1="1899.035" y1="1579.456" x2="2699.035" y2="779.456"/>
			</g>
			<g>
				<line fill="none" stroke="#4B4C4C" x1="1893.035" y1="1579.456" x2="2693.035" y2="779.456"/>
			</g>
			<g>
				<line fill="none" stroke="#4B4C4C" x1="1887.035" y1="1579.456" x2="2687.035" y2="779.456"/>
			</g>
			<g>
				<line fill="none" stroke="#4B4C4C" x1="1881.035" y1="1579.456" x2="2681.035" y2="779.456"/>
			</g>
			<g>
				<line fill="none" stroke="#4B4C4C" x1="1875.035" y1="1579.456" x2="2675.035" y2="779.456"/>
			</g>
			<g>
				<line fill="none" stroke="#4B4C4C" x1="1869.035" y1="1579.456" x2="2669.035" y2="779.456"/>
			</g>
			<g>
				<line fill="none" stroke="#4B4C4C" x1="1863.035" y1="1579.456" x2="2663.035" y2="779.456"/>
			</g>
			<g>
				<line fill="none" stroke="#4B4C4C" x1="1857.035" y1="1579.456" x2="2657.035" y2="779.456"/>
			</g>
			<g>
				<line fill="none" stroke="#4B4C4C" x1="1851.035" y1="1579.456" x2="2651.035" y2="779.456"/>
			</g>
			<g>
				<line fill="none" stroke="#4B4C4C" x1="1845.035" y1="1579.456" x2="2645.035" y2="779.456"/>
			</g>
			<g>
				<line fill="none" stroke="#4B4C4C" x1="1839.035" y1="1579.456" x2="2639.035" y2="779.456"/>
			</g>
			<g>
				<line fill="none" stroke="#4B4C4C" x1="1833.035" y1="1579.456" x2="2633.035" y2="779.456"/>
			</g>
			<g>
				<line fill="none" stroke="#4B4C4C" x1="1827.035" y1="1579.456" x2="2627.035" y2="779.456"/>
			</g>
			<g>
				<line fill="none" stroke="#4B4C4C" x1="1821.035" y1="1579.456" x2="2621.035" y2="779.456"/>
			</g>
			<g>
				<line fill="none" stroke="#4B4C4C" x1="1815.035" y1="1579.456" x2="2615.035" y2="779.456"/>
			</g>
			<g>
				<line fill="none" stroke="#4B4C4C" x1="1809.035" y1="1579.456" x2="2609.035" y2="779.456"/>
			</g>
			<g>
				<line fill="none" stroke="#4B4C4C" x1="1803.035" y1="1579.456" x2="2603.035" y2="779.456"/>
			</g>
			<g>
				<line fill="none" stroke="#4B4C4C" x1="1797.035" y1="1579.456" x2="2597.035" y2="779.456"/>
			</g>
			<g>
				<line fill="none" stroke="#4B4C4C" x1="1791.035" y1="1579.456" x2="2591.035" y2="779.456"/>
			</g>
			<g>
				<line fill="none" stroke="#4B4C4C" x1="1785.035" y1="1579.456" x2="2585.035" y2="779.456"/>
			</g>
			<g>
				<line fill="none" stroke="#4B4C4C" x1="1779.035" y1="1579.456" x2="2579.035" y2="779.456"/>
			</g>
			<g>
				<line fill="none" stroke="#4B4C4C" x1="1773.035" y1="1579.456" x2="2573.035" y2="779.456"/>
			</g>
			<g>
				<line fill="none" stroke="#4B4C4C" x1="1767.035" y1="1579.456" x2="2567.035" y2="779.456"/>
			</g>
			<g>
				<line fill="none" stroke="#4B4C4C" x1="1761.035" y1="1579.456" x2="2561.035" y2="779.456"/>
			</g>
			<g>
				<line fill="none" stroke="#4B4C4C" x1="1755.035" y1="1579.456" x2="2555.035" y2="779.456"/>
			</g>
			<g>
				<line fill="none" stroke="#4B4C4C" x1="1749.035" y1="1579.456" x2="2549.035" y2="779.456"/>
			</g>
			<g>
				<line fill="none" stroke="#4B4C4C" x1="1743.035" y1="1579.456" x2="2543.035" y2="779.456"/>
			</g>
			<g>
				<line fill="none" stroke="#4B4C4C" x1="1737.035" y1="1579.456" x2="2537.035" y2="779.456"/>
			</g>
			<g>
				<line fill="none" stroke="#4B4C4C" x1="1731.035" y1="1579.456" x2="2531.035" y2="779.456"/>
			</g>
			<g>
				<line fill="none" stroke="#4B4C4C" x1="1725.035" y1="1579.456" x2="2525.035" y2="779.456"/>
			</g>
			<g>
				<line fill="none" stroke="#4B4C4C" x1="1719.035" y1="1579.456" x2="2519.035" y2="779.456"/>
			</g>
			<g>
				<line fill="none" stroke="#4B4C4C" x1="1713.035" y1="1579.456" x2="2513.035" y2="779.456"/>
			</g>
			<g>
				<line fill="none" stroke="#4B4C4C" x1="1707.035" y1="1579.456" x2="2507.035" y2="779.456"/>
			</g>
			<g>
				<line fill="none" stroke="#4B4C4C" x1="1701.035" y1="1579.456" x2="2501.035" y2="779.456"/>
			</g>
			<g>
				<line fill="none" stroke="#4B4C4C" x1="1695.035" y1="1579.456" x2="2495.035" y2="779.456"/>
			</g>
			<g>
				<line fill="none" stroke="#4B4C4C" x1="1689.035" y1="1579.456" x2="2489.035" y2="779.456"/>
			</g>
			<g>
				<line fill="none" stroke="#4B4C4C" x1="1683.035" y1="1579.456" x2="2483.035" y2="779.456"/>
			</g>
			<g>
				<line fill="none" stroke="#4B4C4C" x1="1677.035" y1="1579.456" x2="2477.035" y2="779.456"/>
			</g>
			<g>
				<line fill="none" stroke="#4B4C4C" x1="1671.035" y1="1579.456" x2="2471.035" y2="779.456"/>
			</g>
			<g>
				<line fill="none" stroke="#4B4C4C" x1="1665.035" y1="1579.456" x2="2465.035" y2="779.456"/>
			</g>
			<g>
				<line fill="none" stroke="#4B4C4C" x1="1659.035" y1="1579.456" x2="2459.035" y2="779.456"/>
			</g>
			<g>
				<line fill="none" stroke="#4B4C4C" x1="1653.035" y1="1579.456" x2="2453.035" y2="779.456"/>
			</g>
			<g>
				<line fill="none" stroke="#4B4C4C" x1="1647.035" y1="1579.456" x2="2447.035" y2="779.456"/>
			</g>
			<g>
				<line fill="none" stroke="#4B4C4C" x1="1641.035" y1="1579.456" x2="2441.035" y2="779.456"/>
			</g>
			<g>
				<line fill="none" stroke="#4B4C4C" x1="1635.035" y1="1579.456" x2="2435.035" y2="779.456"/>
			</g>
			<g>
				<line fill="none" stroke="#4B4C4C" x1="1629.035" y1="1579.456" x2="2429.035" y2="779.456"/>
			</g>
			<g>
				<line fill="none" stroke="#4B4C4C" x1="1623.035" y1="1579.456" x2="2423.035" y2="779.456"/>
			</g>
			<g>
				<line fill="none" stroke="#4B4C4C" x1="1617.035" y1="1579.456" x2="2417.035" y2="779.456"/>
			</g>
			<g>
				<line fill="none" stroke="#4B4C4C" x1="1611.035" y1="1579.456" x2="2411.035" y2="779.456"/>
			</g>
			<g>
				<line fill="none" stroke="#4B4C4C" x1="1605.035" y1="1579.456" x2="2405.035" y2="779.456"/>
			</g>
			<g>
				<line fill="none" stroke="#4B4C4C" x1="1599.035" y1="1579.456" x2="2399.035" y2="779.456"/>
			</g>
			<g>
				<line fill="none" stroke="#4B4C4C" x1="1593.035" y1="1579.456" x2="2393.035" y2="779.456"/>
			</g>
			<g>
				<line fill="none" stroke="#4B4C4C" x1="1587.035" y1="1579.456" x2="2387.035" y2="779.456"/>
			</g>
			<g>
				<line fill="none" stroke="#4B4C4C" x1="1581.035" y1="1579.456" x2="2381.035" y2="779.456"/>
			</g>
			<g>
				<line fill="none" stroke="#4B4C4C" x1="1575.035" y1="1579.456" x2="2375.035" y2="779.456"/>
			</g>
			<g>
				<line fill="none" stroke="#4B4C4C" x1="1569.035" y1="1579.456" x2="2369.035" y2="779.456"/>
			</g>
			<g>
				<line fill="none" stroke="#4B4C4C" x1="1563.035" y1="1579.456" x2="2363.035" y2="779.456"/>
			</g>
			<g>
				<line fill="none" stroke="#4B4C4C" x1="1557.035" y1="1579.456" x2="2357.035" y2="779.456"/>
			</g>
			<g>
				<line fill="none" stroke="#4B4C4C" x1="1551.035" y1="1579.456" x2="2351.035" y2="779.456"/>
			</g>
			<g>
				<line fill="none" stroke="#4B4C4C" x1="1545.035" y1="1579.456" x2="2345.035" y2="779.456"/>
			</g>
			<g>
				<line fill="none" stroke="#4B4C4C" x1="1539.035" y1="1579.456" x2="2339.035" y2="779.456"/>
			</g>
			<g>
				<line fill="none" stroke="#4B4C4C" x1="1533.035" y1="1579.456" x2="2333.035" y2="779.456"/>
			</g>
			<g>
				<line fill="none" stroke="#4B4C4C" x1="1527.035" y1="1579.456" x2="2327.035" y2="779.456"/>
			</g>
			<g>
				<line fill="none" stroke="#4B4C4C" x1="1521.035" y1="1579.456" x2="2321.035" y2="779.456"/>
			</g>
			<g>
				<line fill="none" stroke="#4B4C4C" x1="1515.035" y1="1579.456" x2="2315.035" y2="779.456"/>
			</g>
			<g>
				<line fill="none" stroke="#4B4C4C" x1="1509.035" y1="1579.456" x2="2309.035" y2="779.456"/>
			</g>
			<g>
				<line fill="none" stroke="#4B4C4C" x1="1503.035" y1="1579.456" x2="2303.035" y2="779.456"/>
			</g>
			<g>
				<line fill="none" stroke="#4B4C4C" x1="1497.035" y1="1579.456" x2="2297.035" y2="779.456"/>
			</g>
			<g>
				<line fill="none" stroke="#4B4C4C" x1="1491.035" y1="1579.456" x2="2291.035" y2="779.456"/>
			</g>
			<g>
				<line fill="none" stroke="#4B4C4C" x1="1485.035" y1="1579.456" x2="2285.035" y2="779.456"/>
			</g>
			<g>
				<line fill="none" stroke="#4B4C4C" x1="1479.035" y1="1579.456" x2="2279.035" y2="779.456"/>
			</g>
			<g>
				<line fill="none" stroke="#4B4C4C" x1="1473.035" y1="1579.456" x2="2273.035" y2="779.456"/>
			</g>
			<g>
				<line fill="none" stroke="#4B4C4C" x1="1467.035" y1="1579.456" x2="2267.035" y2="779.456"/>
			</g>
			<g>
				<line fill="none" stroke="#4B4C4C" x1="1461.035" y1="1579.456" x2="2261.035" y2="779.456"/>
			</g>
			<g>
				<line fill="none" stroke="#4B4C4C" x1="1455.035" y1="1579.456" x2="2255.035" y2="779.456"/>
			</g>
			<g>
				<line fill="none" stroke="#4B4C4C" x1="1449.035" y1="1579.456" x2="2249.035" y2="779.456"/>
			</g>
			<g>
				<line fill="none" stroke="#4B4C4C" x1="1443.035" y1="1579.456" x2="2243.035" y2="779.456"/>
			</g>
			<g>
				<line fill="none" stroke="#4B4C4C" x1="1437.035" y1="1579.456" x2="2237.035" y2="779.456"/>
			</g>
			<g>
				<line fill="none" stroke="#4B4C4C" x1="1431.035" y1="1579.456" x2="2231.035" y2="779.456"/>
			</g>
			<g>
				<line fill="none" stroke="#4B4C4C" x1="1425.035" y1="1579.456" x2="2225.035" y2="779.456"/>
			</g>
			<g>
				<line fill="none" stroke="#4B4C4C" x1="1419.035" y1="1579.456" x2="2219.035" y2="779.456"/>
			</g>
			<g>
				<line fill="none" stroke="#4B4C4C" x1="1413.035" y1="1579.456" x2="2213.035" y2="779.456"/>
			</g>
			<g>
				<line fill="none" stroke="#4B4C4C" x1="1407.035" y1="1579.456" x2="2207.035" y2="779.456"/>
			</g>
			<g>
				<line fill="none" stroke="#4B4C4C" x1="1401.035" y1="1579.456" x2="2201.035" y2="779.456"/>
			</g>
			<g>
				<line fill="none" stroke="#4B4C4C" x1="1395.035" y1="1579.456" x2="2195.035" y2="779.456"/>
			</g>
			<g>
				<line fill="none" stroke="#4B4C4C" x1="1389.035" y1="1579.456" x2="2189.035" y2="779.456"/>
			</g>
			<g>
				<line fill="none" stroke="#4B4C4C" x1="1383.035" y1="1579.456" x2="2183.035" y2="779.456"/>
			</g>
			<g>
				<line fill="none" stroke="#4B4C4C" x1="1377.035" y1="1579.456" x2="2177.035" y2="779.456"/>
			</g>
			<g>
				<line fill="none" stroke="#4B4C4C" x1="1371.035" y1="1579.456" x2="2171.035" y2="779.456"/>
			</g>
			<g>
				<line fill="none" stroke="#4B4C4C" x1="1365.035" y1="1579.456" x2="2165.035" y2="779.456"/>
			</g>
			<g>
				<line fill="none" stroke="#4B4C4C" x1="1359.035" y1="1579.456" x2="2159.035" y2="779.456"/>
			</g>
			<g>
				<line fill="none" stroke="#4B4C4C" x1="1353.035" y1="1579.456" x2="2153.035" y2="779.456"/>
			</g>
			<g>
				<line fill="none" stroke="#4B4C4C" x1="1347.035" y1="1579.456" x2="2147.035" y2="779.456"/>
			</g>
			<g>
				<line fill="none" stroke="#4B4C4C" x1="1341.035" y1="1579.456" x2="2141.035" y2="779.456"/>
			</g>
			<g>
				<line fill="none" stroke="#4B4C4C" x1="1335.035" y1="1579.456" x2="2135.035" y2="779.456"/>
			</g>
			<g>
				<line fill="none" stroke="#4B4C4C" x1="1329.035" y1="1579.456" x2="2129.035" y2="779.456"/>
			</g>
			<g>
				<line fill="none" stroke="#4B4C4C" x1="1323.035" y1="1579.456" x2="2123.035" y2="779.456"/>
			</g>
			<g>
				<line fill="none" stroke="#4B4C4C" x1="1317.035" y1="1579.456" x2="2117.035" y2="779.456"/>
			</g>
			<g>
				<line fill="none" stroke="#4B4C4C" x1="1311.035" y1="1579.456" x2="2111.035" y2="779.456"/>
			</g>
			<g>
				<line fill="none" stroke="#4B4C4C" x1="1305.035" y1="1579.456" x2="2105.035" y2="779.456"/>
			</g>
			<g>
				<line fill="none" stroke="#4B4C4C" x1="1299.035" y1="1579.456" x2="2099.035" y2="779.456"/>
			</g>
			<g>
				<line fill="none" stroke="#4B4C4C" x1="1293.035" y1="1579.456" x2="2093.035" y2="779.456"/>
			</g>
			<g>
				<line fill="none" stroke="#4B4C4C" x1="1287.035" y1="1579.456" x2="2087.035" y2="779.456"/>
			</g>
			<g>
				<line fill="none" stroke="#4B4C4C" x1="1281.035" y1="1579.456" x2="2081.035" y2="779.456"/>
			</g>
		</g>
	</g>
</g>
<g id="front_page">
</g>
<g id="title">
</g>
</svg>
