<?xml version="1.0" encoding="utf-8"?>
<!-- Generator: Adobe Illustrator 16.0.0, SVG Export Plug-In . SVG Version: 6.00 Build 0)  -->
<!DOCTYPE svg PUBLIC "-//W3C//DTD SVG 1.1//EN" "http://www.w3.org/Graphics/SVG/1.1/DTD/svg11.dtd">
<svg version="1.1" xmlns="http://www.w3.org/2000/svg" xmlns:xlink="http://www.w3.org/1999/xlink" x="0px" y="0px" width="70px"
	 height="70.001px" viewBox="0 0 70 70.001" enable-background="new 0 0 70 70.001" xml:space="preserve">
<g id="Layer_1">
</g>
<g id="Layer_7" display="none">
</g>
<g id="water">
</g>
<g id="water_1_">
	<g>
		<defs>
			<rect id="SVGID_1_" x="260.988" y="-1057.298" width="2006.02" height="1864.493"/>
		</defs>
		<clipPath id="SVGID_2_">
			<use xlink:href="#SVGID_1_"  overflow="visible"/>
		</clipPath>
		<g opacity="0.6" clip-path="url(#SVGID_2_)">
			<g>
				<line fill="none" stroke="#808285" x1="63.479" y1="803.562" x2="1625.317" y2="-1057.298"/>
			</g>
			<g>
				<line fill="none" stroke="#808285" x1="53.479" y1="803.562" x2="1615.317" y2="-1057.298"/>
			</g>
			<g>
				<line fill="none" stroke="#808285" x1="43.479" y1="803.562" x2="1605.317" y2="-1057.298"/>
			</g>
			<g>
				<line fill="none" stroke="#808285" x1="33.479" y1="803.562" x2="1595.317" y2="-1057.298"/>
			</g>
			<g>
				<line fill="none" stroke="#808285" x1="23.479" y1="803.562" x2="1585.317" y2="-1057.298"/>
			</g>
			<g>
				<line fill="none" stroke="#808285" x1="13.479" y1="803.562" x2="1575.317" y2="-1057.298"/>
			</g>
			<g>
				<line fill="none" stroke="#808285" x1="3.479" y1="803.562" x2="1565.317" y2="-1057.298"/>
			</g>
			<g>
				<line fill="none" stroke="#808285" x1="-6.521" y1="803.562" x2="1555.317" y2="-1057.298"/>
			</g>
			<g>
				<line fill="none" stroke="#808285" x1="-16.521" y1="803.562" x2="1545.317" y2="-1057.298"/>
			</g>
			<g>
				<line fill="none" stroke="#808285" x1="-26.521" y1="803.562" x2="1535.317" y2="-1057.298"/>
			</g>
			<g>
				<line fill="none" stroke="#808285" x1="-36.521" y1="803.562" x2="1525.317" y2="-1057.298"/>
			</g>
			<g>
				<line fill="none" stroke="#808285" x1="-46.521" y1="803.562" x2="1515.317" y2="-1057.298"/>
			</g>
			<g>
				<line fill="none" stroke="#808285" x1="-56.521" y1="803.562" x2="1505.317" y2="-1057.298"/>
			</g>
			<g>
				<line fill="none" stroke="#808285" x1="-66.521" y1="803.562" x2="1495.317" y2="-1057.298"/>
			</g>
			<g>
				<line fill="none" stroke="#808285" x1="-76.521" y1="803.562" x2="1485.317" y2="-1057.298"/>
			</g>
			<g>
				<line fill="none" stroke="#808285" x1="-86.521" y1="803.562" x2="1475.317" y2="-1057.298"/>
			</g>
			<g>
				<line fill="none" stroke="#808285" x1="-96.521" y1="803.562" x2="1465.317" y2="-1057.298"/>
			</g>
			<g>
				<line fill="none" stroke="#808285" x1="-106.521" y1="803.562" x2="1455.317" y2="-1057.298"/>
			</g>
			<g>
				<line fill="none" stroke="#808285" x1="-116.521" y1="803.562" x2="1445.317" y2="-1057.298"/>
			</g>
			<g>
				<line fill="none" stroke="#808285" x1="-126.521" y1="803.562" x2="1435.317" y2="-1057.298"/>
			</g>
			<g>
				<line fill="none" stroke="#808285" x1="-136.521" y1="803.562" x2="1425.317" y2="-1057.298"/>
			</g>
			<g>
				<line fill="none" stroke="#808285" x1="-146.521" y1="803.562" x2="1415.317" y2="-1057.298"/>
			</g>
			<g>
				<line fill="none" stroke="#808285" x1="-156.521" y1="803.562" x2="1405.317" y2="-1057.298"/>
			</g>
			<g>
				<line fill="none" stroke="#808285" x1="-166.521" y1="803.562" x2="1395.317" y2="-1057.298"/>
			</g>
			<g>
				<line fill="none" stroke="#808285" x1="-176.521" y1="803.562" x2="1385.317" y2="-1057.298"/>
			</g>
			<g>
				<line fill="none" stroke="#808285" x1="-186.521" y1="803.562" x2="1375.317" y2="-1057.298"/>
			</g>
			<g>
				<line fill="none" stroke="#808285" x1="-196.521" y1="803.562" x2="1365.317" y2="-1057.298"/>
			</g>
			<g>
				<line fill="none" stroke="#808285" x1="-206.521" y1="803.562" x2="1355.317" y2="-1057.298"/>
			</g>
			<g>
				<line fill="none" stroke="#808285" x1="-216.521" y1="803.562" x2="1345.317" y2="-1057.298"/>
			</g>
			<g>
				<line fill="none" stroke="#808285" x1="-226.521" y1="803.562" x2="1335.317" y2="-1057.298"/>
			</g>
			<g>
				<line fill="none" stroke="#808285" x1="-236.521" y1="803.562" x2="1325.317" y2="-1057.298"/>
			</g>
			<g>
				<line fill="none" stroke="#808285" x1="-246.521" y1="803.562" x2="1315.317" y2="-1057.298"/>
			</g>
			<g>
				<line fill="none" stroke="#808285" x1="-256.521" y1="803.562" x2="1305.317" y2="-1057.298"/>
			</g>
			<g>
				<line fill="none" stroke="#808285" x1="-266.521" y1="803.562" x2="1295.317" y2="-1057.298"/>
			</g>
			<g>
				<line fill="none" stroke="#808285" x1="-276.521" y1="803.562" x2="1285.317" y2="-1057.298"/>
			</g>
			<g>
				<line fill="none" stroke="#808285" x1="-286.521" y1="803.562" x2="1275.317" y2="-1057.298"/>
			</g>
			<g>
				<line fill="none" stroke="#808285" x1="-296.521" y1="803.562" x2="1265.317" y2="-1057.298"/>
			</g>
			<g>
				<line fill="none" stroke="#808285" x1="-306.521" y1="803.562" x2="1255.317" y2="-1057.298"/>
			</g>
			<g>
				<line fill="none" stroke="#808285" x1="-316.521" y1="803.562" x2="1245.317" y2="-1057.298"/>
			</g>
			<g>
				<line fill="none" stroke="#808285" x1="-326.521" y1="803.562" x2="1235.317" y2="-1057.298"/>
			</g>
			<g>
				<line fill="none" stroke="#808285" x1="-336.521" y1="803.562" x2="1225.317" y2="-1057.298"/>
			</g>
			<g>
				<line fill="none" stroke="#808285" x1="-346.521" y1="803.562" x2="1215.317" y2="-1057.298"/>
			</g>
			<g>
				<line fill="none" stroke="#808285" x1="-356.521" y1="803.562" x2="1205.317" y2="-1057.298"/>
			</g>
			<g>
				<line fill="none" stroke="#808285" x1="-366.521" y1="803.562" x2="1195.317" y2="-1057.298"/>
			</g>
			<g>
				<line fill="none" stroke="#808285" x1="-376.521" y1="803.562" x2="1185.317" y2="-1057.298"/>
			</g>
			<g>
				<line fill="none" stroke="#808285" x1="-386.521" y1="803.562" x2="1175.317" y2="-1057.298"/>
			</g>
			<g>
				<line fill="none" stroke="#808285" x1="-396.521" y1="803.562" x2="1165.317" y2="-1057.298"/>
			</g>
			<g>
				<line fill="none" stroke="#808285" x1="-406.521" y1="803.562" x2="1155.317" y2="-1057.298"/>
			</g>
			<g>
				<line fill="none" stroke="#808285" x1="-416.521" y1="803.562" x2="1145.317" y2="-1057.298"/>
			</g>
			<g>
				<line fill="none" stroke="#808285" x1="-426.521" y1="803.562" x2="1135.317" y2="-1057.298"/>
			</g>
			<g>
				<line fill="none" stroke="#808285" x1="-436.521" y1="803.562" x2="1125.317" y2="-1057.298"/>
			</g>
			<g>
				<line fill="none" stroke="#808285" x1="-446.521" y1="803.562" x2="1115.317" y2="-1057.298"/>
			</g>
			<g>
				<line fill="none" stroke="#808285" x1="-456.521" y1="803.562" x2="1105.317" y2="-1057.298"/>
			</g>
			<g>
				<line fill="none" stroke="#808285" x1="-466.521" y1="803.562" x2="1095.317" y2="-1057.298"/>
			</g>
			<g>
				<line fill="none" stroke="#808285" x1="-476.521" y1="803.562" x2="1085.317" y2="-1057.298"/>
			</g>
			<g>
				<line fill="none" stroke="#808285" x1="-486.521" y1="803.562" x2="1075.317" y2="-1057.298"/>
			</g>
			<g>
				<line fill="none" stroke="#808285" x1="-496.521" y1="803.562" x2="1065.317" y2="-1057.298"/>
			</g>
			<g>
				<line fill="none" stroke="#808285" x1="-506.521" y1="803.562" x2="1055.317" y2="-1057.298"/>
			</g>
			<g>
				<line fill="none" stroke="#808285" x1="-516.521" y1="803.562" x2="1045.317" y2="-1057.298"/>
			</g>
			<g>
				<line fill="none" stroke="#808285" x1="-526.521" y1="803.562" x2="1035.317" y2="-1057.298"/>
			</g>
			<g>
				<line fill="none" stroke="#808285" x1="-536.521" y1="803.562" x2="1025.317" y2="-1057.298"/>
			</g>
			<g>
				<line fill="none" stroke="#808285" x1="-546.521" y1="803.562" x2="1015.317" y2="-1057.298"/>
			</g>
			<g>
				<line fill="none" stroke="#808285" x1="-556.521" y1="803.562" x2="1005.317" y2="-1057.298"/>
			</g>
			<g>
				<line fill="none" stroke="#808285" x1="-566.521" y1="803.562" x2="995.317" y2="-1057.298"/>
			</g>
			<g>
				<line fill="none" stroke="#808285" x1="-576.521" y1="803.562" x2="985.317" y2="-1057.298"/>
			</g>
			<g>
				<line fill="none" stroke="#808285" x1="-586.521" y1="803.562" x2="975.317" y2="-1057.298"/>
			</g>
			<g>
				<line fill="none" stroke="#808285" x1="-596.521" y1="803.562" x2="965.317" y2="-1057.298"/>
			</g>
			<g>
				<line fill="none" stroke="#808285" x1="-606.521" y1="803.562" x2="955.317" y2="-1057.298"/>
			</g>
			<g>
				<line fill="none" stroke="#808285" x1="-616.521" y1="803.562" x2="945.317" y2="-1057.298"/>
			</g>
			<g>
				<line fill="none" stroke="#808285" x1="-626.521" y1="803.562" x2="935.317" y2="-1057.298"/>
			</g>
			<g>
				<line fill="none" stroke="#808285" x1="-636.521" y1="803.562" x2="925.317" y2="-1057.298"/>
			</g>
			<g>
				<line fill="none" stroke="#808285" x1="-646.521" y1="803.562" x2="915.317" y2="-1057.298"/>
			</g>
			<g>
				<line fill="none" stroke="#808285" x1="-656.521" y1="803.562" x2="905.317" y2="-1057.298"/>
			</g>
			<g>
				<line fill="none" stroke="#808285" x1="-666.521" y1="803.562" x2="895.317" y2="-1057.298"/>
			</g>
			<g>
				<line fill="none" stroke="#808285" x1="-676.521" y1="803.562" x2="885.317" y2="-1057.298"/>
			</g>
			<g>
				<line fill="none" stroke="#808285" x1="-686.521" y1="803.562" x2="875.317" y2="-1057.298"/>
			</g>
			<g>
				<line fill="none" stroke="#808285" x1="-696.521" y1="803.562" x2="865.317" y2="-1057.298"/>
			</g>
			<g>
				<line fill="none" stroke="#808285" x1="-706.521" y1="803.562" x2="855.317" y2="-1057.298"/>
			</g>
			<g>
				<line fill="none" stroke="#808285" x1="-716.521" y1="803.562" x2="845.317" y2="-1057.298"/>
			</g>
			<g>
				<line fill="none" stroke="#808285" x1="-726.521" y1="803.562" x2="835.317" y2="-1057.298"/>
			</g>
			<g>
				<line fill="none" stroke="#808285" x1="-736.521" y1="803.562" x2="825.317" y2="-1057.298"/>
			</g>
			<g>
				<line fill="none" stroke="#808285" x1="-746.521" y1="803.562" x2="815.317" y2="-1057.298"/>
			</g>
			<g>
				<line fill="none" stroke="#808285" x1="-756.521" y1="803.562" x2="805.317" y2="-1057.298"/>
			</g>
			<g>
				<line fill="none" stroke="#808285" x1="-766.521" y1="803.562" x2="795.317" y2="-1057.298"/>
			</g>
			<g>
				<line fill="none" stroke="#808285" x1="-776.521" y1="803.562" x2="785.317" y2="-1057.298"/>
			</g>
			<g>
				<line fill="none" stroke="#808285" x1="-786.521" y1="803.562" x2="775.317" y2="-1057.298"/>
			</g>
			<g>
				<line fill="none" stroke="#808285" x1="-796.521" y1="803.562" x2="765.317" y2="-1057.298"/>
			</g>
			<g>
				<line fill="none" stroke="#808285" x1="-806.521" y1="803.562" x2="755.317" y2="-1057.298"/>
			</g>
			<g>
				<line fill="none" stroke="#808285" x1="-816.521" y1="803.562" x2="745.317" y2="-1057.298"/>
			</g>
			<g>
				<line fill="none" stroke="#808285" x1="-826.521" y1="803.562" x2="735.317" y2="-1057.298"/>
			</g>
			<g>
				<line fill="none" stroke="#808285" x1="-836.521" y1="803.562" x2="725.317" y2="-1057.298"/>
			</g>
			<g>
				<line fill="none" stroke="#808285" x1="-846.521" y1="803.562" x2="715.317" y2="-1057.298"/>
			</g>
			<g>
				<line fill="none" stroke="#808285" x1="-856.521" y1="803.562" x2="705.317" y2="-1057.298"/>
			</g>
			<g>
				<line fill="none" stroke="#808285" x1="-866.521" y1="803.562" x2="695.317" y2="-1057.298"/>
			</g>
			<g>
				<line fill="none" stroke="#808285" x1="-876.521" y1="803.562" x2="685.317" y2="-1057.298"/>
			</g>
			<g>
				<line fill="none" stroke="#808285" x1="-886.521" y1="803.562" x2="675.317" y2="-1057.298"/>
			</g>
			<g>
				<line fill="none" stroke="#808285" x1="-896.521" y1="803.562" x2="665.317" y2="-1057.298"/>
			</g>
			<g>
				<line fill="none" stroke="#808285" x1="-906.521" y1="803.562" x2="655.317" y2="-1057.298"/>
			</g>
			<g>
				<line fill="none" stroke="#808285" x1="-916.521" y1="803.562" x2="645.317" y2="-1057.298"/>
			</g>
			<g>
				<line fill="none" stroke="#808285" x1="-926.521" y1="803.562" x2="635.317" y2="-1057.298"/>
			</g>
			<g>
				<line fill="none" stroke="#808285" x1="-936.521" y1="803.562" x2="625.317" y2="-1057.298"/>
			</g>
			<g>
				<line fill="none" stroke="#808285" x1="-946.521" y1="803.562" x2="615.317" y2="-1057.298"/>
			</g>
			<g>
				<line fill="none" stroke="#808285" x1="-956.521" y1="803.562" x2="605.317" y2="-1057.298"/>
			</g>
			<g>
				<line fill="none" stroke="#808285" x1="-966.521" y1="803.562" x2="595.317" y2="-1057.298"/>
			</g>
			<g>
				<line fill="none" stroke="#808285" x1="-976.521" y1="803.562" x2="585.317" y2="-1057.298"/>
			</g>
			<g>
				<line fill="none" stroke="#808285" x1="-986.521" y1="803.562" x2="575.317" y2="-1057.298"/>
			</g>
			<g>
				<line fill="none" stroke="#808285" x1="-996.521" y1="803.562" x2="565.317" y2="-1057.298"/>
			</g>
			<g>
				<line fill="none" stroke="#808285" x1="-1006.521" y1="803.562" x2="555.317" y2="-1057.298"/>
			</g>
			<g>
				<line fill="none" stroke="#808285" x1="-1016.521" y1="803.562" x2="545.317" y2="-1057.298"/>
			</g>
			<g>
				<line fill="none" stroke="#808285" x1="-1026.521" y1="803.562" x2="535.317" y2="-1057.298"/>
			</g>
			<g>
				<line fill="none" stroke="#808285" x1="-1036.521" y1="803.562" x2="525.317" y2="-1057.298"/>
			</g>
			<g>
				<line fill="none" stroke="#808285" x1="-1046.521" y1="803.562" x2="515.317" y2="-1057.298"/>
			</g>
			<g>
				<line fill="none" stroke="#808285" x1="-1056.521" y1="803.562" x2="505.317" y2="-1057.298"/>
			</g>
			<g>
				<line fill="none" stroke="#808285" x1="-1066.521" y1="803.562" x2="495.317" y2="-1057.298"/>
			</g>
			<g>
				<line fill="none" stroke="#808285" x1="-1076.521" y1="803.562" x2="485.317" y2="-1057.298"/>
			</g>
			<g>
				<line fill="none" stroke="#808285" x1="-1086.521" y1="803.562" x2="475.317" y2="-1057.298"/>
			</g>
			<g>
				<line fill="none" stroke="#808285" x1="-1096.521" y1="803.562" x2="465.317" y2="-1057.298"/>
			</g>
			<g>
				<line fill="none" stroke="#808285" x1="-1106.521" y1="803.562" x2="455.317" y2="-1057.298"/>
			</g>
			<g>
				<line fill="none" stroke="#808285" x1="-1116.521" y1="803.562" x2="445.317" y2="-1057.298"/>
			</g>
			<g>
				<line fill="none" stroke="#808285" x1="-1126.521" y1="803.562" x2="435.317" y2="-1057.298"/>
			</g>
			<g>
				<line fill="none" stroke="#808285" x1="-1136.521" y1="803.562" x2="425.317" y2="-1057.298"/>
			</g>
			<g>
				<line fill="none" stroke="#808285" x1="-1146.521" y1="803.562" x2="415.317" y2="-1057.298"/>
			</g>
			<g>
				<line fill="none" stroke="#808285" x1="-1156.521" y1="803.562" x2="405.317" y2="-1057.298"/>
			</g>
			<g>
				<line fill="none" stroke="#808285" x1="-1166.521" y1="803.562" x2="395.317" y2="-1057.298"/>
			</g>
			<g>
				<line fill="none" stroke="#808285" x1="-1176.521" y1="803.562" x2="385.317" y2="-1057.298"/>
			</g>
			<g>
				<line fill="none" stroke="#808285" x1="-1186.521" y1="803.562" x2="375.317" y2="-1057.298"/>
			</g>
			<g>
				<line fill="none" stroke="#808285" x1="-1196.521" y1="803.562" x2="365.317" y2="-1057.298"/>
			</g>
			<g>
				<line fill="none" stroke="#808285" x1="-1206.521" y1="803.562" x2="355.317" y2="-1057.298"/>
			</g>
			<g>
				<line fill="none" stroke="#808285" x1="-1216.521" y1="803.562" x2="345.317" y2="-1057.298"/>
			</g>
			<g>
				<line fill="none" stroke="#808285" x1="-1226.521" y1="803.562" x2="335.317" y2="-1057.298"/>
			</g>
			<g>
				<line fill="none" stroke="#808285" x1="-1236.521" y1="803.562" x2="325.317" y2="-1057.298"/>
			</g>
			<g>
				<line fill="none" stroke="#808285" x1="-1246.521" y1="803.562" x2="315.317" y2="-1057.298"/>
			</g>
			<g>
				<line fill="none" stroke="#808285" x1="-1256.521" y1="803.562" x2="305.317" y2="-1057.298"/>
			</g>
			<g>
				<line fill="none" stroke="#808285" x1="-1266.521" y1="803.562" x2="295.317" y2="-1057.298"/>
			</g>
			<g>
				<line fill="none" stroke="#808285" x1="-1276.521" y1="803.562" x2="285.317" y2="-1057.298"/>
			</g>
			<g>
				<line fill="none" stroke="#808285" x1="-1286.521" y1="803.562" x2="275.317" y2="-1057.298"/>
			</g>
			<g>
				<line fill="none" stroke="#808285" x1="-1296.521" y1="803.562" x2="265.317" y2="-1057.298"/>
			</g>
			<g>
				<line fill="none" stroke="#808285" x1="-1306.521" y1="803.562" x2="255.317" y2="-1057.298"/>
			</g>
		</g>
	</g>
</g>
<g id="map">
</g>
<g id="building" display="none">
</g>
<g id="Layer_2">
</g>
<g id="Layer_6">
	<path fill="#2B7B3D" d="M40.672,22.964c0.334-0.332,0.499-0.771,0.494-1.206c0.003-0.294-0.068-0.591-0.226-0.861
		c-0.129-0.226-0.304-0.408-0.503-0.547l-3.728-3.728c0,0-0.001,0-0.002-0.002c-0.015-0.013-0.028-0.024-0.043-0.041
		c-0.007-0.006-0.014-0.013-0.022-0.019c-0.008-0.009-0.017-0.018-0.026-0.023c-0.014-0.012-0.027-0.025-0.042-0.035
		c0-0.002-0.001-0.003-0.002-0.005c-0.159-0.125-0.334-0.222-0.519-0.281c-0.003,0-0.005,0-0.007-0.003
		c-0.022-0.007-0.046-0.012-0.068-0.02c-0.007,0-0.015-0.004-0.021-0.006c-0.019-0.006-0.036-0.011-0.055-0.014
		c-0.01-0.001-0.021-0.006-0.032-0.008c-0.016-0.003-0.03-0.005-0.043-0.008c-0.014-0.002-0.027-0.002-0.041-0.005
		c-0.013-0.004-0.027-0.006-0.039-0.008c-0.016-0.002-0.029-0.002-0.044-0.003c-0.012-0.004-0.024-0.005-0.037-0.007
		c-0.015,0-0.029-0.002-0.044-0.002c-0.013-0.001-0.024-0.001-0.038-0.001c-0.014-0.004-0.027-0.004-0.042-0.004s-0.029,0-0.041,0
		c-0.012,0-0.025,0-0.038,0.003c-0.015,0.001-0.031,0.001-0.046,0.002c-0.01,0-0.02,0.002-0.03,0.002
		c-0.018,0.002-0.036,0.002-0.054,0.007c-0.008,0-0.015,0.001-0.021,0.001c-0.021,0.004-0.042,0.006-0.062,0.011
		c-0.004,0-0.009,0.002-0.014,0.002c-0.022,0.002-0.045,0.007-0.067,0.012c-0.003,0-0.006,0-0.008,0
		c-0.024,0.006-0.049,0.014-0.074,0.02c0,0,0,0-0.001,0c-0.077,0.02-0.153,0.048-0.227,0.079c-0.001,0-0.001,0.001-0.003,0.001
		c-0.022,0.008-0.046,0.019-0.068,0.033c-0.003,0.001-0.006,0.003-0.009,0.003c-0.021,0.01-0.041,0.021-0.06,0.03
		c-0.006,0.007-0.013,0.008-0.019,0.012c-0.016,0.008-0.033,0.017-0.049,0.027c-0.009,0.006-0.02,0.012-0.03,0.02
		c-0.011,0.007-0.023,0.016-0.035,0.022c-0.015,0.011-0.029,0.021-0.044,0.028c-0.007,0.008-0.013,0.012-0.021,0.016
		c-0.019,0.015-0.038,0.03-0.058,0.046c-0.001,0.001-0.003,0.001-0.005,0.005c-0.087,0.068-0.167,0.15-0.241,0.238
		c0,0.002-0.001,0.002-0.001,0.002c-0.014,0.018-0.025,0.031-0.038,0.048c-0.005,0.008-0.012,0.016-0.018,0.024
		c-0.005,0.009-0.013,0.017-0.02,0.026c-0.01,0.016-0.021,0.03-0.029,0.046c-0.005,0.007-0.006,0.009-0.008,0.013
		c-0.014,0.02-0.026,0.043-0.039,0.064h0l-2.104,3.645h-2.847c-0.463,0-0.84,0.376-0.84,0.839c0,0.464,0.376,0.84,0.84,0.84h3.364
		l0,0c0.29,0,0.572-0.15,0.728-0.418l1.464-2.538l2.463,2.463l-2.553,1.481c-0.462,0.267-0.714,0.756-0.701,1.255h-0.001v5.608
		c0,0.615,0.502,1.119,1.122,1.119c0.619,0,1.121-0.504,1.121-1.119v-4.518l3.896-2.259C40.257,23.29,40.483,23.155,40.672,22.964z
		 M70,35C70,54.33,54.33,70.001,35,70.001C15.67,70.001,0,54.33,0,35S15.67,0,35,0C54.33,0,70,15.67,70,35z M27.432,23.979
		c-2.941,0-5.325,2.385-5.325,5.326c0,2.94,2.384,5.324,5.325,5.324c2.941,0,5.327-2.384,5.327-5.324
		C32.758,26.363,30.373,23.979,27.432,23.979z M42.567,23.979c-2.94,0-5.326,2.385-5.326,5.326c0,2.94,2.386,5.324,5.326,5.324
		c2.941,0,5.325-2.384,5.325-5.324C47.893,26.363,45.509,23.979,42.567,23.979z M32.759,12.86c-1.101,0-1.994,0.893-1.994,1.994
		c0,1.101,0.893,1.993,1.994,1.993s1.993-0.893,1.993-1.993C34.752,13.753,33.86,12.86,32.759,12.86z"/>
	<g>
		<rect x="8.5" y="38.754" fill="none" width="53" height="17.817"/>
		<text transform="matrix(1 0 0 1 16.8735 45.252)"><tspan x="0" y="0" fill="#F1F2F2" font-family="'TradeGothic-Roman'" font-size="9">Outdoor /</tspan><tspan x="5.63" y="8" fill="#F1F2F2" font-family="'TradeGothic-Roman'" font-size="9">Sports</tspan></text>
	</g>
	<circle fill="#2B7B3D" cx="27.432" cy="29.305" r="3.925"/>
	<circle fill="#2B7B3D" cx="42.567" cy="29.305" r="3.925"/>
</g>
</svg>
