<?xml version="1.0" encoding="utf-8"?>
<!-- Generator: Adobe Illustrator 16.0.0, SVG Export Plug-In . SVG Version: 6.00 Build 0)  -->
<!DOCTYPE svg PUBLIC "-//W3C//DTD SVG 1.1//EN" "http://www.w3.org/Graphics/SVG/1.1/DTD/svg11.dtd">
<svg version="1.1" xmlns="http://www.w3.org/2000/svg" xmlns:xlink="http://www.w3.org/1999/xlink" x="0px" y="0px" width="70px"
	 height="70.001px" viewBox="0 0 70 70.001" enable-background="new 0 0 70 70.001" xml:space="preserve">
<g id="Layer_1">
</g>
<g id="Layer_7" display="none">
</g>
<g id="water">
</g>
<g id="water_1_">
	<g>
		<defs>
			<rect id="SVGID_1_" x="499.777" y="-1057.298" width="2006.02" height="1864.493"/>
		</defs>
		<clipPath id="SVGID_2_">
			<use xlink:href="#SVGID_1_"  overflow="visible"/>
		</clipPath>
		<g opacity="0.6" clip-path="url(#SVGID_2_)">
			<g>
				<line fill="none" stroke="#808285" x1="62.268" y1="803.562" x2="1624.106" y2="-1057.298"/>
			</g>
			<g>
				<line fill="none" stroke="#808285" x1="52.268" y1="803.562" x2="1614.106" y2="-1057.298"/>
			</g>
			<g>
				<line fill="none" stroke="#808285" x1="42.268" y1="803.562" x2="1604.106" y2="-1057.298"/>
			</g>
			<g>
				<line fill="none" stroke="#808285" x1="32.268" y1="803.562" x2="1594.106" y2="-1057.298"/>
			</g>
			<g>
				<line fill="none" stroke="#808285" x1="22.268" y1="803.562" x2="1584.106" y2="-1057.298"/>
			</g>
			<g>
				<line fill="none" stroke="#808285" x1="12.268" y1="803.562" x2="1574.106" y2="-1057.298"/>
			</g>
			<g>
				<line fill="none" stroke="#808285" x1="2.268" y1="803.562" x2="1564.106" y2="-1057.298"/>
			</g>
			<g>
				<line fill="none" stroke="#808285" x1="-7.732" y1="803.562" x2="1554.106" y2="-1057.298"/>
			</g>
			<g>
				<line fill="none" stroke="#808285" x1="-17.732" y1="803.562" x2="1544.106" y2="-1057.298"/>
			</g>
			<g>
				<line fill="none" stroke="#808285" x1="-27.732" y1="803.562" x2="1534.106" y2="-1057.298"/>
			</g>
			<g>
				<line fill="none" stroke="#808285" x1="-37.732" y1="803.562" x2="1524.106" y2="-1057.298"/>
			</g>
			<g>
				<line fill="none" stroke="#808285" x1="-47.732" y1="803.562" x2="1514.106" y2="-1057.298"/>
			</g>
			<g>
				<line fill="none" stroke="#808285" x1="-57.732" y1="803.562" x2="1504.106" y2="-1057.298"/>
			</g>
			<g>
				<line fill="none" stroke="#808285" x1="-67.732" y1="803.562" x2="1494.106" y2="-1057.298"/>
			</g>
			<g>
				<line fill="none" stroke="#808285" x1="-77.732" y1="803.562" x2="1484.106" y2="-1057.298"/>
			</g>
			<g>
				<line fill="none" stroke="#808285" x1="-87.732" y1="803.562" x2="1474.106" y2="-1057.298"/>
			</g>
			<g>
				<line fill="none" stroke="#808285" x1="-97.732" y1="803.562" x2="1464.106" y2="-1057.298"/>
			</g>
			<g>
				<line fill="none" stroke="#808285" x1="-107.732" y1="803.562" x2="1454.106" y2="-1057.298"/>
			</g>
			<g>
				<line fill="none" stroke="#808285" x1="-117.732" y1="803.562" x2="1444.106" y2="-1057.298"/>
			</g>
			<g>
				<line fill="none" stroke="#808285" x1="-127.732" y1="803.562" x2="1434.106" y2="-1057.298"/>
			</g>
			<g>
				<line fill="none" stroke="#808285" x1="-137.732" y1="803.562" x2="1424.106" y2="-1057.298"/>
			</g>
			<g>
				<line fill="none" stroke="#808285" x1="-147.732" y1="803.562" x2="1414.106" y2="-1057.298"/>
			</g>
			<g>
				<line fill="none" stroke="#808285" x1="-157.732" y1="803.562" x2="1404.106" y2="-1057.298"/>
			</g>
			<g>
				<line fill="none" stroke="#808285" x1="-167.732" y1="803.562" x2="1394.106" y2="-1057.298"/>
			</g>
			<g>
				<line fill="none" stroke="#808285" x1="-177.732" y1="803.562" x2="1384.106" y2="-1057.298"/>
			</g>
			<g>
				<line fill="none" stroke="#808285" x1="-187.732" y1="803.562" x2="1374.106" y2="-1057.298"/>
			</g>
			<g>
				<line fill="none" stroke="#808285" x1="-197.732" y1="803.562" x2="1364.106" y2="-1057.298"/>
			</g>
			<g>
				<line fill="none" stroke="#808285" x1="-207.732" y1="803.562" x2="1354.106" y2="-1057.298"/>
			</g>
			<g>
				<line fill="none" stroke="#808285" x1="-217.732" y1="803.562" x2="1344.106" y2="-1057.298"/>
			</g>
			<g>
				<line fill="none" stroke="#808285" x1="-227.732" y1="803.562" x2="1334.106" y2="-1057.298"/>
			</g>
			<g>
				<line fill="none" stroke="#808285" x1="-237.732" y1="803.562" x2="1324.106" y2="-1057.298"/>
			</g>
			<g>
				<line fill="none" stroke="#808285" x1="-247.732" y1="803.562" x2="1314.106" y2="-1057.298"/>
			</g>
			<g>
				<line fill="none" stroke="#808285" x1="-257.732" y1="803.562" x2="1304.106" y2="-1057.298"/>
			</g>
			<g>
				<line fill="none" stroke="#808285" x1="-267.732" y1="803.562" x2="1294.106" y2="-1057.298"/>
			</g>
			<g>
				<line fill="none" stroke="#808285" x1="-277.732" y1="803.562" x2="1284.106" y2="-1057.298"/>
			</g>
			<g>
				<line fill="none" stroke="#808285" x1="-287.732" y1="803.562" x2="1274.106" y2="-1057.298"/>
			</g>
			<g>
				<line fill="none" stroke="#808285" x1="-297.732" y1="803.562" x2="1264.106" y2="-1057.298"/>
			</g>
			<g>
				<line fill="none" stroke="#808285" x1="-307.732" y1="803.562" x2="1254.106" y2="-1057.298"/>
			</g>
			<g>
				<line fill="none" stroke="#808285" x1="-317.732" y1="803.562" x2="1244.106" y2="-1057.298"/>
			</g>
			<g>
				<line fill="none" stroke="#808285" x1="-327.732" y1="803.562" x2="1234.106" y2="-1057.298"/>
			</g>
			<g>
				<line fill="none" stroke="#808285" x1="-337.732" y1="803.562" x2="1224.106" y2="-1057.298"/>
			</g>
			<g>
				<line fill="none" stroke="#808285" x1="-347.732" y1="803.562" x2="1214.106" y2="-1057.298"/>
			</g>
			<g>
				<line fill="none" stroke="#808285" x1="-357.732" y1="803.562" x2="1204.106" y2="-1057.298"/>
			</g>
			<g>
				<line fill="none" stroke="#808285" x1="-367.732" y1="803.562" x2="1194.106" y2="-1057.298"/>
			</g>
			<g>
				<line fill="none" stroke="#808285" x1="-377.732" y1="803.562" x2="1184.106" y2="-1057.298"/>
			</g>
			<g>
				<line fill="none" stroke="#808285" x1="-387.732" y1="803.562" x2="1174.106" y2="-1057.298"/>
			</g>
			<g>
				<line fill="none" stroke="#808285" x1="-397.732" y1="803.562" x2="1164.106" y2="-1057.298"/>
			</g>
			<g>
				<line fill="none" stroke="#808285" x1="-407.732" y1="803.562" x2="1154.106" y2="-1057.298"/>
			</g>
			<g>
				<line fill="none" stroke="#808285" x1="-417.732" y1="803.562" x2="1144.106" y2="-1057.298"/>
			</g>
			<g>
				<line fill="none" stroke="#808285" x1="-427.732" y1="803.562" x2="1134.106" y2="-1057.298"/>
			</g>
			<g>
				<line fill="none" stroke="#808285" x1="-437.732" y1="803.562" x2="1124.106" y2="-1057.298"/>
			</g>
			<g>
				<line fill="none" stroke="#808285" x1="-447.732" y1="803.562" x2="1114.106" y2="-1057.298"/>
			</g>
			<g>
				<line fill="none" stroke="#808285" x1="-457.732" y1="803.562" x2="1104.106" y2="-1057.298"/>
			</g>
			<g>
				<line fill="none" stroke="#808285" x1="-467.732" y1="803.562" x2="1094.106" y2="-1057.298"/>
			</g>
			<g>
				<line fill="none" stroke="#808285" x1="-477.732" y1="803.562" x2="1084.106" y2="-1057.298"/>
			</g>
			<g>
				<line fill="none" stroke="#808285" x1="-487.732" y1="803.562" x2="1074.106" y2="-1057.298"/>
			</g>
			<g>
				<line fill="none" stroke="#808285" x1="-497.732" y1="803.562" x2="1064.106" y2="-1057.298"/>
			</g>
			<g>
				<line fill="none" stroke="#808285" x1="-507.732" y1="803.562" x2="1054.106" y2="-1057.298"/>
			</g>
			<g>
				<line fill="none" stroke="#808285" x1="-517.732" y1="803.562" x2="1044.106" y2="-1057.298"/>
			</g>
			<g>
				<line fill="none" stroke="#808285" x1="-527.732" y1="803.562" x2="1034.106" y2="-1057.298"/>
			</g>
			<g>
				<line fill="none" stroke="#808285" x1="-537.732" y1="803.562" x2="1024.106" y2="-1057.298"/>
			</g>
			<g>
				<line fill="none" stroke="#808285" x1="-547.732" y1="803.562" x2="1014.106" y2="-1057.298"/>
			</g>
			<g>
				<line fill="none" stroke="#808285" x1="-557.732" y1="803.562" x2="1004.106" y2="-1057.298"/>
			</g>
			<g>
				<line fill="none" stroke="#808285" x1="-567.732" y1="803.562" x2="994.106" y2="-1057.298"/>
			</g>
			<g>
				<line fill="none" stroke="#808285" x1="-577.732" y1="803.562" x2="984.106" y2="-1057.298"/>
			</g>
			<g>
				<line fill="none" stroke="#808285" x1="-587.732" y1="803.562" x2="974.106" y2="-1057.298"/>
			</g>
			<g>
				<line fill="none" stroke="#808285" x1="-597.732" y1="803.562" x2="964.106" y2="-1057.298"/>
			</g>
			<g>
				<line fill="none" stroke="#808285" x1="-607.732" y1="803.562" x2="954.106" y2="-1057.298"/>
			</g>
			<g>
				<line fill="none" stroke="#808285" x1="-617.732" y1="803.562" x2="944.106" y2="-1057.298"/>
			</g>
			<g>
				<line fill="none" stroke="#808285" x1="-627.732" y1="803.562" x2="934.106" y2="-1057.298"/>
			</g>
			<g>
				<line fill="none" stroke="#808285" x1="-637.732" y1="803.562" x2="924.106" y2="-1057.298"/>
			</g>
			<g>
				<line fill="none" stroke="#808285" x1="-647.732" y1="803.562" x2="914.106" y2="-1057.298"/>
			</g>
			<g>
				<line fill="none" stroke="#808285" x1="-657.732" y1="803.562" x2="904.106" y2="-1057.298"/>
			</g>
			<g>
				<line fill="none" stroke="#808285" x1="-667.732" y1="803.562" x2="894.106" y2="-1057.298"/>
			</g>
			<g>
				<line fill="none" stroke="#808285" x1="-677.732" y1="803.562" x2="884.106" y2="-1057.298"/>
			</g>
			<g>
				<line fill="none" stroke="#808285" x1="-687.732" y1="803.562" x2="874.106" y2="-1057.298"/>
			</g>
			<g>
				<line fill="none" stroke="#808285" x1="-697.732" y1="803.562" x2="864.106" y2="-1057.298"/>
			</g>
			<g>
				<line fill="none" stroke="#808285" x1="-707.732" y1="803.562" x2="854.106" y2="-1057.298"/>
			</g>
			<g>
				<line fill="none" stroke="#808285" x1="-717.732" y1="803.562" x2="844.106" y2="-1057.298"/>
			</g>
			<g>
				<line fill="none" stroke="#808285" x1="-727.732" y1="803.562" x2="834.106" y2="-1057.298"/>
			</g>
			<g>
				<line fill="none" stroke="#808285" x1="-737.732" y1="803.562" x2="824.106" y2="-1057.298"/>
			</g>
			<g>
				<line fill="none" stroke="#808285" x1="-747.732" y1="803.562" x2="814.106" y2="-1057.298"/>
			</g>
			<g>
				<line fill="none" stroke="#808285" x1="-757.732" y1="803.562" x2="804.106" y2="-1057.298"/>
			</g>
			<g>
				<line fill="none" stroke="#808285" x1="-767.732" y1="803.562" x2="794.106" y2="-1057.298"/>
			</g>
			<g>
				<line fill="none" stroke="#808285" x1="-777.732" y1="803.562" x2="784.106" y2="-1057.298"/>
			</g>
			<g>
				<line fill="none" stroke="#808285" x1="-787.732" y1="803.562" x2="774.106" y2="-1057.298"/>
			</g>
			<g>
				<line fill="none" stroke="#808285" x1="-797.732" y1="803.562" x2="764.106" y2="-1057.298"/>
			</g>
			<g>
				<line fill="none" stroke="#808285" x1="-807.732" y1="803.562" x2="754.106" y2="-1057.298"/>
			</g>
			<g>
				<line fill="none" stroke="#808285" x1="-817.732" y1="803.562" x2="744.106" y2="-1057.298"/>
			</g>
			<g>
				<line fill="none" stroke="#808285" x1="-827.732" y1="803.562" x2="734.106" y2="-1057.298"/>
			</g>
			<g>
				<line fill="none" stroke="#808285" x1="-837.732" y1="803.562" x2="724.106" y2="-1057.298"/>
			</g>
			<g>
				<line fill="none" stroke="#808285" x1="-847.732" y1="803.562" x2="714.106" y2="-1057.298"/>
			</g>
			<g>
				<line fill="none" stroke="#808285" x1="-857.732" y1="803.562" x2="704.106" y2="-1057.298"/>
			</g>
			<g>
				<line fill="none" stroke="#808285" x1="-867.732" y1="803.562" x2="694.106" y2="-1057.298"/>
			</g>
			<g>
				<line fill="none" stroke="#808285" x1="-877.732" y1="803.562" x2="684.106" y2="-1057.298"/>
			</g>
			<g>
				<line fill="none" stroke="#808285" x1="-887.732" y1="803.562" x2="674.106" y2="-1057.298"/>
			</g>
			<g>
				<line fill="none" stroke="#808285" x1="-897.732" y1="803.562" x2="664.106" y2="-1057.298"/>
			</g>
			<g>
				<line fill="none" stroke="#808285" x1="-907.732" y1="803.562" x2="654.106" y2="-1057.298"/>
			</g>
			<g>
				<line fill="none" stroke="#808285" x1="-917.732" y1="803.562" x2="644.106" y2="-1057.298"/>
			</g>
			<g>
				<line fill="none" stroke="#808285" x1="-927.732" y1="803.562" x2="634.106" y2="-1057.298"/>
			</g>
			<g>
				<line fill="none" stroke="#808285" x1="-937.732" y1="803.562" x2="624.106" y2="-1057.298"/>
			</g>
			<g>
				<line fill="none" stroke="#808285" x1="-947.732" y1="803.562" x2="614.106" y2="-1057.298"/>
			</g>
			<g>
				<line fill="none" stroke="#808285" x1="-957.732" y1="803.562" x2="604.106" y2="-1057.298"/>
			</g>
			<g>
				<line fill="none" stroke="#808285" x1="-967.732" y1="803.562" x2="594.106" y2="-1057.298"/>
			</g>
			<g>
				<line fill="none" stroke="#808285" x1="-977.732" y1="803.562" x2="584.106" y2="-1057.298"/>
			</g>
			<g>
				<line fill="none" stroke="#808285" x1="-987.732" y1="803.562" x2="574.106" y2="-1057.298"/>
			</g>
			<g>
				<line fill="none" stroke="#808285" x1="-997.732" y1="803.562" x2="564.106" y2="-1057.298"/>
			</g>
			<g>
				<line fill="none" stroke="#808285" x1="-1007.732" y1="803.562" x2="554.106" y2="-1057.298"/>
			</g>
			<g>
				<line fill="none" stroke="#808285" x1="-1017.732" y1="803.562" x2="544.106" y2="-1057.298"/>
			</g>
			<g>
				<line fill="none" stroke="#808285" x1="-1027.732" y1="803.562" x2="534.106" y2="-1057.298"/>
			</g>
			<g>
				<line fill="none" stroke="#808285" x1="-1037.732" y1="803.562" x2="524.106" y2="-1057.298"/>
			</g>
			<g>
				<line fill="none" stroke="#808285" x1="-1047.732" y1="803.562" x2="514.106" y2="-1057.298"/>
			</g>
			<g>
				<line fill="none" stroke="#808285" x1="-1057.732" y1="803.562" x2="504.106" y2="-1057.298"/>
			</g>
			<g>
				<line fill="none" stroke="#808285" x1="-1067.732" y1="803.562" x2="494.106" y2="-1057.298"/>
			</g>
		</g>
	</g>
</g>
<g id="map">
</g>
<g id="building" display="none">
</g>
<g id="Layer_2">
</g>
<g id="Layer_6">
	<path fill="#84CCF1" d="M70,35C70,54.33,54.33,70.001,35,70.001C15.67,70.001,0,54.33,0,35S15.67,0,35,0C54.33,0,70,15.67,70,35z
		 M33.095,14.576l-12.898,5.403l5.1,0.968c-0.775,1.76-1.151,4.757-0.665,7.075c0.239,1.138,2.455,0.935,2.401,0.734
		c-0.751-2.861-0.732-5.408,0.135-7.454l12.294,2.334l10.34-6.943L33.095,14.576z M39.624,24.065l-10.312-2.021
		c0,0-0.626,2.207-0.451,2.742c0.493,1.508,1.532,2.336,3.528,3.611c1.609,1.028,4.531,2.412,7.38,1.562
		c2.849-0.849,4.263-2.871,4.46-3.624c0.291-1.104-1.211-4.635-1.211-4.635L39.624,24.065z"/>
	<g>
		<rect x="8.5" y="38.754" fill="none" width="53" height="17.817"/>
		<text transform="matrix(1 0 0 1 18.1245 45.252)"><tspan x="0" y="0" fill="#F1F2F2" font-family="'TradeGothic-Roman'" font-size="9">College /</tspan><tspan x="-7.627" y="8" fill="#F1F2F2" font-family="'TradeGothic-Roman'" font-size="9">Organization</tspan></text>
	</g>
	<path fill="#84CCF1" d="M34.66,18.086c-0.008-0.244,0.446-0.541,1.016-0.561c0.569-0.021,1.04,0.243,1.048,0.488
		C36.732,18.257,34.669,18.331,34.66,18.086z"/>
</g>
</svg>
