<?xml version="1.0" encoding="utf-8"?>
<!-- Generator: Adobe Illustrator 16.0.0, SVG Export Plug-In . SVG Version: 6.00 Build 0)  -->
<!DOCTYPE svg PUBLIC "-//W3C//DTD SVG 1.1//EN" "http://www.w3.org/Graphics/SVG/1.1/DTD/svg11.dtd">
<svg version="1.1" xmlns="http://www.w3.org/2000/svg" xmlns:xlink="http://www.w3.org/1999/xlink" x="0px" y="0px" width="70px"
	 height="70.001px" viewBox="0 0 70 70.001" enable-background="new 0 0 70 70.001" xml:space="preserve">
<g id="Layer_1">
</g>
<g id="Layer_7" display="none">
</g>
<g id="water">
</g>
<g id="water_1_">
	<g>
		<defs>
			<rect id="SVGID_1_" x="574.542" y="-1057.298" width="2006.02" height="1864.493"/>
		</defs>
		<clipPath id="SVGID_2_">
			<use xlink:href="#SVGID_1_"  overflow="visible"/>
		</clipPath>
		<g opacity="0.6" clip-path="url(#SVGID_2_)">
			<g>
				<line fill="none" stroke="#808285" x1="67.033" y1="803.562" x2="1628.872" y2="-1057.298"/>
			</g>
			<g>
				<line fill="none" stroke="#808285" x1="57.033" y1="803.562" x2="1618.872" y2="-1057.298"/>
			</g>
			<g>
				<line fill="none" stroke="#808285" x1="47.033" y1="803.562" x2="1608.872" y2="-1057.298"/>
			</g>
			<g>
				<line fill="none" stroke="#808285" x1="37.033" y1="803.562" x2="1598.872" y2="-1057.298"/>
			</g>
			<g>
				<line fill="none" stroke="#808285" x1="27.033" y1="803.562" x2="1588.872" y2="-1057.298"/>
			</g>
			<g>
				<line fill="none" stroke="#808285" x1="17.033" y1="803.562" x2="1578.872" y2="-1057.298"/>
			</g>
			<g>
				<line fill="none" stroke="#808285" x1="7.033" y1="803.562" x2="1568.872" y2="-1057.298"/>
			</g>
			<g>
				<line fill="none" stroke="#808285" x1="-2.967" y1="803.562" x2="1558.872" y2="-1057.298"/>
			</g>
			<g>
				<line fill="none" stroke="#808285" x1="-12.967" y1="803.562" x2="1548.872" y2="-1057.298"/>
			</g>
			<g>
				<line fill="none" stroke="#808285" x1="-22.967" y1="803.562" x2="1538.872" y2="-1057.298"/>
			</g>
			<g>
				<line fill="none" stroke="#808285" x1="-32.967" y1="803.562" x2="1528.872" y2="-1057.298"/>
			</g>
			<g>
				<line fill="none" stroke="#808285" x1="-42.967" y1="803.562" x2="1518.872" y2="-1057.298"/>
			</g>
			<g>
				<line fill="none" stroke="#808285" x1="-52.967" y1="803.562" x2="1508.872" y2="-1057.298"/>
			</g>
			<g>
				<line fill="none" stroke="#808285" x1="-62.967" y1="803.562" x2="1498.872" y2="-1057.298"/>
			</g>
			<g>
				<line fill="none" stroke="#808285" x1="-72.967" y1="803.562" x2="1488.872" y2="-1057.298"/>
			</g>
			<g>
				<line fill="none" stroke="#808285" x1="-82.967" y1="803.562" x2="1478.872" y2="-1057.298"/>
			</g>
			<g>
				<line fill="none" stroke="#808285" x1="-92.967" y1="803.562" x2="1468.872" y2="-1057.298"/>
			</g>
			<g>
				<line fill="none" stroke="#808285" x1="-102.967" y1="803.562" x2="1458.872" y2="-1057.298"/>
			</g>
			<g>
				<line fill="none" stroke="#808285" x1="-112.967" y1="803.562" x2="1448.872" y2="-1057.298"/>
			</g>
			<g>
				<line fill="none" stroke="#808285" x1="-122.967" y1="803.562" x2="1438.872" y2="-1057.298"/>
			</g>
			<g>
				<line fill="none" stroke="#808285" x1="-132.967" y1="803.562" x2="1428.872" y2="-1057.298"/>
			</g>
			<g>
				<line fill="none" stroke="#808285" x1="-142.967" y1="803.562" x2="1418.872" y2="-1057.298"/>
			</g>
			<g>
				<line fill="none" stroke="#808285" x1="-152.967" y1="803.562" x2="1408.872" y2="-1057.298"/>
			</g>
			<g>
				<line fill="none" stroke="#808285" x1="-162.967" y1="803.562" x2="1398.872" y2="-1057.298"/>
			</g>
			<g>
				<line fill="none" stroke="#808285" x1="-172.967" y1="803.562" x2="1388.872" y2="-1057.298"/>
			</g>
			<g>
				<line fill="none" stroke="#808285" x1="-182.967" y1="803.562" x2="1378.872" y2="-1057.298"/>
			</g>
			<g>
				<line fill="none" stroke="#808285" x1="-192.967" y1="803.562" x2="1368.872" y2="-1057.298"/>
			</g>
			<g>
				<line fill="none" stroke="#808285" x1="-202.967" y1="803.562" x2="1358.872" y2="-1057.298"/>
			</g>
			<g>
				<line fill="none" stroke="#808285" x1="-212.967" y1="803.562" x2="1348.872" y2="-1057.298"/>
			</g>
			<g>
				<line fill="none" stroke="#808285" x1="-222.967" y1="803.562" x2="1338.872" y2="-1057.298"/>
			</g>
			<g>
				<line fill="none" stroke="#808285" x1="-232.967" y1="803.562" x2="1328.872" y2="-1057.298"/>
			</g>
			<g>
				<line fill="none" stroke="#808285" x1="-242.967" y1="803.562" x2="1318.872" y2="-1057.298"/>
			</g>
			<g>
				<line fill="none" stroke="#808285" x1="-252.967" y1="803.562" x2="1308.872" y2="-1057.298"/>
			</g>
			<g>
				<line fill="none" stroke="#808285" x1="-262.967" y1="803.562" x2="1298.872" y2="-1057.298"/>
			</g>
			<g>
				<line fill="none" stroke="#808285" x1="-272.967" y1="803.562" x2="1288.872" y2="-1057.298"/>
			</g>
			<g>
				<line fill="none" stroke="#808285" x1="-282.967" y1="803.562" x2="1278.872" y2="-1057.298"/>
			</g>
			<g>
				<line fill="none" stroke="#808285" x1="-292.967" y1="803.562" x2="1268.872" y2="-1057.298"/>
			</g>
			<g>
				<line fill="none" stroke="#808285" x1="-302.967" y1="803.562" x2="1258.872" y2="-1057.298"/>
			</g>
			<g>
				<line fill="none" stroke="#808285" x1="-312.967" y1="803.562" x2="1248.872" y2="-1057.298"/>
			</g>
			<g>
				<line fill="none" stroke="#808285" x1="-322.967" y1="803.562" x2="1238.872" y2="-1057.298"/>
			</g>
			<g>
				<line fill="none" stroke="#808285" x1="-332.967" y1="803.562" x2="1228.872" y2="-1057.298"/>
			</g>
			<g>
				<line fill="none" stroke="#808285" x1="-342.967" y1="803.562" x2="1218.872" y2="-1057.298"/>
			</g>
			<g>
				<line fill="none" stroke="#808285" x1="-352.967" y1="803.562" x2="1208.872" y2="-1057.298"/>
			</g>
			<g>
				<line fill="none" stroke="#808285" x1="-362.967" y1="803.562" x2="1198.872" y2="-1057.298"/>
			</g>
			<g>
				<line fill="none" stroke="#808285" x1="-372.967" y1="803.562" x2="1188.872" y2="-1057.298"/>
			</g>
			<g>
				<line fill="none" stroke="#808285" x1="-382.967" y1="803.562" x2="1178.872" y2="-1057.298"/>
			</g>
			<g>
				<line fill="none" stroke="#808285" x1="-392.967" y1="803.562" x2="1168.872" y2="-1057.298"/>
			</g>
			<g>
				<line fill="none" stroke="#808285" x1="-402.967" y1="803.562" x2="1158.872" y2="-1057.298"/>
			</g>
			<g>
				<line fill="none" stroke="#808285" x1="-412.967" y1="803.562" x2="1148.872" y2="-1057.298"/>
			</g>
			<g>
				<line fill="none" stroke="#808285" x1="-422.967" y1="803.562" x2="1138.872" y2="-1057.298"/>
			</g>
			<g>
				<line fill="none" stroke="#808285" x1="-432.967" y1="803.562" x2="1128.872" y2="-1057.298"/>
			</g>
			<g>
				<line fill="none" stroke="#808285" x1="-442.967" y1="803.562" x2="1118.872" y2="-1057.298"/>
			</g>
			<g>
				<line fill="none" stroke="#808285" x1="-452.967" y1="803.562" x2="1108.872" y2="-1057.298"/>
			</g>
			<g>
				<line fill="none" stroke="#808285" x1="-462.967" y1="803.562" x2="1098.872" y2="-1057.298"/>
			</g>
			<g>
				<line fill="none" stroke="#808285" x1="-472.967" y1="803.562" x2="1088.872" y2="-1057.298"/>
			</g>
			<g>
				<line fill="none" stroke="#808285" x1="-482.967" y1="803.562" x2="1078.872" y2="-1057.298"/>
			</g>
			<g>
				<line fill="none" stroke="#808285" x1="-492.967" y1="803.562" x2="1068.872" y2="-1057.298"/>
			</g>
			<g>
				<line fill="none" stroke="#808285" x1="-502.967" y1="803.562" x2="1058.872" y2="-1057.298"/>
			</g>
			<g>
				<line fill="none" stroke="#808285" x1="-512.967" y1="803.562" x2="1048.872" y2="-1057.298"/>
			</g>
			<g>
				<line fill="none" stroke="#808285" x1="-522.967" y1="803.562" x2="1038.872" y2="-1057.298"/>
			</g>
			<g>
				<line fill="none" stroke="#808285" x1="-532.967" y1="803.562" x2="1028.872" y2="-1057.298"/>
			</g>
			<g>
				<line fill="none" stroke="#808285" x1="-542.967" y1="803.562" x2="1018.872" y2="-1057.298"/>
			</g>
			<g>
				<line fill="none" stroke="#808285" x1="-552.967" y1="803.562" x2="1008.872" y2="-1057.298"/>
			</g>
			<g>
				<line fill="none" stroke="#808285" x1="-562.967" y1="803.562" x2="998.872" y2="-1057.298"/>
			</g>
			<g>
				<line fill="none" stroke="#808285" x1="-572.967" y1="803.562" x2="988.872" y2="-1057.298"/>
			</g>
			<g>
				<line fill="none" stroke="#808285" x1="-582.967" y1="803.562" x2="978.872" y2="-1057.298"/>
			</g>
			<g>
				<line fill="none" stroke="#808285" x1="-592.967" y1="803.562" x2="968.872" y2="-1057.298"/>
			</g>
			<g>
				<line fill="none" stroke="#808285" x1="-602.967" y1="803.562" x2="958.871" y2="-1057.298"/>
			</g>
			<g>
				<line fill="none" stroke="#808285" x1="-612.967" y1="803.562" x2="948.871" y2="-1057.298"/>
			</g>
			<g>
				<line fill="none" stroke="#808285" x1="-622.967" y1="803.562" x2="938.871" y2="-1057.298"/>
			</g>
			<g>
				<line fill="none" stroke="#808285" x1="-632.967" y1="803.562" x2="928.871" y2="-1057.298"/>
			</g>
			<g>
				<line fill="none" stroke="#808285" x1="-642.967" y1="803.562" x2="918.871" y2="-1057.298"/>
			</g>
			<g>
				<line fill="none" stroke="#808285" x1="-652.967" y1="803.562" x2="908.871" y2="-1057.298"/>
			</g>
			<g>
				<line fill="none" stroke="#808285" x1="-662.967" y1="803.562" x2="898.871" y2="-1057.298"/>
			</g>
			<g>
				<line fill="none" stroke="#808285" x1="-672.967" y1="803.562" x2="888.871" y2="-1057.298"/>
			</g>
			<g>
				<line fill="none" stroke="#808285" x1="-682.967" y1="803.562" x2="878.871" y2="-1057.298"/>
			</g>
			<g>
				<line fill="none" stroke="#808285" x1="-692.967" y1="803.562" x2="868.871" y2="-1057.298"/>
			</g>
			<g>
				<line fill="none" stroke="#808285" x1="-702.967" y1="803.562" x2="858.871" y2="-1057.298"/>
			</g>
			<g>
				<line fill="none" stroke="#808285" x1="-712.967" y1="803.562" x2="848.871" y2="-1057.298"/>
			</g>
			<g>
				<line fill="none" stroke="#808285" x1="-722.967" y1="803.562" x2="838.871" y2="-1057.298"/>
			</g>
			<g>
				<line fill="none" stroke="#808285" x1="-732.967" y1="803.562" x2="828.871" y2="-1057.298"/>
			</g>
			<g>
				<line fill="none" stroke="#808285" x1="-742.967" y1="803.562" x2="818.871" y2="-1057.298"/>
			</g>
			<g>
				<line fill="none" stroke="#808285" x1="-752.967" y1="803.562" x2="808.871" y2="-1057.298"/>
			</g>
			<g>
				<line fill="none" stroke="#808285" x1="-762.967" y1="803.562" x2="798.871" y2="-1057.298"/>
			</g>
			<g>
				<line fill="none" stroke="#808285" x1="-772.967" y1="803.562" x2="788.871" y2="-1057.298"/>
			</g>
			<g>
				<line fill="none" stroke="#808285" x1="-782.967" y1="803.562" x2="778.871" y2="-1057.298"/>
			</g>
			<g>
				<line fill="none" stroke="#808285" x1="-792.967" y1="803.562" x2="768.871" y2="-1057.298"/>
			</g>
			<g>
				<line fill="none" stroke="#808285" x1="-802.967" y1="803.562" x2="758.871" y2="-1057.298"/>
			</g>
			<g>
				<line fill="none" stroke="#808285" x1="-812.967" y1="803.562" x2="748.871" y2="-1057.298"/>
			</g>
			<g>
				<line fill="none" stroke="#808285" x1="-822.967" y1="803.562" x2="738.871" y2="-1057.298"/>
			</g>
			<g>
				<line fill="none" stroke="#808285" x1="-832.967" y1="803.562" x2="728.871" y2="-1057.298"/>
			</g>
			<g>
				<line fill="none" stroke="#808285" x1="-842.967" y1="803.562" x2="718.871" y2="-1057.298"/>
			</g>
			<g>
				<line fill="none" stroke="#808285" x1="-852.967" y1="803.562" x2="708.871" y2="-1057.298"/>
			</g>
			<g>
				<line fill="none" stroke="#808285" x1="-862.967" y1="803.562" x2="698.871" y2="-1057.298"/>
			</g>
			<g>
				<line fill="none" stroke="#808285" x1="-872.967" y1="803.562" x2="688.871" y2="-1057.298"/>
			</g>
			<g>
				<line fill="none" stroke="#808285" x1="-882.967" y1="803.562" x2="678.871" y2="-1057.298"/>
			</g>
			<g>
				<line fill="none" stroke="#808285" x1="-892.967" y1="803.562" x2="668.871" y2="-1057.298"/>
			</g>
			<g>
				<line fill="none" stroke="#808285" x1="-902.967" y1="803.562" x2="658.871" y2="-1057.298"/>
			</g>
			<g>
				<line fill="none" stroke="#808285" x1="-912.967" y1="803.562" x2="648.871" y2="-1057.298"/>
			</g>
			<g>
				<line fill="none" stroke="#808285" x1="-922.967" y1="803.562" x2="638.871" y2="-1057.298"/>
			</g>
			<g>
				<line fill="none" stroke="#808285" x1="-932.967" y1="803.562" x2="628.871" y2="-1057.298"/>
			</g>
			<g>
				<line fill="none" stroke="#808285" x1="-942.967" y1="803.562" x2="618.871" y2="-1057.298"/>
			</g>
			<g>
				<line fill="none" stroke="#808285" x1="-952.967" y1="803.562" x2="608.871" y2="-1057.298"/>
			</g>
			<g>
				<line fill="none" stroke="#808285" x1="-962.967" y1="803.562" x2="598.871" y2="-1057.298"/>
			</g>
			<g>
				<line fill="none" stroke="#808285" x1="-972.967" y1="803.562" x2="588.871" y2="-1057.298"/>
			</g>
			<g>
				<line fill="none" stroke="#808285" x1="-982.967" y1="803.562" x2="578.871" y2="-1057.298"/>
			</g>
			<g>
				<line fill="none" stroke="#808285" x1="-992.967" y1="803.562" x2="568.871" y2="-1057.298"/>
			</g>
		</g>
	</g>
</g>
<g id="map">
</g>
<g id="building" display="none">
</g>
<g id="Layer_2">
</g>
<g id="Layer_6">
	<path fill="#AA2B4E" d="M39.676,19.696v-0.731c0-1.611-0.484-2.997-1.328-3.986c-0.838-0.994-2.046-1.575-3.349-1.57
		c-1.305-0.005-2.514,0.576-3.352,1.57c-0.843,0.989-1.327,2.375-1.327,3.986v0.731h-3.078v16.062h15.512V19.696H39.676z M70,35
		c0,19.33-15.67,35.001-35,35.001C15.67,70.001,0,54.33,0,35S15.67,0,35,0C54.33,0,70,15.67,70,35z"/>
	<rect x="8.5" y="42.559" fill="none" width="53" height="8.083"/>
	<text transform="matrix(1 0 0 1 16.4917 49.0566)" fill="#F1F2F2" font-family="'TradeGothic-Roman'" font-size="9">Shopping</text>
	<path fill="#AA2B4E" d="M32.478,22.019c-0.426,0-0.772,0.347-0.772,0.775s0.346,0.774,0.772,0.774c0.429,0,0.775-0.346,0.775-0.774
		S32.907,22.019,32.478,22.019z M32.747,29.115l-2.227-5.364l1.371-2.43l2.689,0.745l2.228,5.364L32.747,29.115z"/>
	<path fill="#AA2B4E" d="M38.113,19.696h-6.227v-0.731c0.035-2.618,1.458-3.982,3.114-3.992c1.653,0.01,3.076,1.374,3.113,3.992
		V19.696z"/>
</g>
</svg>
