<?xml version="1.0" encoding="utf-8"?>
<!-- Generator: Adobe Illustrator 16.0.0, SVG Export Plug-In . SVG Version: 6.00 Build 0)  -->
<!DOCTYPE svg PUBLIC "-//W3C//DTD SVG 1.1//EN" "http://www.w3.org/Graphics/SVG/1.1/DTD/svg11.dtd">
<svg version="1.1" xmlns="http://www.w3.org/2000/svg" xmlns:xlink="http://www.w3.org/1999/xlink" x="0px" y="0px" width="70px"
	 height="70.001px" viewBox="0 0 70 70.001" enable-background="new 0 0 70 70.001" xml:space="preserve">
<g id="Layer_1">
</g>
<g id="Layer_7" display="none">
</g>
<g id="water">
</g>
<g id="water_1_">
	<g>
		<defs>
			<rect id="SVGID_1_" x="650.875" y="-1057.298" width="2006.02" height="1864.493"/>
		</defs>
		<clipPath id="SVGID_2_">
			<use xlink:href="#SVGID_1_"  overflow="visible"/>
		</clipPath>
		<g opacity="0.6" clip-path="url(#SVGID_2_)">
			<g>
				<line fill="none" stroke="#808285" x1="63.365" y1="803.562" x2="1625.204" y2="-1057.298"/>
			</g>
			<g>
				<line fill="none" stroke="#808285" x1="53.365" y1="803.562" x2="1615.204" y2="-1057.298"/>
			</g>
			<g>
				<line fill="none" stroke="#808285" x1="43.365" y1="803.562" x2="1605.204" y2="-1057.298"/>
			</g>
			<g>
				<line fill="none" stroke="#808285" x1="33.365" y1="803.562" x2="1595.204" y2="-1057.298"/>
			</g>
			<g>
				<line fill="none" stroke="#808285" x1="23.365" y1="803.562" x2="1585.204" y2="-1057.298"/>
			</g>
			<g>
				<line fill="none" stroke="#808285" x1="13.365" y1="803.562" x2="1575.204" y2="-1057.298"/>
			</g>
			<g>
				<line fill="none" stroke="#808285" x1="3.365" y1="803.562" x2="1565.204" y2="-1057.298"/>
			</g>
			<g>
				<line fill="none" stroke="#808285" x1="-6.635" y1="803.562" x2="1555.204" y2="-1057.298"/>
			</g>
			<g>
				<line fill="none" stroke="#808285" x1="-16.635" y1="803.562" x2="1545.204" y2="-1057.298"/>
			</g>
			<g>
				<line fill="none" stroke="#808285" x1="-26.635" y1="803.562" x2="1535.204" y2="-1057.298"/>
			</g>
			<g>
				<line fill="none" stroke="#808285" x1="-36.635" y1="803.562" x2="1525.204" y2="-1057.298"/>
			</g>
			<g>
				<line fill="none" stroke="#808285" x1="-46.635" y1="803.562" x2="1515.204" y2="-1057.298"/>
			</g>
			<g>
				<line fill="none" stroke="#808285" x1="-56.635" y1="803.562" x2="1505.204" y2="-1057.298"/>
			</g>
			<g>
				<line fill="none" stroke="#808285" x1="-66.635" y1="803.562" x2="1495.204" y2="-1057.298"/>
			</g>
			<g>
				<line fill="none" stroke="#808285" x1="-76.635" y1="803.562" x2="1485.204" y2="-1057.298"/>
			</g>
			<g>
				<line fill="none" stroke="#808285" x1="-86.635" y1="803.562" x2="1475.204" y2="-1057.298"/>
			</g>
			<g>
				<line fill="none" stroke="#808285" x1="-96.635" y1="803.562" x2="1465.204" y2="-1057.298"/>
			</g>
			<g>
				<line fill="none" stroke="#808285" x1="-106.635" y1="803.562" x2="1455.204" y2="-1057.298"/>
			</g>
			<g>
				<line fill="none" stroke="#808285" x1="-116.635" y1="803.562" x2="1445.204" y2="-1057.298"/>
			</g>
			<g>
				<line fill="none" stroke="#808285" x1="-126.635" y1="803.562" x2="1435.204" y2="-1057.298"/>
			</g>
			<g>
				<line fill="none" stroke="#808285" x1="-136.635" y1="803.562" x2="1425.204" y2="-1057.298"/>
			</g>
			<g>
				<line fill="none" stroke="#808285" x1="-146.635" y1="803.562" x2="1415.204" y2="-1057.298"/>
			</g>
			<g>
				<line fill="none" stroke="#808285" x1="-156.635" y1="803.562" x2="1405.204" y2="-1057.298"/>
			</g>
			<g>
				<line fill="none" stroke="#808285" x1="-166.635" y1="803.562" x2="1395.204" y2="-1057.298"/>
			</g>
			<g>
				<line fill="none" stroke="#808285" x1="-176.635" y1="803.562" x2="1385.204" y2="-1057.298"/>
			</g>
			<g>
				<line fill="none" stroke="#808285" x1="-186.635" y1="803.562" x2="1375.204" y2="-1057.298"/>
			</g>
			<g>
				<line fill="none" stroke="#808285" x1="-196.635" y1="803.562" x2="1365.204" y2="-1057.298"/>
			</g>
			<g>
				<line fill="none" stroke="#808285" x1="-206.635" y1="803.562" x2="1355.204" y2="-1057.298"/>
			</g>
			<g>
				<line fill="none" stroke="#808285" x1="-216.635" y1="803.562" x2="1345.204" y2="-1057.298"/>
			</g>
			<g>
				<line fill="none" stroke="#808285" x1="-226.635" y1="803.562" x2="1335.204" y2="-1057.298"/>
			</g>
			<g>
				<line fill="none" stroke="#808285" x1="-236.635" y1="803.562" x2="1325.204" y2="-1057.298"/>
			</g>
			<g>
				<line fill="none" stroke="#808285" x1="-246.635" y1="803.562" x2="1315.204" y2="-1057.298"/>
			</g>
			<g>
				<line fill="none" stroke="#808285" x1="-256.635" y1="803.562" x2="1305.204" y2="-1057.298"/>
			</g>
			<g>
				<line fill="none" stroke="#808285" x1="-266.635" y1="803.562" x2="1295.204" y2="-1057.298"/>
			</g>
			<g>
				<line fill="none" stroke="#808285" x1="-276.635" y1="803.562" x2="1285.204" y2="-1057.298"/>
			</g>
			<g>
				<line fill="none" stroke="#808285" x1="-286.635" y1="803.562" x2="1275.204" y2="-1057.298"/>
			</g>
			<g>
				<line fill="none" stroke="#808285" x1="-296.635" y1="803.562" x2="1265.204" y2="-1057.298"/>
			</g>
			<g>
				<line fill="none" stroke="#808285" x1="-306.635" y1="803.562" x2="1255.204" y2="-1057.298"/>
			</g>
			<g>
				<line fill="none" stroke="#808285" x1="-316.635" y1="803.562" x2="1245.204" y2="-1057.298"/>
			</g>
			<g>
				<line fill="none" stroke="#808285" x1="-326.635" y1="803.562" x2="1235.204" y2="-1057.298"/>
			</g>
			<g>
				<line fill="none" stroke="#808285" x1="-336.635" y1="803.562" x2="1225.204" y2="-1057.298"/>
			</g>
			<g>
				<line fill="none" stroke="#808285" x1="-346.635" y1="803.562" x2="1215.204" y2="-1057.298"/>
			</g>
			<g>
				<line fill="none" stroke="#808285" x1="-356.635" y1="803.562" x2="1205.204" y2="-1057.298"/>
			</g>
			<g>
				<line fill="none" stroke="#808285" x1="-366.635" y1="803.562" x2="1195.204" y2="-1057.298"/>
			</g>
			<g>
				<line fill="none" stroke="#808285" x1="-376.635" y1="803.562" x2="1185.204" y2="-1057.298"/>
			</g>
			<g>
				<line fill="none" stroke="#808285" x1="-386.635" y1="803.562" x2="1175.204" y2="-1057.298"/>
			</g>
			<g>
				<line fill="none" stroke="#808285" x1="-396.635" y1="803.562" x2="1165.204" y2="-1057.298"/>
			</g>
			<g>
				<line fill="none" stroke="#808285" x1="-406.635" y1="803.562" x2="1155.204" y2="-1057.298"/>
			</g>
			<g>
				<line fill="none" stroke="#808285" x1="-416.635" y1="803.562" x2="1145.204" y2="-1057.298"/>
			</g>
			<g>
				<line fill="none" stroke="#808285" x1="-426.635" y1="803.562" x2="1135.204" y2="-1057.298"/>
			</g>
			<g>
				<line fill="none" stroke="#808285" x1="-436.635" y1="803.562" x2="1125.204" y2="-1057.298"/>
			</g>
			<g>
				<line fill="none" stroke="#808285" x1="-446.635" y1="803.562" x2="1115.204" y2="-1057.298"/>
			</g>
			<g>
				<line fill="none" stroke="#808285" x1="-456.635" y1="803.562" x2="1105.204" y2="-1057.298"/>
			</g>
			<g>
				<line fill="none" stroke="#808285" x1="-466.635" y1="803.562" x2="1095.204" y2="-1057.298"/>
			</g>
			<g>
				<line fill="none" stroke="#808285" x1="-476.635" y1="803.562" x2="1085.204" y2="-1057.298"/>
			</g>
			<g>
				<line fill="none" stroke="#808285" x1="-486.635" y1="803.562" x2="1075.204" y2="-1057.298"/>
			</g>
			<g>
				<line fill="none" stroke="#808285" x1="-496.635" y1="803.562" x2="1065.204" y2="-1057.298"/>
			</g>
			<g>
				<line fill="none" stroke="#808285" x1="-506.635" y1="803.562" x2="1055.204" y2="-1057.298"/>
			</g>
			<g>
				<line fill="none" stroke="#808285" x1="-516.635" y1="803.562" x2="1045.204" y2="-1057.298"/>
			</g>
			<g>
				<line fill="none" stroke="#808285" x1="-526.635" y1="803.562" x2="1035.204" y2="-1057.298"/>
			</g>
			<g>
				<line fill="none" stroke="#808285" x1="-536.635" y1="803.562" x2="1025.204" y2="-1057.298"/>
			</g>
			<g>
				<line fill="none" stroke="#808285" x1="-546.635" y1="803.562" x2="1015.204" y2="-1057.298"/>
			</g>
			<g>
				<line fill="none" stroke="#808285" x1="-556.635" y1="803.562" x2="1005.204" y2="-1057.298"/>
			</g>
			<g>
				<line fill="none" stroke="#808285" x1="-566.635" y1="803.562" x2="995.204" y2="-1057.298"/>
			</g>
			<g>
				<line fill="none" stroke="#808285" x1="-576.635" y1="803.562" x2="985.204" y2="-1057.298"/>
			</g>
			<g>
				<line fill="none" stroke="#808285" x1="-586.635" y1="803.562" x2="975.204" y2="-1057.298"/>
			</g>
			<g>
				<line fill="none" stroke="#808285" x1="-596.635" y1="803.562" x2="965.204" y2="-1057.298"/>
			</g>
			<g>
				<line fill="none" stroke="#808285" x1="-606.635" y1="803.562" x2="955.204" y2="-1057.298"/>
			</g>
			<g>
				<line fill="none" stroke="#808285" x1="-616.635" y1="803.562" x2="945.204" y2="-1057.298"/>
			</g>
			<g>
				<line fill="none" stroke="#808285" x1="-626.635" y1="803.562" x2="935.204" y2="-1057.298"/>
			</g>
			<g>
				<line fill="none" stroke="#808285" x1="-636.635" y1="803.562" x2="925.204" y2="-1057.298"/>
			</g>
			<g>
				<line fill="none" stroke="#808285" x1="-646.635" y1="803.562" x2="915.204" y2="-1057.298"/>
			</g>
			<g>
				<line fill="none" stroke="#808285" x1="-656.635" y1="803.562" x2="905.204" y2="-1057.298"/>
			</g>
			<g>
				<line fill="none" stroke="#808285" x1="-666.635" y1="803.562" x2="895.204" y2="-1057.298"/>
			</g>
			<g>
				<line fill="none" stroke="#808285" x1="-676.635" y1="803.562" x2="885.204" y2="-1057.298"/>
			</g>
			<g>
				<line fill="none" stroke="#808285" x1="-686.635" y1="803.562" x2="875.204" y2="-1057.298"/>
			</g>
			<g>
				<line fill="none" stroke="#808285" x1="-696.635" y1="803.562" x2="865.204" y2="-1057.298"/>
			</g>
			<g>
				<line fill="none" stroke="#808285" x1="-706.635" y1="803.562" x2="855.204" y2="-1057.298"/>
			</g>
			<g>
				<line fill="none" stroke="#808285" x1="-716.635" y1="803.562" x2="845.204" y2="-1057.298"/>
			</g>
			<g>
				<line fill="none" stroke="#808285" x1="-726.635" y1="803.562" x2="835.204" y2="-1057.298"/>
			</g>
			<g>
				<line fill="none" stroke="#808285" x1="-736.635" y1="803.562" x2="825.204" y2="-1057.298"/>
			</g>
			<g>
				<line fill="none" stroke="#808285" x1="-746.635" y1="803.562" x2="815.204" y2="-1057.298"/>
			</g>
			<g>
				<line fill="none" stroke="#808285" x1="-756.635" y1="803.562" x2="805.204" y2="-1057.298"/>
			</g>
			<g>
				<line fill="none" stroke="#808285" x1="-766.635" y1="803.562" x2="795.204" y2="-1057.298"/>
			</g>
			<g>
				<line fill="none" stroke="#808285" x1="-776.635" y1="803.562" x2="785.204" y2="-1057.298"/>
			</g>
			<g>
				<line fill="none" stroke="#808285" x1="-786.635" y1="803.562" x2="775.204" y2="-1057.298"/>
			</g>
			<g>
				<line fill="none" stroke="#808285" x1="-796.635" y1="803.562" x2="765.204" y2="-1057.298"/>
			</g>
			<g>
				<line fill="none" stroke="#808285" x1="-806.635" y1="803.562" x2="755.204" y2="-1057.298"/>
			</g>
			<g>
				<line fill="none" stroke="#808285" x1="-816.635" y1="803.562" x2="745.204" y2="-1057.298"/>
			</g>
			<g>
				<line fill="none" stroke="#808285" x1="-826.635" y1="803.562" x2="735.204" y2="-1057.298"/>
			</g>
			<g>
				<line fill="none" stroke="#808285" x1="-836.635" y1="803.562" x2="725.204" y2="-1057.298"/>
			</g>
			<g>
				<line fill="none" stroke="#808285" x1="-846.635" y1="803.562" x2="715.204" y2="-1057.298"/>
			</g>
			<g>
				<line fill="none" stroke="#808285" x1="-856.635" y1="803.562" x2="705.204" y2="-1057.298"/>
			</g>
			<g>
				<line fill="none" stroke="#808285" x1="-866.635" y1="803.562" x2="695.204" y2="-1057.298"/>
			</g>
			<g>
				<line fill="none" stroke="#808285" x1="-876.635" y1="803.562" x2="685.204" y2="-1057.298"/>
			</g>
			<g>
				<line fill="none" stroke="#808285" x1="-886.635" y1="803.562" x2="675.204" y2="-1057.298"/>
			</g>
			<g>
				<line fill="none" stroke="#808285" x1="-896.635" y1="803.562" x2="665.204" y2="-1057.298"/>
			</g>
			<g>
				<line fill="none" stroke="#808285" x1="-906.635" y1="803.562" x2="655.204" y2="-1057.298"/>
			</g>
			<g>
				<line fill="none" stroke="#808285" x1="-916.635" y1="803.562" x2="645.204" y2="-1057.298"/>
			</g>
		</g>
	</g>
</g>
<g id="map">
</g>
<g id="building" display="none">
</g>
<g id="Layer_2">
</g>
<g id="Layer_6">
	<path fill="#E44A51" d="M35.001,15.628c-4.667,0-8.452,3.783-8.452,8.449c0,4.671,3.785,8.453,8.452,8.453
		c4.669,0,8.449-3.782,8.449-8.453C43.451,19.411,39.67,15.628,35.001,15.628z M70,35c0,19.33-15.67,35.001-35,35.001
		C15.67,70.001,0,54.33,0,35S15.67,0,35,0C54.33,0,70,15.67,70,35z M24.795,13.424c-0.295,0-0.537,0.293-0.537,0.658v4.662
		c-0.27-0.049-0.567-0.081-0.882-0.098v-4.564c0-0.365-0.242-0.658-0.535-0.658c-0.3,0-0.541,0.293-0.541,0.658v4.562
		c-0.311,0.02-0.61,0.05-0.88,0.098v-4.659c0-0.365-0.24-0.658-0.538-0.658c-0.296,0-0.538,0.293-0.538,0.658v5.042
		c0,0.04,0.003,0.08,0.011,0.124c-0.013,0.03-0.021,0.062-0.021,0.101v1.311c0,0.954,0.624,1.733,1.393,1.733h0.353v12.143
		c0,0.57,0.378,1.034,0.845,1.034c0.465,0,0.847-0.464,0.847-1.034V22.393h0.165c0.768,0,1.39-0.779,1.39-1.733v-1.311
		c0-0.022-0.006-0.046-0.009-0.07c0.009-0.049,0.018-0.102,0.018-0.154v-5.042C25.335,13.717,25.093,13.424,24.795,13.424z
		 M47.112,13.297c-0.788,0-1.428,0.785-1.428,1.751v8.481c0,0.137,0.014,0.267,0.035,0.393v10.613c0,0.57,0.38,1.034,0.847,1.034
		c0.462,0,0.843-0.464,0.843-1.034v-9.292c0.646-0.167,1.131-0.869,1.131-1.714v-8.481C48.541,14.082,47.9,13.297,47.112,13.297z"/>
	<rect x="9.561" y="42.559" fill="none" width="53" height="8.083"/>
	<text transform="matrix(1 0 0 1 10.0596 49.0566)" fill="#F1F2F2" font-family="'TradeGothic-Roman'" font-size="9">Food / Drinks</text>
	<path fill="#E44A51" d="M35.001,30.631c-3.599,0-6.52-2.922-6.52-6.516c0-3.598,2.921-6.516,6.52-6.516
		c3.594,0,6.518,2.918,6.518,6.516C41.519,27.709,38.595,30.631,35.001,30.631z"/>
</g>
</svg>
