<?xml version="1.0" encoding="utf-8"?>
<!-- Generator: Adobe Illustrator 16.0.0, SVG Export Plug-In . SVG Version: 6.00 Build 0)  -->
<!DOCTYPE svg PUBLIC "-//W3C//DTD SVG 1.1//EN" "http://www.w3.org/Graphics/SVG/1.1/DTD/svg11.dtd">
<svg version="1.1" xmlns="http://www.w3.org/2000/svg" xmlns:xlink="http://www.w3.org/1999/xlink" x="0px" y="0px" width="70px"
	 height="70.001px" viewBox="0 0 70 70.001" enable-background="new 0 0 70 70.001" xml:space="preserve">
<g id="Layer_1">
</g>
<g id="Layer_7" display="none">
</g>
<g id="water">
</g>
<g id="water_1_">
	<g>
		<defs>
			<rect id="SVGID_1_" x="727.87" y="-1057.298" width="2006.02" height="1864.493"/>
		</defs>
		<clipPath id="SVGID_2_">
			<use xlink:href="#SVGID_1_"  overflow="visible"/>
		</clipPath>
		<g opacity="0.6" clip-path="url(#SVGID_2_)">
			<g>
				<line fill="none" stroke="#808285" x1="70.36" y1="803.562" x2="1632.199" y2="-1057.298"/>
			</g>
			<g>
				<line fill="none" stroke="#808285" x1="60.36" y1="803.562" x2="1622.199" y2="-1057.298"/>
			</g>
			<g>
				<line fill="none" stroke="#808285" x1="50.36" y1="803.562" x2="1612.199" y2="-1057.298"/>
			</g>
			<g>
				<line fill="none" stroke="#808285" x1="40.36" y1="803.562" x2="1602.199" y2="-1057.298"/>
			</g>
			<g>
				<line fill="none" stroke="#808285" x1="30.36" y1="803.562" x2="1592.199" y2="-1057.298"/>
			</g>
			<g>
				<line fill="none" stroke="#808285" x1="20.36" y1="803.562" x2="1582.199" y2="-1057.298"/>
			</g>
			<g>
				<line fill="none" stroke="#808285" x1="10.36" y1="803.562" x2="1572.199" y2="-1057.298"/>
			</g>
			<g>
				<line fill="none" stroke="#808285" x1="0.36" y1="803.562" x2="1562.199" y2="-1057.298"/>
			</g>
			<g>
				<line fill="none" stroke="#808285" x1="-9.64" y1="803.562" x2="1552.199" y2="-1057.298"/>
			</g>
			<g>
				<line fill="none" stroke="#808285" x1="-19.64" y1="803.562" x2="1542.199" y2="-1057.298"/>
			</g>
			<g>
				<line fill="none" stroke="#808285" x1="-29.64" y1="803.562" x2="1532.199" y2="-1057.298"/>
			</g>
			<g>
				<line fill="none" stroke="#808285" x1="-39.64" y1="803.562" x2="1522.199" y2="-1057.298"/>
			</g>
			<g>
				<line fill="none" stroke="#808285" x1="-49.64" y1="803.562" x2="1512.199" y2="-1057.298"/>
			</g>
			<g>
				<line fill="none" stroke="#808285" x1="-59.64" y1="803.562" x2="1502.199" y2="-1057.298"/>
			</g>
			<g>
				<line fill="none" stroke="#808285" x1="-69.64" y1="803.562" x2="1492.199" y2="-1057.298"/>
			</g>
			<g>
				<line fill="none" stroke="#808285" x1="-79.64" y1="803.562" x2="1482.199" y2="-1057.298"/>
			</g>
			<g>
				<line fill="none" stroke="#808285" x1="-89.64" y1="803.562" x2="1472.199" y2="-1057.298"/>
			</g>
			<g>
				<line fill="none" stroke="#808285" x1="-99.64" y1="803.562" x2="1462.199" y2="-1057.298"/>
			</g>
			<g>
				<line fill="none" stroke="#808285" x1="-109.64" y1="803.562" x2="1452.199" y2="-1057.298"/>
			</g>
			<g>
				<line fill="none" stroke="#808285" x1="-119.64" y1="803.562" x2="1442.199" y2="-1057.298"/>
			</g>
			<g>
				<line fill="none" stroke="#808285" x1="-129.64" y1="803.562" x2="1432.199" y2="-1057.298"/>
			</g>
			<g>
				<line fill="none" stroke="#808285" x1="-139.64" y1="803.562" x2="1422.199" y2="-1057.298"/>
			</g>
			<g>
				<line fill="none" stroke="#808285" x1="-149.64" y1="803.562" x2="1412.199" y2="-1057.298"/>
			</g>
			<g>
				<line fill="none" stroke="#808285" x1="-159.64" y1="803.562" x2="1402.199" y2="-1057.298"/>
			</g>
			<g>
				<line fill="none" stroke="#808285" x1="-169.64" y1="803.562" x2="1392.199" y2="-1057.298"/>
			</g>
			<g>
				<line fill="none" stroke="#808285" x1="-179.64" y1="803.562" x2="1382.199" y2="-1057.298"/>
			</g>
			<g>
				<line fill="none" stroke="#808285" x1="-189.64" y1="803.562" x2="1372.199" y2="-1057.298"/>
			</g>
			<g>
				<line fill="none" stroke="#808285" x1="-199.64" y1="803.562" x2="1362.199" y2="-1057.298"/>
			</g>
			<g>
				<line fill="none" stroke="#808285" x1="-209.64" y1="803.562" x2="1352.199" y2="-1057.298"/>
			</g>
			<g>
				<line fill="none" stroke="#808285" x1="-219.64" y1="803.562" x2="1342.199" y2="-1057.298"/>
			</g>
			<g>
				<line fill="none" stroke="#808285" x1="-229.64" y1="803.562" x2="1332.199" y2="-1057.298"/>
			</g>
			<g>
				<line fill="none" stroke="#808285" x1="-239.64" y1="803.562" x2="1322.199" y2="-1057.298"/>
			</g>
			<g>
				<line fill="none" stroke="#808285" x1="-249.64" y1="803.562" x2="1312.199" y2="-1057.298"/>
			</g>
			<g>
				<line fill="none" stroke="#808285" x1="-259.64" y1="803.562" x2="1302.199" y2="-1057.298"/>
			</g>
			<g>
				<line fill="none" stroke="#808285" x1="-269.64" y1="803.562" x2="1292.199" y2="-1057.298"/>
			</g>
			<g>
				<line fill="none" stroke="#808285" x1="-279.64" y1="803.562" x2="1282.199" y2="-1057.298"/>
			</g>
			<g>
				<line fill="none" stroke="#808285" x1="-289.64" y1="803.562" x2="1272.199" y2="-1057.298"/>
			</g>
			<g>
				<line fill="none" stroke="#808285" x1="-299.64" y1="803.562" x2="1262.199" y2="-1057.298"/>
			</g>
			<g>
				<line fill="none" stroke="#808285" x1="-309.64" y1="803.562" x2="1252.199" y2="-1057.298"/>
			</g>
			<g>
				<line fill="none" stroke="#808285" x1="-319.64" y1="803.562" x2="1242.199" y2="-1057.298"/>
			</g>
			<g>
				<line fill="none" stroke="#808285" x1="-329.64" y1="803.562" x2="1232.199" y2="-1057.298"/>
			</g>
			<g>
				<line fill="none" stroke="#808285" x1="-339.64" y1="803.562" x2="1222.199" y2="-1057.298"/>
			</g>
			<g>
				<line fill="none" stroke="#808285" x1="-349.64" y1="803.562" x2="1212.199" y2="-1057.298"/>
			</g>
			<g>
				<line fill="none" stroke="#808285" x1="-359.64" y1="803.562" x2="1202.199" y2="-1057.298"/>
			</g>
			<g>
				<line fill="none" stroke="#808285" x1="-369.64" y1="803.562" x2="1192.199" y2="-1057.298"/>
			</g>
			<g>
				<line fill="none" stroke="#808285" x1="-379.64" y1="803.562" x2="1182.199" y2="-1057.298"/>
			</g>
			<g>
				<line fill="none" stroke="#808285" x1="-389.64" y1="803.562" x2="1172.199" y2="-1057.298"/>
			</g>
			<g>
				<line fill="none" stroke="#808285" x1="-399.64" y1="803.562" x2="1162.199" y2="-1057.298"/>
			</g>
			<g>
				<line fill="none" stroke="#808285" x1="-409.64" y1="803.562" x2="1152.199" y2="-1057.298"/>
			</g>
			<g>
				<line fill="none" stroke="#808285" x1="-419.64" y1="803.562" x2="1142.199" y2="-1057.298"/>
			</g>
			<g>
				<line fill="none" stroke="#808285" x1="-429.64" y1="803.562" x2="1132.199" y2="-1057.298"/>
			</g>
			<g>
				<line fill="none" stroke="#808285" x1="-439.64" y1="803.562" x2="1122.199" y2="-1057.298"/>
			</g>
			<g>
				<line fill="none" stroke="#808285" x1="-449.64" y1="803.562" x2="1112.198" y2="-1057.298"/>
			</g>
			<g>
				<line fill="none" stroke="#808285" x1="-459.64" y1="803.562" x2="1102.198" y2="-1057.298"/>
			</g>
			<g>
				<line fill="none" stroke="#808285" x1="-469.64" y1="803.562" x2="1092.198" y2="-1057.298"/>
			</g>
			<g>
				<line fill="none" stroke="#808285" x1="-479.64" y1="803.562" x2="1082.198" y2="-1057.298"/>
			</g>
			<g>
				<line fill="none" stroke="#808285" x1="-489.64" y1="803.562" x2="1072.198" y2="-1057.298"/>
			</g>
			<g>
				<line fill="none" stroke="#808285" x1="-499.64" y1="803.562" x2="1062.198" y2="-1057.298"/>
			</g>
			<g>
				<line fill="none" stroke="#808285" x1="-509.64" y1="803.562" x2="1052.198" y2="-1057.298"/>
			</g>
			<g>
				<line fill="none" stroke="#808285" x1="-519.64" y1="803.562" x2="1042.198" y2="-1057.298"/>
			</g>
			<g>
				<line fill="none" stroke="#808285" x1="-529.64" y1="803.562" x2="1032.198" y2="-1057.298"/>
			</g>
			<g>
				<line fill="none" stroke="#808285" x1="-539.64" y1="803.562" x2="1022.198" y2="-1057.298"/>
			</g>
			<g>
				<line fill="none" stroke="#808285" x1="-549.64" y1="803.562" x2="1012.198" y2="-1057.298"/>
			</g>
			<g>
				<line fill="none" stroke="#808285" x1="-559.64" y1="803.562" x2="1002.198" y2="-1057.298"/>
			</g>
			<g>
				<line fill="none" stroke="#808285" x1="-569.64" y1="803.562" x2="992.198" y2="-1057.298"/>
			</g>
			<g>
				<line fill="none" stroke="#808285" x1="-579.64" y1="803.562" x2="982.198" y2="-1057.298"/>
			</g>
			<g>
				<line fill="none" stroke="#808285" x1="-589.64" y1="803.562" x2="972.198" y2="-1057.298"/>
			</g>
			<g>
				<line fill="none" stroke="#808285" x1="-599.64" y1="803.562" x2="962.198" y2="-1057.298"/>
			</g>
			<g>
				<line fill="none" stroke="#808285" x1="-609.64" y1="803.562" x2="952.198" y2="-1057.298"/>
			</g>
			<g>
				<line fill="none" stroke="#808285" x1="-619.64" y1="803.562" x2="942.198" y2="-1057.298"/>
			</g>
			<g>
				<line fill="none" stroke="#808285" x1="-629.64" y1="803.562" x2="932.198" y2="-1057.298"/>
			</g>
			<g>
				<line fill="none" stroke="#808285" x1="-639.64" y1="803.562" x2="922.198" y2="-1057.298"/>
			</g>
			<g>
				<line fill="none" stroke="#808285" x1="-649.64" y1="803.562" x2="912.198" y2="-1057.298"/>
			</g>
			<g>
				<line fill="none" stroke="#808285" x1="-659.64" y1="803.562" x2="902.198" y2="-1057.298"/>
			</g>
			<g>
				<line fill="none" stroke="#808285" x1="-669.64" y1="803.562" x2="892.198" y2="-1057.298"/>
			</g>
			<g>
				<line fill="none" stroke="#808285" x1="-679.64" y1="803.562" x2="882.198" y2="-1057.298"/>
			</g>
			<g>
				<line fill="none" stroke="#808285" x1="-689.64" y1="803.562" x2="872.198" y2="-1057.298"/>
			</g>
			<g>
				<line fill="none" stroke="#808285" x1="-699.64" y1="803.562" x2="862.198" y2="-1057.298"/>
			</g>
			<g>
				<line fill="none" stroke="#808285" x1="-709.64" y1="803.562" x2="852.198" y2="-1057.298"/>
			</g>
			<g>
				<line fill="none" stroke="#808285" x1="-719.64" y1="803.562" x2="842.198" y2="-1057.298"/>
			</g>
			<g>
				<line fill="none" stroke="#808285" x1="-729.64" y1="803.562" x2="832.198" y2="-1057.298"/>
			</g>
			<g>
				<line fill="none" stroke="#808285" x1="-739.64" y1="803.562" x2="822.198" y2="-1057.298"/>
			</g>
			<g>
				<line fill="none" stroke="#808285" x1="-749.64" y1="803.562" x2="812.198" y2="-1057.298"/>
			</g>
			<g>
				<line fill="none" stroke="#808285" x1="-759.64" y1="803.562" x2="802.198" y2="-1057.298"/>
			</g>
			<g>
				<line fill="none" stroke="#808285" x1="-769.64" y1="803.562" x2="792.198" y2="-1057.298"/>
			</g>
			<g>
				<line fill="none" stroke="#808285" x1="-779.64" y1="803.562" x2="782.198" y2="-1057.298"/>
			</g>
			<g>
				<line fill="none" stroke="#808285" x1="-789.64" y1="803.562" x2="772.198" y2="-1057.298"/>
			</g>
			<g>
				<line fill="none" stroke="#808285" x1="-799.64" y1="803.562" x2="762.198" y2="-1057.298"/>
			</g>
			<g>
				<line fill="none" stroke="#808285" x1="-809.64" y1="803.562" x2="752.198" y2="-1057.298"/>
			</g>
			<g>
				<line fill="none" stroke="#808285" x1="-819.64" y1="803.562" x2="742.198" y2="-1057.298"/>
			</g>
			<g>
				<line fill="none" stroke="#808285" x1="-829.64" y1="803.562" x2="732.198" y2="-1057.298"/>
			</g>
			<g>
				<line fill="none" stroke="#808285" x1="-839.64" y1="803.562" x2="722.198" y2="-1057.298"/>
			</g>
		</g>
	</g>
</g>
<g id="map">
</g>
<g id="building" display="none">
</g>
<g id="Layer_2">
</g>
<g id="Layer_6">
	<path fill="#DF6336" d="M43.958,16.88h-2.114l2.4-2.513l-0.57-0.632l-3.001,3.145H26.815l8,8.805v7.231c0,0,0,1.886-2,1.886h-0.571
		v0.629h2.571h1.143h2.572v-0.629h-0.572c0,0-2,0-2-1.886v-7.232L43.958,16.88z M70,35C70,54.33,54.33,70.001,35,70.001
		C15.67,70.001,0,54.33,0,35S15.67,0,35,0C54.33,0,70,15.67,70,35z"/>
	<rect x="8.5" y="42.559" fill="none" width="53" height="7.721"/>
	<text transform="matrix(1 0 0 1 17.999 49.0566)" fill="#F1F2F2" font-family="'TradeGothic-Roman'" font-size="9">Nightlife</text>
	<ellipse fill="#DF6336" cx="37.102" cy="21.282" rx="1.143" ry="1.258"/>
</g>
</svg>
