<?xml version="1.0" encoding="utf-8"?>
<!-- Generator: Adobe Illustrator 16.0.0, SVG Export Plug-In . SVG Version: 6.00 Build 0)  -->
<!DOCTYPE svg PUBLIC "-//W3C//DTD SVG 1.1//EN" "http://www.w3.org/Graphics/SVG/1.1/DTD/svg11.dtd">
<svg version="1.1" xmlns="http://www.w3.org/2000/svg" xmlns:xlink="http://www.w3.org/1999/xlink" x="0px" y="0px" width="70px"
	 height="70.001px" viewBox="0 0 70 70.001" enable-background="new 0 0 70 70.001" xml:space="preserve">
<g id="Layer_1">
</g>
<g id="Layer_7" display="none">
</g>
<g id="water">
</g>
<g id="water_1_">
	<g>
		<defs>
			<rect id="SVGID_1_" x="422.259" y="-1057.298" width="2006.02" height="1864.493"/>
		</defs>
		<clipPath id="SVGID_2_">
			<use xlink:href="#SVGID_1_"  overflow="visible"/>
		</clipPath>
		<g opacity="0.6" clip-path="url(#SVGID_2_)">
			<g>
				<line fill="none" stroke="#808285" x1="64.75" y1="803.562" x2="1626.588" y2="-1057.298"/>
			</g>
			<g>
				<line fill="none" stroke="#808285" x1="54.75" y1="803.562" x2="1616.588" y2="-1057.298"/>
			</g>
			<g>
				<line fill="none" stroke="#808285" x1="44.75" y1="803.562" x2="1606.588" y2="-1057.298"/>
			</g>
			<g>
				<line fill="none" stroke="#808285" x1="34.75" y1="803.562" x2="1596.588" y2="-1057.298"/>
			</g>
			<g>
				<line fill="none" stroke="#808285" x1="24.75" y1="803.562" x2="1586.588" y2="-1057.298"/>
			</g>
			<g>
				<line fill="none" stroke="#808285" x1="14.75" y1="803.562" x2="1576.588" y2="-1057.298"/>
			</g>
			<g>
				<line fill="none" stroke="#808285" x1="4.75" y1="803.562" x2="1566.588" y2="-1057.298"/>
			</g>
			<g>
				<line fill="none" stroke="#808285" x1="-5.25" y1="803.562" x2="1556.588" y2="-1057.298"/>
			</g>
			<g>
				<line fill="none" stroke="#808285" x1="-15.25" y1="803.562" x2="1546.588" y2="-1057.298"/>
			</g>
			<g>
				<line fill="none" stroke="#808285" x1="-25.25" y1="803.562" x2="1536.588" y2="-1057.298"/>
			</g>
			<g>
				<line fill="none" stroke="#808285" x1="-35.25" y1="803.562" x2="1526.588" y2="-1057.298"/>
			</g>
			<g>
				<line fill="none" stroke="#808285" x1="-45.25" y1="803.562" x2="1516.588" y2="-1057.298"/>
			</g>
			<g>
				<line fill="none" stroke="#808285" x1="-55.25" y1="803.562" x2="1506.588" y2="-1057.298"/>
			</g>
			<g>
				<line fill="none" stroke="#808285" x1="-65.25" y1="803.562" x2="1496.588" y2="-1057.298"/>
			</g>
			<g>
				<line fill="none" stroke="#808285" x1="-75.25" y1="803.562" x2="1486.588" y2="-1057.298"/>
			</g>
			<g>
				<line fill="none" stroke="#808285" x1="-85.25" y1="803.562" x2="1476.588" y2="-1057.298"/>
			</g>
			<g>
				<line fill="none" stroke="#808285" x1="-95.25" y1="803.562" x2="1466.588" y2="-1057.298"/>
			</g>
			<g>
				<line fill="none" stroke="#808285" x1="-105.25" y1="803.562" x2="1456.588" y2="-1057.298"/>
			</g>
			<g>
				<line fill="none" stroke="#808285" x1="-115.25" y1="803.562" x2="1446.588" y2="-1057.298"/>
			</g>
			<g>
				<line fill="none" stroke="#808285" x1="-125.25" y1="803.562" x2="1436.588" y2="-1057.298"/>
			</g>
			<g>
				<line fill="none" stroke="#808285" x1="-135.25" y1="803.562" x2="1426.588" y2="-1057.298"/>
			</g>
			<g>
				<line fill="none" stroke="#808285" x1="-145.25" y1="803.562" x2="1416.588" y2="-1057.298"/>
			</g>
			<g>
				<line fill="none" stroke="#808285" x1="-155.25" y1="803.562" x2="1406.588" y2="-1057.298"/>
			</g>
			<g>
				<line fill="none" stroke="#808285" x1="-165.25" y1="803.562" x2="1396.588" y2="-1057.298"/>
			</g>
			<g>
				<line fill="none" stroke="#808285" x1="-175.25" y1="803.562" x2="1386.588" y2="-1057.298"/>
			</g>
			<g>
				<line fill="none" stroke="#808285" x1="-185.25" y1="803.562" x2="1376.588" y2="-1057.298"/>
			</g>
			<g>
				<line fill="none" stroke="#808285" x1="-195.25" y1="803.562" x2="1366.588" y2="-1057.298"/>
			</g>
			<g>
				<line fill="none" stroke="#808285" x1="-205.25" y1="803.562" x2="1356.588" y2="-1057.298"/>
			</g>
			<g>
				<line fill="none" stroke="#808285" x1="-215.25" y1="803.562" x2="1346.588" y2="-1057.298"/>
			</g>
			<g>
				<line fill="none" stroke="#808285" x1="-225.25" y1="803.562" x2="1336.588" y2="-1057.298"/>
			</g>
			<g>
				<line fill="none" stroke="#808285" x1="-235.25" y1="803.562" x2="1326.588" y2="-1057.298"/>
			</g>
			<g>
				<line fill="none" stroke="#808285" x1="-245.25" y1="803.562" x2="1316.588" y2="-1057.298"/>
			</g>
			<g>
				<line fill="none" stroke="#808285" x1="-255.25" y1="803.562" x2="1306.588" y2="-1057.298"/>
			</g>
			<g>
				<line fill="none" stroke="#808285" x1="-265.25" y1="803.562" x2="1296.588" y2="-1057.298"/>
			</g>
			<g>
				<line fill="none" stroke="#808285" x1="-275.25" y1="803.562" x2="1286.588" y2="-1057.298"/>
			</g>
			<g>
				<line fill="none" stroke="#808285" x1="-285.25" y1="803.562" x2="1276.588" y2="-1057.298"/>
			</g>
			<g>
				<line fill="none" stroke="#808285" x1="-295.25" y1="803.562" x2="1266.588" y2="-1057.298"/>
			</g>
			<g>
				<line fill="none" stroke="#808285" x1="-305.25" y1="803.562" x2="1256.588" y2="-1057.298"/>
			</g>
			<g>
				<line fill="none" stroke="#808285" x1="-315.25" y1="803.562" x2="1246.588" y2="-1057.298"/>
			</g>
			<g>
				<line fill="none" stroke="#808285" x1="-325.25" y1="803.562" x2="1236.588" y2="-1057.298"/>
			</g>
			<g>
				<line fill="none" stroke="#808285" x1="-335.25" y1="803.562" x2="1226.588" y2="-1057.298"/>
			</g>
			<g>
				<line fill="none" stroke="#808285" x1="-345.25" y1="803.562" x2="1216.588" y2="-1057.298"/>
			</g>
			<g>
				<line fill="none" stroke="#808285" x1="-355.25" y1="803.562" x2="1206.588" y2="-1057.298"/>
			</g>
			<g>
				<line fill="none" stroke="#808285" x1="-365.25" y1="803.562" x2="1196.588" y2="-1057.298"/>
			</g>
			<g>
				<line fill="none" stroke="#808285" x1="-375.25" y1="803.562" x2="1186.588" y2="-1057.298"/>
			</g>
			<g>
				<line fill="none" stroke="#808285" x1="-385.25" y1="803.562" x2="1176.588" y2="-1057.298"/>
			</g>
			<g>
				<line fill="none" stroke="#808285" x1="-395.25" y1="803.562" x2="1166.588" y2="-1057.298"/>
			</g>
			<g>
				<line fill="none" stroke="#808285" x1="-405.25" y1="803.562" x2="1156.588" y2="-1057.298"/>
			</g>
			<g>
				<line fill="none" stroke="#808285" x1="-415.25" y1="803.562" x2="1146.588" y2="-1057.298"/>
			</g>
			<g>
				<line fill="none" stroke="#808285" x1="-425.25" y1="803.562" x2="1136.588" y2="-1057.298"/>
			</g>
			<g>
				<line fill="none" stroke="#808285" x1="-435.25" y1="803.562" x2="1126.588" y2="-1057.298"/>
			</g>
			<g>
				<line fill="none" stroke="#808285" x1="-445.25" y1="803.562" x2="1116.588" y2="-1057.298"/>
			</g>
			<g>
				<line fill="none" stroke="#808285" x1="-455.25" y1="803.562" x2="1106.588" y2="-1057.298"/>
			</g>
			<g>
				<line fill="none" stroke="#808285" x1="-465.25" y1="803.562" x2="1096.588" y2="-1057.298"/>
			</g>
			<g>
				<line fill="none" stroke="#808285" x1="-475.25" y1="803.562" x2="1086.588" y2="-1057.298"/>
			</g>
			<g>
				<line fill="none" stroke="#808285" x1="-485.25" y1="803.562" x2="1076.588" y2="-1057.298"/>
			</g>
			<g>
				<line fill="none" stroke="#808285" x1="-495.25" y1="803.562" x2="1066.588" y2="-1057.298"/>
			</g>
			<g>
				<line fill="none" stroke="#808285" x1="-505.25" y1="803.562" x2="1056.588" y2="-1057.298"/>
			</g>
			<g>
				<line fill="none" stroke="#808285" x1="-515.25" y1="803.562" x2="1046.588" y2="-1057.298"/>
			</g>
			<g>
				<line fill="none" stroke="#808285" x1="-525.25" y1="803.562" x2="1036.588" y2="-1057.298"/>
			</g>
			<g>
				<line fill="none" stroke="#808285" x1="-535.25" y1="803.562" x2="1026.588" y2="-1057.298"/>
			</g>
			<g>
				<line fill="none" stroke="#808285" x1="-545.25" y1="803.562" x2="1016.588" y2="-1057.298"/>
			</g>
			<g>
				<line fill="none" stroke="#808285" x1="-555.25" y1="803.562" x2="1006.588" y2="-1057.298"/>
			</g>
			<g>
				<line fill="none" stroke="#808285" x1="-565.25" y1="803.562" x2="996.588" y2="-1057.298"/>
			</g>
			<g>
				<line fill="none" stroke="#808285" x1="-575.25" y1="803.562" x2="986.588" y2="-1057.298"/>
			</g>
			<g>
				<line fill="none" stroke="#808285" x1="-585.25" y1="803.562" x2="976.588" y2="-1057.298"/>
			</g>
			<g>
				<line fill="none" stroke="#808285" x1="-595.25" y1="803.562" x2="966.588" y2="-1057.298"/>
			</g>
			<g>
				<line fill="none" stroke="#808285" x1="-605.25" y1="803.562" x2="956.588" y2="-1057.298"/>
			</g>
			<g>
				<line fill="none" stroke="#808285" x1="-615.25" y1="803.562" x2="946.588" y2="-1057.298"/>
			</g>
			<g>
				<line fill="none" stroke="#808285" x1="-625.25" y1="803.562" x2="936.588" y2="-1057.298"/>
			</g>
			<g>
				<line fill="none" stroke="#808285" x1="-635.25" y1="803.562" x2="926.588" y2="-1057.298"/>
			</g>
			<g>
				<line fill="none" stroke="#808285" x1="-645.25" y1="803.562" x2="916.588" y2="-1057.298"/>
			</g>
			<g>
				<line fill="none" stroke="#808285" x1="-655.25" y1="803.562" x2="906.588" y2="-1057.298"/>
			</g>
			<g>
				<line fill="none" stroke="#808285" x1="-665.25" y1="803.562" x2="896.588" y2="-1057.298"/>
			</g>
			<g>
				<line fill="none" stroke="#808285" x1="-675.25" y1="803.562" x2="886.588" y2="-1057.298"/>
			</g>
			<g>
				<line fill="none" stroke="#808285" x1="-685.25" y1="803.562" x2="876.588" y2="-1057.298"/>
			</g>
			<g>
				<line fill="none" stroke="#808285" x1="-695.25" y1="803.562" x2="866.588" y2="-1057.298"/>
			</g>
			<g>
				<line fill="none" stroke="#808285" x1="-705.25" y1="803.562" x2="856.588" y2="-1057.298"/>
			</g>
			<g>
				<line fill="none" stroke="#808285" x1="-715.25" y1="803.562" x2="846.588" y2="-1057.298"/>
			</g>
			<g>
				<line fill="none" stroke="#808285" x1="-725.25" y1="803.562" x2="836.588" y2="-1057.298"/>
			</g>
			<g>
				<line fill="none" stroke="#808285" x1="-735.25" y1="803.562" x2="826.588" y2="-1057.298"/>
			</g>
			<g>
				<line fill="none" stroke="#808285" x1="-745.25" y1="803.562" x2="816.588" y2="-1057.298"/>
			</g>
			<g>
				<line fill="none" stroke="#808285" x1="-755.25" y1="803.562" x2="806.588" y2="-1057.298"/>
			</g>
			<g>
				<line fill="none" stroke="#808285" x1="-765.25" y1="803.562" x2="796.588" y2="-1057.298"/>
			</g>
			<g>
				<line fill="none" stroke="#808285" x1="-775.25" y1="803.562" x2="786.588" y2="-1057.298"/>
			</g>
			<g>
				<line fill="none" stroke="#808285" x1="-785.25" y1="803.562" x2="776.588" y2="-1057.298"/>
			</g>
			<g>
				<line fill="none" stroke="#808285" x1="-795.25" y1="803.562" x2="766.588" y2="-1057.298"/>
			</g>
			<g>
				<line fill="none" stroke="#808285" x1="-805.25" y1="803.562" x2="756.588" y2="-1057.298"/>
			</g>
			<g>
				<line fill="none" stroke="#808285" x1="-815.25" y1="803.562" x2="746.588" y2="-1057.298"/>
			</g>
			<g>
				<line fill="none" stroke="#808285" x1="-825.25" y1="803.562" x2="736.588" y2="-1057.298"/>
			</g>
			<g>
				<line fill="none" stroke="#808285" x1="-835.25" y1="803.562" x2="726.588" y2="-1057.298"/>
			</g>
			<g>
				<line fill="none" stroke="#808285" x1="-845.25" y1="803.562" x2="716.588" y2="-1057.298"/>
			</g>
			<g>
				<line fill="none" stroke="#808285" x1="-855.25" y1="803.562" x2="706.588" y2="-1057.298"/>
			</g>
			<g>
				<line fill="none" stroke="#808285" x1="-865.25" y1="803.562" x2="696.588" y2="-1057.298"/>
			</g>
			<g>
				<line fill="none" stroke="#808285" x1="-875.25" y1="803.562" x2="686.588" y2="-1057.298"/>
			</g>
			<g>
				<line fill="none" stroke="#808285" x1="-885.25" y1="803.562" x2="676.588" y2="-1057.298"/>
			</g>
			<g>
				<line fill="none" stroke="#808285" x1="-895.25" y1="803.562" x2="666.588" y2="-1057.298"/>
			</g>
			<g>
				<line fill="none" stroke="#808285" x1="-905.25" y1="803.562" x2="656.588" y2="-1057.298"/>
			</g>
			<g>
				<line fill="none" stroke="#808285" x1="-915.25" y1="803.562" x2="646.588" y2="-1057.298"/>
			</g>
			<g>
				<line fill="none" stroke="#808285" x1="-925.25" y1="803.562" x2="636.588" y2="-1057.298"/>
			</g>
			<g>
				<line fill="none" stroke="#808285" x1="-935.25" y1="803.562" x2="626.588" y2="-1057.298"/>
			</g>
			<g>
				<line fill="none" stroke="#808285" x1="-945.25" y1="803.562" x2="616.588" y2="-1057.298"/>
			</g>
			<g>
				<line fill="none" stroke="#808285" x1="-955.25" y1="803.562" x2="606.588" y2="-1057.298"/>
			</g>
			<g>
				<line fill="none" stroke="#808285" x1="-965.25" y1="803.562" x2="596.588" y2="-1057.298"/>
			</g>
			<g>
				<line fill="none" stroke="#808285" x1="-975.25" y1="803.562" x2="586.588" y2="-1057.298"/>
			</g>
			<g>
				<line fill="none" stroke="#808285" x1="-985.25" y1="803.562" x2="576.588" y2="-1057.298"/>
			</g>
			<g>
				<line fill="none" stroke="#808285" x1="-995.25" y1="803.562" x2="566.588" y2="-1057.298"/>
			</g>
			<g>
				<line fill="none" stroke="#808285" x1="-1005.25" y1="803.562" x2="556.588" y2="-1057.298"/>
			</g>
			<g>
				<line fill="none" stroke="#808285" x1="-1015.25" y1="803.562" x2="546.588" y2="-1057.298"/>
			</g>
			<g>
				<line fill="none" stroke="#808285" x1="-1025.25" y1="803.562" x2="536.588" y2="-1057.298"/>
			</g>
			<g>
				<line fill="none" stroke="#808285" x1="-1035.25" y1="803.562" x2="526.588" y2="-1057.298"/>
			</g>
			<g>
				<line fill="none" stroke="#808285" x1="-1045.25" y1="803.562" x2="516.588" y2="-1057.298"/>
			</g>
			<g>
				<line fill="none" stroke="#808285" x1="-1055.25" y1="803.562" x2="506.588" y2="-1057.298"/>
			</g>
			<g>
				<line fill="none" stroke="#808285" x1="-1065.25" y1="803.562" x2="496.588" y2="-1057.298"/>
			</g>
			<g>
				<line fill="none" stroke="#808285" x1="-1075.25" y1="803.562" x2="486.588" y2="-1057.298"/>
			</g>
			<g>
				<line fill="none" stroke="#808285" x1="-1085.25" y1="803.562" x2="476.588" y2="-1057.298"/>
			</g>
			<g>
				<line fill="none" stroke="#808285" x1="-1095.25" y1="803.562" x2="466.588" y2="-1057.298"/>
			</g>
			<g>
				<line fill="none" stroke="#808285" x1="-1105.25" y1="803.562" x2="456.588" y2="-1057.298"/>
			</g>
			<g>
				<line fill="none" stroke="#808285" x1="-1115.25" y1="803.562" x2="446.588" y2="-1057.298"/>
			</g>
			<g>
				<line fill="none" stroke="#808285" x1="-1125.25" y1="803.562" x2="436.588" y2="-1057.298"/>
			</g>
			<g>
				<line fill="none" stroke="#808285" x1="-1135.25" y1="803.562" x2="426.588" y2="-1057.298"/>
			</g>
			<g>
				<line fill="none" stroke="#808285" x1="-1145.25" y1="803.562" x2="416.588" y2="-1057.298"/>
			</g>
		</g>
	</g>
</g>
<g id="map">
</g>
<g id="building" display="none">
</g>
<g id="Layer_2">
</g>
<g id="Layer_6">
	<path fill="#3867B1" d="M46.211,22.085h-3.609v11.562h-4.327V25.29h-6.549v8.356h-4.329V22.085h-3.608l11.209-8.595L46.211,22.085z
		 M35,0C15.67,0,0,15.67,0,35s15.67,35.001,35,35.001c19.33,0,35-15.671,35-35.001S54.33,0,35,0z"/>
	<g>
		<rect x="8.5" y="38.754" fill="none" width="53" height="17.817"/>
		<text transform="matrix(1 0 0 1 20.8789 45.252)"><tspan x="0" y="0" fill="#F1F2F2" font-family="'TradeGothic-Roman'" font-size="9">Home /</tspan><tspan x="4.374" y="8" fill="#F1F2F2" font-family="'TradeGothic-Roman'" font-size="9">Work</tspan></text>
	</g>
</g>
</svg>
