<?xml version="1.0" encoding="utf-8"?>
<!-- Generator: Adobe Illustrator 16.0.0, SVG Export Plug-In . SVG Version: 6.00 Build 0)  -->
<!DOCTYPE svg PUBLIC "-//W3C//DTD SVG 1.1//EN" "http://www.w3.org/Graphics/SVG/1.1/DTD/svg11.dtd">
<svg version="1.1" xmlns="http://www.w3.org/2000/svg" xmlns:xlink="http://www.w3.org/1999/xlink" x="0px" y="0px"
	 width="70.172px" height="70.174px" viewBox="683.38 1323.198 70.172 70.174"
	 enable-background="new 683.38 1323.198 70.172 70.174" xml:space="preserve">
<g id="web">
</g>
<g id="map">
</g>
<g id="Layer_10">
</g>
<g id="svg-dot" display="none">
</g>
<g id="sidebar" display="none">
</g>
<g id="collide" display="none">
</g>
<g id="lines" display="none">
</g>
<g id="users" display="none">
</g>
<g id="Layer_7" display="none">
</g>
<g id="overlay">
	<g>
		<defs>
			<rect id="SVGID_5_" x="143.594" y="124.879" width="1625.759" height="1045.957"/>
		</defs>
		<clipPath id="SVGID_2_">
			<use xlink:href="#SVGID_5_"  overflow="visible"/>
		</clipPath>
		<g opacity="0.6" clip-path="url(#SVGID_2_)">
			<g>
				<line fill="none" stroke="#4B4C4C" x1="748.5" y1="1906.504" x2="2310.339" y2="45.646"/>
			</g>
			<g>
				<line fill="none" stroke="#4B4C4C" x1="742.5" y1="1906.504" x2="2304.339" y2="45.646"/>
			</g>
			<g>
				<line fill="none" stroke="#4B4C4C" x1="736.5" y1="1906.504" x2="2298.339" y2="45.646"/>
			</g>
			<g>
				<line fill="none" stroke="#4B4C4C" x1="730.5" y1="1906.504" x2="2292.339" y2="45.646"/>
			</g>
			<g>
				<line fill="none" stroke="#4B4C4C" x1="724.5" y1="1906.504" x2="2286.339" y2="45.646"/>
			</g>
			<g>
				<line fill="none" stroke="#4B4C4C" x1="718.5" y1="1906.504" x2="2280.339" y2="45.646"/>
			</g>
			<g>
				<line fill="none" stroke="#4B4C4C" x1="712.5" y1="1906.504" x2="2274.339" y2="45.646"/>
			</g>
			<g>
				<line fill="none" stroke="#4B4C4C" x1="706.5" y1="1906.504" x2="2268.339" y2="45.646"/>
			</g>
			<g>
				<line fill="none" stroke="#4B4C4C" x1="700.5" y1="1906.504" x2="2262.339" y2="45.646"/>
			</g>
			<g>
				<line fill="none" stroke="#4B4C4C" x1="694.5" y1="1906.504" x2="2256.339" y2="45.646"/>
			</g>
			<g>
				<line fill="none" stroke="#4B4C4C" x1="688.5" y1="1906.504" x2="2250.339" y2="45.646"/>
			</g>
			<g>
				<line fill="none" stroke="#4B4C4C" x1="682.5" y1="1906.504" x2="2244.339" y2="45.646"/>
			</g>
			<g>
				<line fill="none" stroke="#4B4C4C" x1="676.5" y1="1906.504" x2="2238.339" y2="45.646"/>
			</g>
			<g>
				<line fill="none" stroke="#4B4C4C" x1="670.5" y1="1906.504" x2="2232.339" y2="45.646"/>
			</g>
			<g>
				<line fill="none" stroke="#4B4C4C" x1="664.5" y1="1906.504" x2="2226.339" y2="45.646"/>
			</g>
			<g>
				<line fill="none" stroke="#4B4C4C" x1="658.5" y1="1906.504" x2="2220.339" y2="45.646"/>
			</g>
			<g>
				<line fill="none" stroke="#4B4C4C" x1="652.5" y1="1906.504" x2="2214.339" y2="45.646"/>
			</g>
			<g>
				<line fill="none" stroke="#4B4C4C" x1="646.5" y1="1906.504" x2="2208.339" y2="45.646"/>
			</g>
			<g>
				<line fill="none" stroke="#4B4C4C" x1="640.5" y1="1906.504" x2="2202.339" y2="45.646"/>
			</g>
			<g>
				<line fill="none" stroke="#4B4C4C" x1="634.5" y1="1906.504" x2="2196.339" y2="45.646"/>
			</g>
			<g>
				<line fill="none" stroke="#4B4C4C" x1="628.5" y1="1906.504" x2="2190.339" y2="45.646"/>
			</g>
			<g>
				<line fill="none" stroke="#4B4C4C" x1="622.5" y1="1906.504" x2="2184.339" y2="45.646"/>
			</g>
			<g>
				<line fill="none" stroke="#4B4C4C" x1="616.5" y1="1906.504" x2="2178.339" y2="45.646"/>
			</g>
			<g>
				<line fill="none" stroke="#4B4C4C" x1="610.5" y1="1906.504" x2="2172.339" y2="45.646"/>
			</g>
			<g>
				<line fill="none" stroke="#4B4C4C" x1="604.5" y1="1906.504" x2="2166.339" y2="45.646"/>
			</g>
			<g>
				<line fill="none" stroke="#4B4C4C" x1="598.5" y1="1906.504" x2="2160.339" y2="45.646"/>
			</g>
			<g>
				<line fill="none" stroke="#4B4C4C" x1="592.5" y1="1906.504" x2="2154.339" y2="45.646"/>
			</g>
			<g>
				<line fill="none" stroke="#4B4C4C" x1="586.5" y1="1906.504" x2="2148.339" y2="45.646"/>
			</g>
			<g>
				<line fill="none" stroke="#4B4C4C" x1="580.5" y1="1906.504" x2="2142.339" y2="45.646"/>
			</g>
			<g>
				<line fill="none" stroke="#4B4C4C" x1="574.5" y1="1906.504" x2="2136.339" y2="45.646"/>
			</g>
			<g>
				<line fill="none" stroke="#4B4C4C" x1="568.5" y1="1906.504" x2="2130.339" y2="45.646"/>
			</g>
			<g>
				<line fill="none" stroke="#4B4C4C" x1="562.5" y1="1906.504" x2="2124.339" y2="45.646"/>
			</g>
			<g>
				<line fill="none" stroke="#4B4C4C" x1="556.5" y1="1906.504" x2="2118.339" y2="45.646"/>
			</g>
			<g>
				<line fill="none" stroke="#4B4C4C" x1="550.5" y1="1906.504" x2="2112.339" y2="45.646"/>
			</g>
			<g>
				<line fill="none" stroke="#4B4C4C" x1="544.5" y1="1906.504" x2="2106.339" y2="45.646"/>
			</g>
			<g>
				<line fill="none" stroke="#4B4C4C" x1="538.5" y1="1906.504" x2="2100.339" y2="45.646"/>
			</g>
			<g>
				<line fill="none" stroke="#4B4C4C" x1="532.5" y1="1906.504" x2="2094.339" y2="45.646"/>
			</g>
			<g>
				<line fill="none" stroke="#4B4C4C" x1="526.5" y1="1906.504" x2="2088.339" y2="45.646"/>
			</g>
			<g>
				<line fill="none" stroke="#4B4C4C" x1="520.5" y1="1906.504" x2="2082.339" y2="45.646"/>
			</g>
			<g>
				<line fill="none" stroke="#4B4C4C" x1="514.5" y1="1906.504" x2="2076.339" y2="45.646"/>
			</g>
			<g>
				<line fill="none" stroke="#4B4C4C" x1="508.5" y1="1906.504" x2="2070.339" y2="45.646"/>
			</g>
			<g>
				<line fill="none" stroke="#4B4C4C" x1="502.5" y1="1906.504" x2="2064.339" y2="45.646"/>
			</g>
			<g>
				<line fill="none" stroke="#4B4C4C" x1="496.5" y1="1906.504" x2="2058.339" y2="45.646"/>
			</g>
			<g>
				<line fill="none" stroke="#4B4C4C" x1="490.5" y1="1906.504" x2="2052.339" y2="45.646"/>
			</g>
			<g>
				<line fill="none" stroke="#4B4C4C" x1="484.5" y1="1906.504" x2="2046.339" y2="45.646"/>
			</g>
			<g>
				<line fill="none" stroke="#4B4C4C" x1="478.5" y1="1906.504" x2="2040.339" y2="45.646"/>
			</g>
			<g>
				<line fill="none" stroke="#4B4C4C" x1="472.5" y1="1906.504" x2="2034.339" y2="45.646"/>
			</g>
			<g>
				<line fill="none" stroke="#4B4C4C" x1="466.5" y1="1906.504" x2="2028.339" y2="45.646"/>
			</g>
			<g>
				<line fill="none" stroke="#4B4C4C" x1="460.5" y1="1906.504" x2="2022.339" y2="45.646"/>
			</g>
			<g>
				<line fill="none" stroke="#4B4C4C" x1="454.5" y1="1906.504" x2="2016.339" y2="45.646"/>
			</g>
			<g>
				<line fill="none" stroke="#4B4C4C" x1="448.5" y1="1906.504" x2="2010.339" y2="45.646"/>
			</g>
			<g>
				<line fill="none" stroke="#4B4C4C" x1="442.5" y1="1906.504" x2="2004.339" y2="45.646"/>
			</g>
			<g>
				<line fill="none" stroke="#4B4C4C" x1="436.5" y1="1906.504" x2="1998.339" y2="45.646"/>
			</g>
			<g>
				<line fill="none" stroke="#4B4C4C" x1="430.5" y1="1906.504" x2="1992.339" y2="45.646"/>
			</g>
			<g>
				<line fill="none" stroke="#4B4C4C" x1="424.5" y1="1906.504" x2="1986.339" y2="45.646"/>
			</g>
			<g>
				<line fill="none" stroke="#4B4C4C" x1="418.5" y1="1906.504" x2="1980.339" y2="45.646"/>
			</g>
			<g>
				<line fill="none" stroke="#4B4C4C" x1="412.5" y1="1906.504" x2="1974.339" y2="45.646"/>
			</g>
			<g>
				<line fill="none" stroke="#4B4C4C" x1="406.5" y1="1906.504" x2="1968.339" y2="45.646"/>
			</g>
			<g>
				<line fill="none" stroke="#4B4C4C" x1="400.5" y1="1906.504" x2="1962.339" y2="45.646"/>
			</g>
			<g>
				<line fill="none" stroke="#4B4C4C" x1="394.5" y1="1906.504" x2="1956.339" y2="45.646"/>
			</g>
			<g>
				<line fill="none" stroke="#4B4C4C" x1="388.5" y1="1906.504" x2="1950.339" y2="45.646"/>
			</g>
			<g>
				<line fill="none" stroke="#4B4C4C" x1="382.5" y1="1906.504" x2="1944.339" y2="45.646"/>
			</g>
			<g>
				<line fill="none" stroke="#4B4C4C" x1="376.5" y1="1906.504" x2="1938.339" y2="45.646"/>
			</g>
			<g>
				<line fill="none" stroke="#4B4C4C" x1="370.5" y1="1906.504" x2="1932.339" y2="45.646"/>
			</g>
			<g>
				<line fill="none" stroke="#4B4C4C" x1="364.5" y1="1906.504" x2="1926.339" y2="45.646"/>
			</g>
			<g>
				<line fill="none" stroke="#4B4C4C" x1="358.5" y1="1906.504" x2="1920.339" y2="45.646"/>
			</g>
			<g>
				<line fill="none" stroke="#4B4C4C" x1="352.5" y1="1906.504" x2="1914.339" y2="45.646"/>
			</g>
			<g>
				<line fill="none" stroke="#4B4C4C" x1="346.5" y1="1906.504" x2="1908.339" y2="45.646"/>
			</g>
			<g>
				<line fill="none" stroke="#4B4C4C" x1="340.5" y1="1906.504" x2="1902.339" y2="45.646"/>
			</g>
			<g>
				<line fill="none" stroke="#4B4C4C" x1="334.5" y1="1906.504" x2="1896.339" y2="45.646"/>
			</g>
			<g>
				<line fill="none" stroke="#4B4C4C" x1="328.5" y1="1906.504" x2="1890.339" y2="45.646"/>
			</g>
			<g>
				<line fill="none" stroke="#4B4C4C" x1="322.5" y1="1906.504" x2="1884.339" y2="45.646"/>
			</g>
			<g>
				<line fill="none" stroke="#4B4C4C" x1="316.5" y1="1906.504" x2="1878.339" y2="45.646"/>
			</g>
			<g>
				<line fill="none" stroke="#4B4C4C" x1="310.5" y1="1906.504" x2="1872.339" y2="45.646"/>
			</g>
			<g>
				<line fill="none" stroke="#4B4C4C" x1="304.5" y1="1906.504" x2="1866.339" y2="45.646"/>
			</g>
			<g>
				<line fill="none" stroke="#4B4C4C" x1="298.5" y1="1906.504" x2="1860.339" y2="45.646"/>
			</g>
			<g>
				<line fill="none" stroke="#4B4C4C" x1="292.5" y1="1906.504" x2="1854.339" y2="45.646"/>
			</g>
			<g>
				<line fill="none" stroke="#4B4C4C" x1="286.5" y1="1906.504" x2="1848.339" y2="45.646"/>
			</g>
			<g>
				<line fill="none" stroke="#4B4C4C" x1="280.5" y1="1906.504" x2="1842.339" y2="45.646"/>
			</g>
			<g>
				<line fill="none" stroke="#4B4C4C" x1="274.5" y1="1906.504" x2="1836.339" y2="45.646"/>
			</g>
			<g>
				<line fill="none" stroke="#4B4C4C" x1="268.5" y1="1906.504" x2="1830.339" y2="45.646"/>
			</g>
			<g>
				<line fill="none" stroke="#4B4C4C" x1="262.5" y1="1906.504" x2="1824.339" y2="45.646"/>
			</g>
			<g>
				<line fill="none" stroke="#4B4C4C" x1="256.5" y1="1906.504" x2="1818.339" y2="45.646"/>
			</g>
			<g>
				<line fill="none" stroke="#4B4C4C" x1="250.5" y1="1906.504" x2="1812.339" y2="45.646"/>
			</g>
			<g>
				<line fill="none" stroke="#4B4C4C" x1="244.5" y1="1906.504" x2="1806.339" y2="45.646"/>
			</g>
			<g>
				<line fill="none" stroke="#4B4C4C" x1="238.5" y1="1906.504" x2="1800.339" y2="45.646"/>
			</g>
			<g>
				<line fill="none" stroke="#4B4C4C" x1="232.5" y1="1906.504" x2="1794.339" y2="45.646"/>
			</g>
			<g>
				<line fill="none" stroke="#4B4C4C" x1="226.5" y1="1906.504" x2="1788.339" y2="45.646"/>
			</g>
			<g>
				<line fill="none" stroke="#4B4C4C" x1="220.5" y1="1906.504" x2="1782.339" y2="45.646"/>
			</g>
			<g>
				<line fill="none" stroke="#4B4C4C" x1="214.5" y1="1906.504" x2="1776.339" y2="45.646"/>
			</g>
			<g>
				<line fill="none" stroke="#4B4C4C" x1="208.5" y1="1906.504" x2="1770.339" y2="45.646"/>
			</g>
			<g>
				<line fill="none" stroke="#4B4C4C" x1="202.5" y1="1906.504" x2="1764.339" y2="45.646"/>
			</g>
			<g>
				<line fill="none" stroke="#4B4C4C" x1="196.5" y1="1906.504" x2="1758.339" y2="45.646"/>
			</g>
			<g>
				<line fill="none" stroke="#4B4C4C" x1="190.5" y1="1906.504" x2="1752.339" y2="45.646"/>
			</g>
			<g>
				<line fill="none" stroke="#4B4C4C" x1="184.5" y1="1906.504" x2="1746.339" y2="45.646"/>
			</g>
			<g>
				<line fill="none" stroke="#4B4C4C" x1="178.5" y1="1906.504" x2="1740.339" y2="45.646"/>
			</g>
			<g>
				<line fill="none" stroke="#4B4C4C" x1="172.5" y1="1906.504" x2="1734.339" y2="45.646"/>
			</g>
			<g>
				<line fill="none" stroke="#4B4C4C" x1="166.5" y1="1906.504" x2="1728.339" y2="45.646"/>
			</g>
			<g>
				<line fill="none" stroke="#4B4C4C" x1="160.5" y1="1906.504" x2="1722.339" y2="45.646"/>
			</g>
			<g>
				<line fill="none" stroke="#4B4C4C" x1="154.5" y1="1906.504" x2="1716.339" y2="45.646"/>
			</g>
			<g>
				<line fill="none" stroke="#4B4C4C" x1="148.5" y1="1906.504" x2="1710.339" y2="45.646"/>
			</g>
			<g>
				<line fill="none" stroke="#4B4C4C" x1="142.5" y1="1906.504" x2="1704.339" y2="45.646"/>
			</g>
			<g>
				<line fill="none" stroke="#4B4C4C" x1="136.5" y1="1906.504" x2="1698.339" y2="45.646"/>
			</g>
			<g>
				<line fill="none" stroke="#4B4C4C" x1="130.5" y1="1906.504" x2="1692.339" y2="45.646"/>
			</g>
			<g>
				<line fill="none" stroke="#4B4C4C" x1="124.5" y1="1906.504" x2="1686.339" y2="45.646"/>
			</g>
			<g>
				<line fill="none" stroke="#4B4C4C" x1="118.5" y1="1906.504" x2="1680.339" y2="45.646"/>
			</g>
			<g>
				<line fill="none" stroke="#4B4C4C" x1="112.5" y1="1906.504" x2="1674.339" y2="45.646"/>
			</g>
			<g>
				<line fill="none" stroke="#4B4C4C" x1="106.5" y1="1906.504" x2="1668.339" y2="45.646"/>
			</g>
			<g>
				<line fill="none" stroke="#4B4C4C" x1="100.5" y1="1906.504" x2="1662.339" y2="45.646"/>
			</g>
			<g>
				<line fill="none" stroke="#4B4C4C" x1="94.5" y1="1906.504" x2="1656.339" y2="45.646"/>
			</g>
			<g>
				<line fill="none" stroke="#4B4C4C" x1="88.5" y1="1906.504" x2="1650.339" y2="45.646"/>
			</g>
			<g>
				<line fill="none" stroke="#4B4C4C" x1="82.5" y1="1906.504" x2="1644.339" y2="45.646"/>
			</g>
			<g>
				<line fill="none" stroke="#4B4C4C" x1="76.5" y1="1906.504" x2="1638.339" y2="45.646"/>
			</g>
			<g>
				<line fill="none" stroke="#4B4C4C" x1="70.5" y1="1906.504" x2="1632.339" y2="45.646"/>
			</g>
			<g>
				<line fill="none" stroke="#4B4C4C" x1="64.5" y1="1906.504" x2="1626.339" y2="45.646"/>
			</g>
			<g>
				<line fill="none" stroke="#4B4C4C" x1="58.5" y1="1906.504" x2="1620.339" y2="45.646"/>
			</g>
			<g>
				<line fill="none" stroke="#4B4C4C" x1="52.5" y1="1906.504" x2="1614.339" y2="45.646"/>
			</g>
			<g>
				<line fill="none" stroke="#4B4C4C" x1="46.5" y1="1906.504" x2="1608.339" y2="45.646"/>
			</g>
			<g>
				<line fill="none" stroke="#4B4C4C" x1="40.5" y1="1906.504" x2="1602.339" y2="45.646"/>
			</g>
			<g>
				<line fill="none" stroke="#4B4C4C" x1="34.5" y1="1906.504" x2="1596.339" y2="45.646"/>
			</g>
			<g>
				<line fill="none" stroke="#4B4C4C" x1="28.5" y1="1906.504" x2="1590.339" y2="45.646"/>
			</g>
			<g>
				<line fill="none" stroke="#4B4C4C" x1="22.5" y1="1906.504" x2="1584.339" y2="45.646"/>
			</g>
			<g>
				<line fill="none" stroke="#4B4C4C" x1="16.5" y1="1906.504" x2="1578.339" y2="45.646"/>
			</g>
			<g>
				<line fill="none" stroke="#4B4C4C" x1="10.5" y1="1906.504" x2="1572.339" y2="45.646"/>
			</g>
			<g>
				<line fill="none" stroke="#4B4C4C" x1="4.5" y1="1906.504" x2="1566.339" y2="45.646"/>
			</g>
			<g>
				<line fill="none" stroke="#4B4C4C" x1="-1.5" y1="1906.504" x2="1560.339" y2="45.646"/>
			</g>
			<g>
				<line fill="none" stroke="#4B4C4C" x1="-7.5" y1="1906.504" x2="1554.339" y2="45.646"/>
			</g>
			<g>
				<line fill="none" stroke="#4B4C4C" x1="-13.5" y1="1906.504" x2="1548.339" y2="45.646"/>
			</g>
			<g>
				<line fill="none" stroke="#4B4C4C" x1="-19.5" y1="1906.504" x2="1542.339" y2="45.646"/>
			</g>
			<g>
				<line fill="none" stroke="#4B4C4C" x1="-25.5" y1="1906.504" x2="1536.339" y2="45.646"/>
			</g>
			<g>
				<line fill="none" stroke="#4B4C4C" x1="-31.5" y1="1906.504" x2="1530.339" y2="45.646"/>
			</g>
			<g>
				<line fill="none" stroke="#4B4C4C" x1="-37.5" y1="1906.504" x2="1524.339" y2="45.646"/>
			</g>
			<g>
				<line fill="none" stroke="#4B4C4C" x1="-43.5" y1="1906.504" x2="1518.339" y2="45.646"/>
			</g>
			<g>
				<line fill="none" stroke="#4B4C4C" x1="-49.5" y1="1906.504" x2="1512.339" y2="45.646"/>
			</g>
			<g>
				<line fill="none" stroke="#4B4C4C" x1="-55.5" y1="1906.504" x2="1506.339" y2="45.646"/>
			</g>
			<g>
				<line fill="none" stroke="#4B4C4C" x1="-61.5" y1="1906.504" x2="1500.339" y2="45.646"/>
			</g>
			<g>
				<line fill="none" stroke="#4B4C4C" x1="-67.5" y1="1906.504" x2="1494.339" y2="45.646"/>
			</g>
			<g>
				<line fill="none" stroke="#4B4C4C" x1="-73.5" y1="1906.504" x2="1488.339" y2="45.646"/>
			</g>
			<g>
				<line fill="none" stroke="#4B4C4C" x1="-79.5" y1="1906.504" x2="1482.339" y2="45.646"/>
			</g>
			<g>
				<line fill="none" stroke="#4B4C4C" x1="-85.5" y1="1906.504" x2="1476.339" y2="45.646"/>
			</g>
			<g>
				<line fill="none" stroke="#4B4C4C" x1="-91.5" y1="1906.504" x2="1470.339" y2="45.646"/>
			</g>
			<g>
				<line fill="none" stroke="#4B4C4C" x1="-97.5" y1="1906.504" x2="1464.339" y2="45.646"/>
			</g>
			<g>
				<line fill="none" stroke="#4B4C4C" x1="-103.5" y1="1906.504" x2="1458.339" y2="45.646"/>
			</g>
			<g>
				<line fill="none" stroke="#4B4C4C" x1="-109.5" y1="1906.504" x2="1452.339" y2="45.646"/>
			</g>
			<g>
				<line fill="none" stroke="#4B4C4C" x1="-115.5" y1="1906.504" x2="1446.339" y2="45.646"/>
			</g>
			<g>
				<line fill="none" stroke="#4B4C4C" x1="-121.5" y1="1906.504" x2="1440.339" y2="45.646"/>
			</g>
			<g>
				<line fill="none" stroke="#4B4C4C" x1="-127.5" y1="1906.504" x2="1434.339" y2="45.646"/>
			</g>
			<g>
				<line fill="none" stroke="#4B4C4C" x1="-133.5" y1="1906.504" x2="1428.339" y2="45.646"/>
			</g>
			<g>
				<line fill="none" stroke="#4B4C4C" x1="-139.5" y1="1906.504" x2="1422.339" y2="45.646"/>
			</g>
			<g>
				<line fill="none" stroke="#4B4C4C" x1="-145.5" y1="1906.504" x2="1416.339" y2="45.646"/>
			</g>
			<g>
				<line fill="none" stroke="#4B4C4C" x1="-151.5" y1="1906.504" x2="1410.339" y2="45.646"/>
			</g>
			<g>
				<line fill="none" stroke="#4B4C4C" x1="-157.5" y1="1906.504" x2="1404.339" y2="45.646"/>
			</g>
			<g>
				<line fill="none" stroke="#4B4C4C" x1="-163.5" y1="1906.504" x2="1398.339" y2="45.646"/>
			</g>
			<g>
				<line fill="none" stroke="#4B4C4C" x1="-169.5" y1="1906.504" x2="1392.339" y2="45.646"/>
			</g>
			<g>
				<line fill="none" stroke="#4B4C4C" x1="-175.5" y1="1906.504" x2="1386.339" y2="45.646"/>
			</g>
			<g>
				<line fill="none" stroke="#4B4C4C" x1="-181.5" y1="1906.504" x2="1380.339" y2="45.646"/>
			</g>
			<g>
				<line fill="none" stroke="#4B4C4C" x1="-187.5" y1="1906.504" x2="1374.339" y2="45.646"/>
			</g>
			<g>
				<line fill="none" stroke="#4B4C4C" x1="-193.5" y1="1906.504" x2="1368.339" y2="45.646"/>
			</g>
			<g>
				<line fill="none" stroke="#4B4C4C" x1="-199.5" y1="1906.504" x2="1362.339" y2="45.646"/>
			</g>
			<g>
				<line fill="none" stroke="#4B4C4C" x1="-205.5" y1="1906.504" x2="1356.339" y2="45.646"/>
			</g>
			<g>
				<line fill="none" stroke="#4B4C4C" x1="-211.5" y1="1906.504" x2="1350.339" y2="45.646"/>
			</g>
			<g>
				<line fill="none" stroke="#4B4C4C" x1="-217.5" y1="1906.504" x2="1344.339" y2="45.646"/>
			</g>
			<g>
				<line fill="none" stroke="#4B4C4C" x1="-223.5" y1="1906.504" x2="1338.339" y2="45.646"/>
			</g>
			<g>
				<line fill="none" stroke="#4B4C4C" x1="-229.5" y1="1906.504" x2="1332.339" y2="45.646"/>
			</g>
			<g>
				<line fill="none" stroke="#4B4C4C" x1="-235.5" y1="1906.504" x2="1326.339" y2="45.646"/>
			</g>
			<g>
				<line fill="none" stroke="#4B4C4C" x1="-241.5" y1="1906.504" x2="1320.339" y2="45.646"/>
			</g>
			<g>
				<line fill="none" stroke="#4B4C4C" x1="-247.5" y1="1906.504" x2="1314.339" y2="45.646"/>
			</g>
			<g>
				<line fill="none" stroke="#4B4C4C" x1="-253.5" y1="1906.504" x2="1308.339" y2="45.646"/>
			</g>
			<g>
				<line fill="none" stroke="#4B4C4C" x1="-259.5" y1="1906.504" x2="1302.339" y2="45.646"/>
			</g>
			<g>
				<line fill="none" stroke="#4B4C4C" x1="-265.5" y1="1906.504" x2="1296.339" y2="45.646"/>
			</g>
			<g>
				<line fill="none" stroke="#4B4C4C" x1="-271.5" y1="1906.504" x2="1290.339" y2="45.646"/>
			</g>
			<g>
				<line fill="none" stroke="#4B4C4C" x1="-277.5" y1="1906.504" x2="1284.339" y2="45.646"/>
			</g>
			<g>
				<line fill="none" stroke="#4B4C4C" x1="-283.5" y1="1906.504" x2="1278.339" y2="45.646"/>
			</g>
			<g>
				<line fill="none" stroke="#4B4C4C" x1="-289.5" y1="1906.504" x2="1272.339" y2="45.646"/>
			</g>
			<g>
				<line fill="none" stroke="#4B4C4C" x1="-295.5" y1="1906.504" x2="1266.339" y2="45.646"/>
			</g>
			<g>
				<line fill="none" stroke="#4B4C4C" x1="-301.5" y1="1906.504" x2="1260.339" y2="45.646"/>
			</g>
			<g>
				<line fill="none" stroke="#4B4C4C" x1="-307.5" y1="1906.504" x2="1254.339" y2="45.646"/>
			</g>
			<g>
				<line fill="none" stroke="#4B4C4C" x1="-313.5" y1="1906.504" x2="1248.339" y2="45.646"/>
			</g>
			<g>
				<line fill="none" stroke="#4B4C4C" x1="-319.5" y1="1906.504" x2="1242.339" y2="45.646"/>
			</g>
			<g>
				<line fill="none" stroke="#4B4C4C" x1="-325.5" y1="1906.504" x2="1236.339" y2="45.646"/>
			</g>
			<g>
				<line fill="none" stroke="#4B4C4C" x1="-331.5" y1="1906.504" x2="1230.339" y2="45.646"/>
			</g>
			<g>
				<line fill="none" stroke="#4B4C4C" x1="-337.5" y1="1906.504" x2="1224.339" y2="45.646"/>
			</g>
			<g>
				<line fill="none" stroke="#4B4C4C" x1="-343.5" y1="1906.504" x2="1218.339" y2="45.646"/>
			</g>
			<g>
				<line fill="none" stroke="#4B4C4C" x1="-349.5" y1="1906.504" x2="1212.339" y2="45.646"/>
			</g>
			<g>
				<line fill="none" stroke="#4B4C4C" x1="-355.5" y1="1906.504" x2="1206.339" y2="45.646"/>
			</g>
			<g>
				<line fill="none" stroke="#4B4C4C" x1="-361.5" y1="1906.504" x2="1200.339" y2="45.646"/>
			</g>
			<g>
				<line fill="none" stroke="#4B4C4C" x1="-367.5" y1="1906.504" x2="1194.339" y2="45.646"/>
			</g>
			<g>
				<line fill="none" stroke="#4B4C4C" x1="-373.5" y1="1906.504" x2="1188.339" y2="45.646"/>
			</g>
			<g>
				<line fill="none" stroke="#4B4C4C" x1="-379.5" y1="1906.504" x2="1182.339" y2="45.646"/>
			</g>
			<g>
				<line fill="none" stroke="#4B4C4C" x1="-385.5" y1="1906.504" x2="1176.339" y2="45.646"/>
			</g>
			<g>
				<line fill="none" stroke="#4B4C4C" x1="-391.5" y1="1906.504" x2="1170.339" y2="45.646"/>
			</g>
			<g>
				<line fill="none" stroke="#4B4C4C" x1="-397.5" y1="1906.504" x2="1164.339" y2="45.646"/>
			</g>
			<g>
				<line fill="none" stroke="#4B4C4C" x1="-403.5" y1="1906.504" x2="1158.339" y2="45.646"/>
			</g>
			<g>
				<line fill="none" stroke="#4B4C4C" x1="-409.5" y1="1906.504" x2="1152.339" y2="45.646"/>
			</g>
			<g>
				<line fill="none" stroke="#4B4C4C" x1="-415.5" y1="1906.504" x2="1146.339" y2="45.646"/>
			</g>
			<g>
				<line fill="none" stroke="#4B4C4C" x1="-421.5" y1="1906.504" x2="1140.339" y2="45.646"/>
			</g>
			<g>
				<line fill="none" stroke="#4B4C4C" x1="-427.5" y1="1906.504" x2="1134.339" y2="45.646"/>
			</g>
			<g>
				<line fill="none" stroke="#4B4C4C" x1="-433.5" y1="1906.504" x2="1128.339" y2="45.646"/>
			</g>
			<g>
				<line fill="none" stroke="#4B4C4C" x1="-439.5" y1="1906.504" x2="1122.339" y2="45.646"/>
			</g>
			<g>
				<line fill="none" stroke="#4B4C4C" x1="-445.5" y1="1906.504" x2="1116.339" y2="45.646"/>
			</g>
			<g>
				<line fill="none" stroke="#4B4C4C" x1="-451.5" y1="1906.504" x2="1110.339" y2="45.646"/>
			</g>
			<g>
				<line fill="none" stroke="#4B4C4C" x1="-457.5" y1="1906.504" x2="1104.339" y2="45.646"/>
			</g>
			<g>
				<line fill="none" stroke="#4B4C4C" x1="-463.5" y1="1906.504" x2="1098.339" y2="45.646"/>
			</g>
			<g>
				<line fill="none" stroke="#4B4C4C" x1="-469.5" y1="1906.504" x2="1092.339" y2="45.646"/>
			</g>
			<g>
				<line fill="none" stroke="#4B4C4C" x1="-475.5" y1="1906.504" x2="1086.339" y2="45.646"/>
			</g>
			<g>
				<line fill="none" stroke="#4B4C4C" x1="-481.5" y1="1906.504" x2="1080.339" y2="45.646"/>
			</g>
			<g>
				<line fill="none" stroke="#4B4C4C" x1="-487.5" y1="1906.504" x2="1074.339" y2="45.646"/>
			</g>
			<g>
				<line fill="none" stroke="#4B4C4C" x1="-493.5" y1="1906.504" x2="1068.339" y2="45.646"/>
			</g>
			<g>
				<line fill="none" stroke="#4B4C4C" x1="-499.5" y1="1906.504" x2="1062.339" y2="45.646"/>
			</g>
			<g>
				<line fill="none" stroke="#4B4C4C" x1="-505.5" y1="1906.504" x2="1056.339" y2="45.646"/>
			</g>
			<g>
				<line fill="none" stroke="#4B4C4C" x1="-511.5" y1="1906.504" x2="1050.339" y2="45.646"/>
			</g>
			<g>
				<line fill="none" stroke="#4B4C4C" x1="-517.5" y1="1906.504" x2="1044.339" y2="45.646"/>
			</g>
			<g>
				<line fill="none" stroke="#4B4C4C" x1="-523.5" y1="1906.504" x2="1038.339" y2="45.646"/>
			</g>
			<g>
				<line fill="none" stroke="#4B4C4C" x1="-529.5" y1="1906.504" x2="1032.339" y2="45.646"/>
			</g>
			<g>
				<line fill="none" stroke="#4B4C4C" x1="-535.5" y1="1906.504" x2="1026.339" y2="45.646"/>
			</g>
			<g>
				<line fill="none" stroke="#4B4C4C" x1="-541.5" y1="1906.504" x2="1020.339" y2="45.646"/>
			</g>
			<g>
				<line fill="none" stroke="#4B4C4C" x1="-547.5" y1="1906.504" x2="1014.339" y2="45.646"/>
			</g>
			<g>
				<line fill="none" stroke="#4B4C4C" x1="-553.5" y1="1906.504" x2="1008.339" y2="45.646"/>
			</g>
			<g>
				<line fill="none" stroke="#4B4C4C" x1="-559.5" y1="1906.504" x2="1002.339" y2="45.646"/>
			</g>
			<g>
				<line fill="none" stroke="#4B4C4C" x1="-565.5" y1="1906.504" x2="996.339" y2="45.646"/>
			</g>
			<g>
				<line fill="none" stroke="#4B4C4C" x1="-571.5" y1="1906.504" x2="990.339" y2="45.646"/>
			</g>
			<g>
				<line fill="none" stroke="#4B4C4C" x1="-577.5" y1="1906.504" x2="984.339" y2="45.646"/>
			</g>
			<g>
				<line fill="none" stroke="#4B4C4C" x1="-583.5" y1="1906.504" x2="978.339" y2="45.646"/>
			</g>
			<g>
				<line fill="none" stroke="#4B4C4C" x1="-589.5" y1="1906.504" x2="972.339" y2="45.646"/>
			</g>
			<g>
				<line fill="none" stroke="#4B4C4C" x1="-595.5" y1="1906.504" x2="966.339" y2="45.646"/>
			</g>
			<g>
				<line fill="none" stroke="#4B4C4C" x1="-601.5" y1="1906.504" x2="960.339" y2="45.646"/>
			</g>
			<g>
				<line fill="none" stroke="#4B4C4C" x1="-607.5" y1="1906.504" x2="954.339" y2="45.646"/>
			</g>
			<g>
				<line fill="none" stroke="#4B4C4C" x1="-613.5" y1="1906.504" x2="948.339" y2="45.646"/>
			</g>
			<g>
				<line fill="none" stroke="#4B4C4C" x1="-619.5" y1="1906.504" x2="942.339" y2="45.646"/>
			</g>
			<g>
				<line fill="none" stroke="#4B4C4C" x1="-625.5" y1="1906.504" x2="936.339" y2="45.646"/>
			</g>
			<g>
				<line fill="none" stroke="#4B4C4C" x1="-631.5" y1="1906.504" x2="930.339" y2="45.646"/>
			</g>
			<g>
				<line fill="none" stroke="#4B4C4C" x1="-637.5" y1="1906.504" x2="924.339" y2="45.646"/>
			</g>
			<g>
				<line fill="none" stroke="#4B4C4C" x1="-643.5" y1="1906.504" x2="918.339" y2="45.646"/>
			</g>
			<g>
				<line fill="none" stroke="#4B4C4C" x1="-649.5" y1="1906.504" x2="912.339" y2="45.646"/>
			</g>
			<g>
				<line fill="none" stroke="#4B4C4C" x1="-655.5" y1="1906.504" x2="906.339" y2="45.646"/>
			</g>
			<g>
				<line fill="none" stroke="#4B4C4C" x1="-661.5" y1="1906.504" x2="900.339" y2="45.646"/>
			</g>
			<g>
				<line fill="none" stroke="#4B4C4C" x1="-667.5" y1="1906.504" x2="894.339" y2="45.646"/>
			</g>
			<g>
				<line fill="none" stroke="#4B4C4C" x1="-673.5" y1="1906.504" x2="888.339" y2="45.646"/>
			</g>
			<g>
				<line fill="none" stroke="#4B4C4C" x1="-679.5" y1="1906.504" x2="882.339" y2="45.646"/>
			</g>
			<g>
				<line fill="none" stroke="#4B4C4C" x1="-685.5" y1="1906.504" x2="876.339" y2="45.646"/>
			</g>
			<g>
				<line fill="none" stroke="#4B4C4C" x1="-691.5" y1="1906.504" x2="870.339" y2="45.646"/>
			</g>
			<g>
				<line fill="none" stroke="#4B4C4C" x1="-697.5" y1="1906.504" x2="864.339" y2="45.646"/>
			</g>
			<g>
				<line fill="none" stroke="#4B4C4C" x1="-703.5" y1="1906.504" x2="858.339" y2="45.646"/>
			</g>
			<g>
				<line fill="none" stroke="#4B4C4C" x1="-709.5" y1="1906.504" x2="852.339" y2="45.646"/>
			</g>
			<g>
				<line fill="none" stroke="#4B4C4C" x1="-715.5" y1="1906.504" x2="846.339" y2="45.646"/>
			</g>
			<g>
				<line fill="none" stroke="#4B4C4C" x1="-721.5" y1="1906.504" x2="840.339" y2="45.646"/>
			</g>
			<g>
				<line fill="none" stroke="#4B4C4C" x1="-727.5" y1="1906.504" x2="834.339" y2="45.646"/>
			</g>
			<g>
				<line fill="none" stroke="#4B4C4C" x1="-733.5" y1="1906.504" x2="828.339" y2="45.646"/>
			</g>
			<g>
				<line fill="none" stroke="#4B4C4C" x1="-739.5" y1="1906.504" x2="822.339" y2="45.646"/>
			</g>
			<g>
				<line fill="none" stroke="#4B4C4C" x1="-745.5" y1="1906.504" x2="816.339" y2="45.646"/>
			</g>
			<g>
				<line fill="none" stroke="#4B4C4C" x1="-751.5" y1="1906.504" x2="810.339" y2="45.646"/>
			</g>
			<g>
				<line fill="none" stroke="#4B4C4C" x1="-757.5" y1="1906.504" x2="804.339" y2="45.646"/>
			</g>
			<g>
				<line fill="none" stroke="#4B4C4C" x1="-763.5" y1="1906.504" x2="798.339" y2="45.646"/>
			</g>
			<g>
				<line fill="none" stroke="#4B4C4C" x1="-769.5" y1="1906.504" x2="792.339" y2="45.646"/>
			</g>
			<g>
				<line fill="none" stroke="#4B4C4C" x1="-775.5" y1="1906.504" x2="786.339" y2="45.646"/>
			</g>
			<g>
				<line fill="none" stroke="#4B4C4C" x1="-781.5" y1="1906.504" x2="780.339" y2="45.646"/>
			</g>
			<g>
				<line fill="none" stroke="#4B4C4C" x1="-787.5" y1="1906.504" x2="774.339" y2="45.646"/>
			</g>
			<g>
				<line fill="none" stroke="#4B4C4C" x1="-793.5" y1="1906.504" x2="768.339" y2="45.646"/>
			</g>
			<g>
				<line fill="none" stroke="#4B4C4C" x1="-799.5" y1="1906.504" x2="762.339" y2="45.646"/>
			</g>
			<g>
				<line fill="none" stroke="#4B4C4C" x1="-805.5" y1="1906.504" x2="756.339" y2="45.646"/>
			</g>
			<g>
				<line fill="none" stroke="#4B4C4C" x1="-811.5" y1="1906.504" x2="750.339" y2="45.646"/>
			</g>
			<g>
				<line fill="none" stroke="#4B4C4C" x1="-817.5" y1="1906.504" x2="744.339" y2="45.646"/>
			</g>
			<g>
				<line fill="none" stroke="#4B4C4C" x1="-823.5" y1="1906.504" x2="738.339" y2="45.646"/>
			</g>
			<g>
				<line fill="none" stroke="#4B4C4C" x1="-829.5" y1="1906.504" x2="732.339" y2="45.646"/>
			</g>
			<g>
				<line fill="none" stroke="#4B4C4C" x1="-835.5" y1="1906.504" x2="726.339" y2="45.646"/>
			</g>
			<g>
				<line fill="none" stroke="#4B4C4C" x1="-841.5" y1="1906.504" x2="720.339" y2="45.646"/>
			</g>
			<g>
				<line fill="none" stroke="#4B4C4C" x1="-847.5" y1="1906.504" x2="714.339" y2="45.646"/>
			</g>
			<g>
				<line fill="none" stroke="#4B4C4C" x1="-853.5" y1="1906.504" x2="708.339" y2="45.646"/>
			</g>
			<g>
				<line fill="none" stroke="#4B4C4C" x1="-859.5" y1="1906.504" x2="702.339" y2="45.646"/>
			</g>
			<g>
				<line fill="none" stroke="#4B4C4C" x1="-865.5" y1="1906.504" x2="696.339" y2="45.646"/>
			</g>
			<g>
				<line fill="none" stroke="#4B4C4C" x1="-871.5" y1="1906.504" x2="690.339" y2="45.646"/>
			</g>
			<g>
				<line fill="none" stroke="#4B4C4C" x1="-877.5" y1="1906.504" x2="684.339" y2="45.646"/>
			</g>
		</g>
	</g>
</g>
<g id="front_page">
	<circle fill="none" stroke="#F2F2F2" cx="698.065" cy="1337.684" r="14.041"/>
	<circle fill="none" stroke="#F2F2F2" cx="698.065" cy="1337.684" r="8.786"/>
	<circle fill="#F2F2F2" stroke="#F2F2F2" cx="746.593" cy="1385.877" r="5.828"/>
	<circle fill="#F2F2F2" stroke="#F2F2F2" cx="734.937" cy="1345.896" r="5.828"/>
	<line fill="#F2F2F2" stroke="#F2F2F2" x1="746.593" y1="1385.877" x2="734.937" y2="1345.896"/>
	<line fill="none" stroke="#F2F2F2" stroke-dasharray="2,2" x1="698.065" y1="1337.684" x2="734.937" y2="1345.896"/>
	<g>
		<path fill-rule="evenodd" clip-rule="evenodd" fill="#F2F2F2" d="M701.15,1375.346c-1.349,1.047-3.617,1.384-4.866,0.613
			c-1.084-17.62,15.361-20.375,15.422-0.056c-0.79,0.532-3.1,0.727-4.805-0.566c1.496-2.805,3.181-6.347,1.225-9.58
			c-0.944,2.308-3.888,1.949-4.626,0.563c-0.316,1.479-3.547,1.973-3.58-0.55C698.11,1369.067,699.774,1372.815,701.15,1375.346
			L701.15,1375.346z"/>
		<path fill-rule="evenodd" clip-rule="evenodd" fill="#F2F2F2" d="M700.993,1379.237c0.221,2.832,5.413,3.092,5.792,0.042
			c4.646,0.736,9.45,3.015,9.789,7.172c-4.629,1.237-20.765,1.176-25.208,0C691.858,1382.593,695.15,1379.897,700.993,1379.237
			L700.993,1379.237z"/>
	</g>
</g>
<g id="title">
</g>
</svg>
