<?xml version="1.0" encoding="utf-8"?>
<!-- Generator: Adobe Illustrator 16.0.0, SVG Export Plug-In . SVG Version: 6.00 Build 0)  -->
<!DOCTYPE svg PUBLIC "-//W3C//DTD SVG 1.1//EN" "http://www.w3.org/Graphics/SVG/1.1/DTD/svg11.dtd">
<svg version="1.1" xmlns="http://www.w3.org/2000/svg" xmlns:xlink="http://www.w3.org/1999/xlink" x="0px" y="0px"
	 width="70.172px" height="70.174px" viewBox="501.38 1323.198 70.172 70.174"
	 enable-background="new 501.38 1323.198 70.172 70.174" xml:space="preserve">
<g id="web">
</g>
<g id="map">
</g>
<g id="Layer_10">
</g>
<g id="svg-dot" display="none">
</g>
<g id="sidebar" display="none">
</g>
<g id="collide" display="none">
</g>
<g id="lines" display="none">
</g>
<g id="users" display="none">
</g>
<g id="Layer_7" display="none">
</g>
<g id="overlay">
	<g>
		<defs>
			<rect id="SVGID_5_" x="143.594" y="124.879" width="1625.759" height="1045.957"/>
		</defs>
		<clipPath id="SVGID_2_">
			<use xlink:href="#SVGID_5_"  overflow="visible"/>
		</clipPath>
		<g opacity="0.6" clip-path="url(#SVGID_2_)">
			<g>
				<line fill="none" stroke="#4B4C4C" x1="568.5" y1="1906.504" x2="2130.339" y2="45.646"/>
			</g>
			<g>
				<line fill="none" stroke="#4B4C4C" x1="562.5" y1="1906.504" x2="2124.339" y2="45.646"/>
			</g>
			<g>
				<line fill="none" stroke="#4B4C4C" x1="556.5" y1="1906.504" x2="2118.339" y2="45.646"/>
			</g>
			<g>
				<line fill="none" stroke="#4B4C4C" x1="550.5" y1="1906.504" x2="2112.339" y2="45.646"/>
			</g>
			<g>
				<line fill="none" stroke="#4B4C4C" x1="544.5" y1="1906.504" x2="2106.339" y2="45.646"/>
			</g>
			<g>
				<line fill="none" stroke="#4B4C4C" x1="538.5" y1="1906.504" x2="2100.339" y2="45.646"/>
			</g>
			<g>
				<line fill="none" stroke="#4B4C4C" x1="532.5" y1="1906.504" x2="2094.339" y2="45.646"/>
			</g>
			<g>
				<line fill="none" stroke="#4B4C4C" x1="526.5" y1="1906.504" x2="2088.339" y2="45.646"/>
			</g>
			<g>
				<line fill="none" stroke="#4B4C4C" x1="520.5" y1="1906.504" x2="2082.339" y2="45.646"/>
			</g>
			<g>
				<line fill="none" stroke="#4B4C4C" x1="514.5" y1="1906.504" x2="2076.339" y2="45.646"/>
			</g>
			<g>
				<line fill="none" stroke="#4B4C4C" x1="508.5" y1="1906.504" x2="2070.339" y2="45.646"/>
			</g>
			<g>
				<line fill="none" stroke="#4B4C4C" x1="502.5" y1="1906.504" x2="2064.339" y2="45.646"/>
			</g>
			<g>
				<line fill="none" stroke="#4B4C4C" x1="496.5" y1="1906.504" x2="2058.339" y2="45.646"/>
			</g>
			<g>
				<line fill="none" stroke="#4B4C4C" x1="490.5" y1="1906.504" x2="2052.339" y2="45.646"/>
			</g>
			<g>
				<line fill="none" stroke="#4B4C4C" x1="484.5" y1="1906.504" x2="2046.339" y2="45.646"/>
			</g>
			<g>
				<line fill="none" stroke="#4B4C4C" x1="478.5" y1="1906.504" x2="2040.339" y2="45.646"/>
			</g>
			<g>
				<line fill="none" stroke="#4B4C4C" x1="472.5" y1="1906.504" x2="2034.339" y2="45.646"/>
			</g>
			<g>
				<line fill="none" stroke="#4B4C4C" x1="466.5" y1="1906.504" x2="2028.339" y2="45.646"/>
			</g>
			<g>
				<line fill="none" stroke="#4B4C4C" x1="460.5" y1="1906.504" x2="2022.339" y2="45.646"/>
			</g>
			<g>
				<line fill="none" stroke="#4B4C4C" x1="454.5" y1="1906.504" x2="2016.339" y2="45.646"/>
			</g>
			<g>
				<line fill="none" stroke="#4B4C4C" x1="448.5" y1="1906.504" x2="2010.339" y2="45.646"/>
			</g>
			<g>
				<line fill="none" stroke="#4B4C4C" x1="442.5" y1="1906.504" x2="2004.339" y2="45.646"/>
			</g>
			<g>
				<line fill="none" stroke="#4B4C4C" x1="436.5" y1="1906.504" x2="1998.339" y2="45.646"/>
			</g>
			<g>
				<line fill="none" stroke="#4B4C4C" x1="430.5" y1="1906.504" x2="1992.339" y2="45.646"/>
			</g>
			<g>
				<line fill="none" stroke="#4B4C4C" x1="424.5" y1="1906.504" x2="1986.339" y2="45.646"/>
			</g>
			<g>
				<line fill="none" stroke="#4B4C4C" x1="418.5" y1="1906.504" x2="1980.339" y2="45.646"/>
			</g>
			<g>
				<line fill="none" stroke="#4B4C4C" x1="412.5" y1="1906.504" x2="1974.339" y2="45.646"/>
			</g>
			<g>
				<line fill="none" stroke="#4B4C4C" x1="406.5" y1="1906.504" x2="1968.339" y2="45.646"/>
			</g>
			<g>
				<line fill="none" stroke="#4B4C4C" x1="400.5" y1="1906.504" x2="1962.339" y2="45.646"/>
			</g>
			<g>
				<line fill="none" stroke="#4B4C4C" x1="394.5" y1="1906.504" x2="1956.339" y2="45.646"/>
			</g>
			<g>
				<line fill="none" stroke="#4B4C4C" x1="388.5" y1="1906.504" x2="1950.339" y2="45.646"/>
			</g>
			<g>
				<line fill="none" stroke="#4B4C4C" x1="382.5" y1="1906.504" x2="1944.339" y2="45.646"/>
			</g>
			<g>
				<line fill="none" stroke="#4B4C4C" x1="376.5" y1="1906.504" x2="1938.339" y2="45.646"/>
			</g>
			<g>
				<line fill="none" stroke="#4B4C4C" x1="370.5" y1="1906.504" x2="1932.339" y2="45.646"/>
			</g>
			<g>
				<line fill="none" stroke="#4B4C4C" x1="364.5" y1="1906.504" x2="1926.339" y2="45.646"/>
			</g>
			<g>
				<line fill="none" stroke="#4B4C4C" x1="358.5" y1="1906.504" x2="1920.339" y2="45.646"/>
			</g>
			<g>
				<line fill="none" stroke="#4B4C4C" x1="352.5" y1="1906.504" x2="1914.339" y2="45.646"/>
			</g>
			<g>
				<line fill="none" stroke="#4B4C4C" x1="346.5" y1="1906.504" x2="1908.339" y2="45.646"/>
			</g>
			<g>
				<line fill="none" stroke="#4B4C4C" x1="340.5" y1="1906.504" x2="1902.339" y2="45.646"/>
			</g>
			<g>
				<line fill="none" stroke="#4B4C4C" x1="334.5" y1="1906.504" x2="1896.339" y2="45.646"/>
			</g>
			<g>
				<line fill="none" stroke="#4B4C4C" x1="328.5" y1="1906.504" x2="1890.339" y2="45.646"/>
			</g>
			<g>
				<line fill="none" stroke="#4B4C4C" x1="322.5" y1="1906.504" x2="1884.339" y2="45.646"/>
			</g>
			<g>
				<line fill="none" stroke="#4B4C4C" x1="316.5" y1="1906.504" x2="1878.339" y2="45.646"/>
			</g>
			<g>
				<line fill="none" stroke="#4B4C4C" x1="310.5" y1="1906.504" x2="1872.339" y2="45.646"/>
			</g>
			<g>
				<line fill="none" stroke="#4B4C4C" x1="304.5" y1="1906.504" x2="1866.339" y2="45.646"/>
			</g>
			<g>
				<line fill="none" stroke="#4B4C4C" x1="298.5" y1="1906.504" x2="1860.339" y2="45.646"/>
			</g>
			<g>
				<line fill="none" stroke="#4B4C4C" x1="292.5" y1="1906.504" x2="1854.339" y2="45.646"/>
			</g>
			<g>
				<line fill="none" stroke="#4B4C4C" x1="286.5" y1="1906.504" x2="1848.339" y2="45.646"/>
			</g>
			<g>
				<line fill="none" stroke="#4B4C4C" x1="280.5" y1="1906.504" x2="1842.339" y2="45.646"/>
			</g>
			<g>
				<line fill="none" stroke="#4B4C4C" x1="274.5" y1="1906.504" x2="1836.339" y2="45.646"/>
			</g>
			<g>
				<line fill="none" stroke="#4B4C4C" x1="268.5" y1="1906.504" x2="1830.339" y2="45.646"/>
			</g>
			<g>
				<line fill="none" stroke="#4B4C4C" x1="262.5" y1="1906.504" x2="1824.339" y2="45.646"/>
			</g>
			<g>
				<line fill="none" stroke="#4B4C4C" x1="256.5" y1="1906.504" x2="1818.339" y2="45.646"/>
			</g>
			<g>
				<line fill="none" stroke="#4B4C4C" x1="250.5" y1="1906.504" x2="1812.339" y2="45.646"/>
			</g>
			<g>
				<line fill="none" stroke="#4B4C4C" x1="244.5" y1="1906.504" x2="1806.339" y2="45.646"/>
			</g>
			<g>
				<line fill="none" stroke="#4B4C4C" x1="238.5" y1="1906.504" x2="1800.339" y2="45.646"/>
			</g>
			<g>
				<line fill="none" stroke="#4B4C4C" x1="232.5" y1="1906.504" x2="1794.339" y2="45.646"/>
			</g>
			<g>
				<line fill="none" stroke="#4B4C4C" x1="226.5" y1="1906.504" x2="1788.339" y2="45.646"/>
			</g>
			<g>
				<line fill="none" stroke="#4B4C4C" x1="220.5" y1="1906.504" x2="1782.339" y2="45.646"/>
			</g>
			<g>
				<line fill="none" stroke="#4B4C4C" x1="214.5" y1="1906.504" x2="1776.339" y2="45.646"/>
			</g>
			<g>
				<line fill="none" stroke="#4B4C4C" x1="208.5" y1="1906.504" x2="1770.339" y2="45.646"/>
			</g>
			<g>
				<line fill="none" stroke="#4B4C4C" x1="202.5" y1="1906.504" x2="1764.339" y2="45.646"/>
			</g>
			<g>
				<line fill="none" stroke="#4B4C4C" x1="196.5" y1="1906.504" x2="1758.339" y2="45.646"/>
			</g>
			<g>
				<line fill="none" stroke="#4B4C4C" x1="190.5" y1="1906.504" x2="1752.339" y2="45.646"/>
			</g>
			<g>
				<line fill="none" stroke="#4B4C4C" x1="184.5" y1="1906.504" x2="1746.339" y2="45.646"/>
			</g>
			<g>
				<line fill="none" stroke="#4B4C4C" x1="178.5" y1="1906.504" x2="1740.339" y2="45.646"/>
			</g>
			<g>
				<line fill="none" stroke="#4B4C4C" x1="172.5" y1="1906.504" x2="1734.339" y2="45.646"/>
			</g>
			<g>
				<line fill="none" stroke="#4B4C4C" x1="166.5" y1="1906.504" x2="1728.339" y2="45.646"/>
			</g>
			<g>
				<line fill="none" stroke="#4B4C4C" x1="160.5" y1="1906.504" x2="1722.339" y2="45.646"/>
			</g>
			<g>
				<line fill="none" stroke="#4B4C4C" x1="154.5" y1="1906.504" x2="1716.339" y2="45.646"/>
			</g>
			<g>
				<line fill="none" stroke="#4B4C4C" x1="148.5" y1="1906.504" x2="1710.339" y2="45.646"/>
			</g>
			<g>
				<line fill="none" stroke="#4B4C4C" x1="142.5" y1="1906.504" x2="1704.339" y2="45.646"/>
			</g>
			<g>
				<line fill="none" stroke="#4B4C4C" x1="136.5" y1="1906.504" x2="1698.339" y2="45.646"/>
			</g>
			<g>
				<line fill="none" stroke="#4B4C4C" x1="130.5" y1="1906.504" x2="1692.339" y2="45.646"/>
			</g>
			<g>
				<line fill="none" stroke="#4B4C4C" x1="124.5" y1="1906.504" x2="1686.339" y2="45.646"/>
			</g>
			<g>
				<line fill="none" stroke="#4B4C4C" x1="118.5" y1="1906.504" x2="1680.339" y2="45.646"/>
			</g>
			<g>
				<line fill="none" stroke="#4B4C4C" x1="112.5" y1="1906.504" x2="1674.339" y2="45.646"/>
			</g>
			<g>
				<line fill="none" stroke="#4B4C4C" x1="106.5" y1="1906.504" x2="1668.339" y2="45.646"/>
			</g>
			<g>
				<line fill="none" stroke="#4B4C4C" x1="100.5" y1="1906.504" x2="1662.339" y2="45.646"/>
			</g>
			<g>
				<line fill="none" stroke="#4B4C4C" x1="94.5" y1="1906.504" x2="1656.339" y2="45.646"/>
			</g>
			<g>
				<line fill="none" stroke="#4B4C4C" x1="88.5" y1="1906.504" x2="1650.339" y2="45.646"/>
			</g>
			<g>
				<line fill="none" stroke="#4B4C4C" x1="82.5" y1="1906.504" x2="1644.339" y2="45.646"/>
			</g>
			<g>
				<line fill="none" stroke="#4B4C4C" x1="76.5" y1="1906.504" x2="1638.339" y2="45.646"/>
			</g>
			<g>
				<line fill="none" stroke="#4B4C4C" x1="70.5" y1="1906.504" x2="1632.339" y2="45.646"/>
			</g>
			<g>
				<line fill="none" stroke="#4B4C4C" x1="64.5" y1="1906.504" x2="1626.339" y2="45.646"/>
			</g>
			<g>
				<line fill="none" stroke="#4B4C4C" x1="58.5" y1="1906.504" x2="1620.339" y2="45.646"/>
			</g>
			<g>
				<line fill="none" stroke="#4B4C4C" x1="52.5" y1="1906.504" x2="1614.339" y2="45.646"/>
			</g>
			<g>
				<line fill="none" stroke="#4B4C4C" x1="46.5" y1="1906.504" x2="1608.339" y2="45.646"/>
			</g>
			<g>
				<line fill="none" stroke="#4B4C4C" x1="40.5" y1="1906.504" x2="1602.339" y2="45.646"/>
			</g>
			<g>
				<line fill="none" stroke="#4B4C4C" x1="34.5" y1="1906.504" x2="1596.339" y2="45.646"/>
			</g>
			<g>
				<line fill="none" stroke="#4B4C4C" x1="28.5" y1="1906.504" x2="1590.339" y2="45.646"/>
			</g>
			<g>
				<line fill="none" stroke="#4B4C4C" x1="22.5" y1="1906.504" x2="1584.339" y2="45.646"/>
			</g>
			<g>
				<line fill="none" stroke="#4B4C4C" x1="16.5" y1="1906.504" x2="1578.339" y2="45.646"/>
			</g>
			<g>
				<line fill="none" stroke="#4B4C4C" x1="10.5" y1="1906.504" x2="1572.339" y2="45.646"/>
			</g>
			<g>
				<line fill="none" stroke="#4B4C4C" x1="4.5" y1="1906.504" x2="1566.339" y2="45.646"/>
			</g>
			<g>
				<line fill="none" stroke="#4B4C4C" x1="-1.5" y1="1906.504" x2="1560.339" y2="45.646"/>
			</g>
			<g>
				<line fill="none" stroke="#4B4C4C" x1="-7.5" y1="1906.504" x2="1554.339" y2="45.646"/>
			</g>
			<g>
				<line fill="none" stroke="#4B4C4C" x1="-13.5" y1="1906.504" x2="1548.339" y2="45.646"/>
			</g>
			<g>
				<line fill="none" stroke="#4B4C4C" x1="-19.5" y1="1906.504" x2="1542.339" y2="45.646"/>
			</g>
			<g>
				<line fill="none" stroke="#4B4C4C" x1="-25.5" y1="1906.504" x2="1536.339" y2="45.646"/>
			</g>
			<g>
				<line fill="none" stroke="#4B4C4C" x1="-31.5" y1="1906.504" x2="1530.339" y2="45.646"/>
			</g>
			<g>
				<line fill="none" stroke="#4B4C4C" x1="-37.5" y1="1906.504" x2="1524.339" y2="45.646"/>
			</g>
			<g>
				<line fill="none" stroke="#4B4C4C" x1="-43.5" y1="1906.504" x2="1518.339" y2="45.646"/>
			</g>
			<g>
				<line fill="none" stroke="#4B4C4C" x1="-49.5" y1="1906.504" x2="1512.339" y2="45.646"/>
			</g>
			<g>
				<line fill="none" stroke="#4B4C4C" x1="-55.5" y1="1906.504" x2="1506.339" y2="45.646"/>
			</g>
			<g>
				<line fill="none" stroke="#4B4C4C" x1="-61.5" y1="1906.504" x2="1500.339" y2="45.646"/>
			</g>
			<g>
				<line fill="none" stroke="#4B4C4C" x1="-67.5" y1="1906.504" x2="1494.339" y2="45.646"/>
			</g>
			<g>
				<line fill="none" stroke="#4B4C4C" x1="-73.5" y1="1906.504" x2="1488.339" y2="45.646"/>
			</g>
			<g>
				<line fill="none" stroke="#4B4C4C" x1="-79.5" y1="1906.504" x2="1482.339" y2="45.646"/>
			</g>
			<g>
				<line fill="none" stroke="#4B4C4C" x1="-85.5" y1="1906.504" x2="1476.339" y2="45.646"/>
			</g>
			<g>
				<line fill="none" stroke="#4B4C4C" x1="-91.5" y1="1906.504" x2="1470.339" y2="45.646"/>
			</g>
			<g>
				<line fill="none" stroke="#4B4C4C" x1="-97.5" y1="1906.504" x2="1464.339" y2="45.646"/>
			</g>
			<g>
				<line fill="none" stroke="#4B4C4C" x1="-103.5" y1="1906.504" x2="1458.339" y2="45.646"/>
			</g>
			<g>
				<line fill="none" stroke="#4B4C4C" x1="-109.5" y1="1906.504" x2="1452.339" y2="45.646"/>
			</g>
			<g>
				<line fill="none" stroke="#4B4C4C" x1="-115.5" y1="1906.504" x2="1446.339" y2="45.646"/>
			</g>
			<g>
				<line fill="none" stroke="#4B4C4C" x1="-121.5" y1="1906.504" x2="1440.339" y2="45.646"/>
			</g>
			<g>
				<line fill="none" stroke="#4B4C4C" x1="-127.5" y1="1906.504" x2="1434.339" y2="45.646"/>
			</g>
			<g>
				<line fill="none" stroke="#4B4C4C" x1="-133.5" y1="1906.504" x2="1428.339" y2="45.646"/>
			</g>
			<g>
				<line fill="none" stroke="#4B4C4C" x1="-139.5" y1="1906.504" x2="1422.339" y2="45.646"/>
			</g>
			<g>
				<line fill="none" stroke="#4B4C4C" x1="-145.5" y1="1906.504" x2="1416.339" y2="45.646"/>
			</g>
			<g>
				<line fill="none" stroke="#4B4C4C" x1="-151.5" y1="1906.504" x2="1410.339" y2="45.646"/>
			</g>
			<g>
				<line fill="none" stroke="#4B4C4C" x1="-157.5" y1="1906.504" x2="1404.339" y2="45.646"/>
			</g>
			<g>
				<line fill="none" stroke="#4B4C4C" x1="-163.5" y1="1906.504" x2="1398.339" y2="45.646"/>
			</g>
			<g>
				<line fill="none" stroke="#4B4C4C" x1="-169.5" y1="1906.504" x2="1392.339" y2="45.646"/>
			</g>
			<g>
				<line fill="none" stroke="#4B4C4C" x1="-175.5" y1="1906.504" x2="1386.339" y2="45.646"/>
			</g>
			<g>
				<line fill="none" stroke="#4B4C4C" x1="-181.5" y1="1906.504" x2="1380.339" y2="45.646"/>
			</g>
			<g>
				<line fill="none" stroke="#4B4C4C" x1="-187.5" y1="1906.504" x2="1374.339" y2="45.646"/>
			</g>
			<g>
				<line fill="none" stroke="#4B4C4C" x1="-193.5" y1="1906.504" x2="1368.339" y2="45.646"/>
			</g>
			<g>
				<line fill="none" stroke="#4B4C4C" x1="-199.5" y1="1906.504" x2="1362.339" y2="45.646"/>
			</g>
			<g>
				<line fill="none" stroke="#4B4C4C" x1="-205.5" y1="1906.504" x2="1356.339" y2="45.646"/>
			</g>
			<g>
				<line fill="none" stroke="#4B4C4C" x1="-211.5" y1="1906.504" x2="1350.339" y2="45.646"/>
			</g>
			<g>
				<line fill="none" stroke="#4B4C4C" x1="-217.5" y1="1906.504" x2="1344.339" y2="45.646"/>
			</g>
			<g>
				<line fill="none" stroke="#4B4C4C" x1="-223.5" y1="1906.504" x2="1338.339" y2="45.646"/>
			</g>
			<g>
				<line fill="none" stroke="#4B4C4C" x1="-229.5" y1="1906.504" x2="1332.339" y2="45.646"/>
			</g>
			<g>
				<line fill="none" stroke="#4B4C4C" x1="-235.5" y1="1906.504" x2="1326.339" y2="45.646"/>
			</g>
			<g>
				<line fill="none" stroke="#4B4C4C" x1="-241.5" y1="1906.504" x2="1320.339" y2="45.646"/>
			</g>
			<g>
				<line fill="none" stroke="#4B4C4C" x1="-247.5" y1="1906.504" x2="1314.339" y2="45.646"/>
			</g>
			<g>
				<line fill="none" stroke="#4B4C4C" x1="-253.5" y1="1906.504" x2="1308.339" y2="45.646"/>
			</g>
			<g>
				<line fill="none" stroke="#4B4C4C" x1="-259.5" y1="1906.504" x2="1302.339" y2="45.646"/>
			</g>
			<g>
				<line fill="none" stroke="#4B4C4C" x1="-265.5" y1="1906.504" x2="1296.339" y2="45.646"/>
			</g>
			<g>
				<line fill="none" stroke="#4B4C4C" x1="-271.5" y1="1906.504" x2="1290.339" y2="45.646"/>
			</g>
			<g>
				<line fill="none" stroke="#4B4C4C" x1="-277.5" y1="1906.504" x2="1284.339" y2="45.646"/>
			</g>
			<g>
				<line fill="none" stroke="#4B4C4C" x1="-283.5" y1="1906.504" x2="1278.339" y2="45.646"/>
			</g>
			<g>
				<line fill="none" stroke="#4B4C4C" x1="-289.5" y1="1906.504" x2="1272.339" y2="45.646"/>
			</g>
			<g>
				<line fill="none" stroke="#4B4C4C" x1="-295.5" y1="1906.504" x2="1266.339" y2="45.646"/>
			</g>
			<g>
				<line fill="none" stroke="#4B4C4C" x1="-301.5" y1="1906.504" x2="1260.339" y2="45.646"/>
			</g>
			<g>
				<line fill="none" stroke="#4B4C4C" x1="-307.5" y1="1906.504" x2="1254.339" y2="45.646"/>
			</g>
			<g>
				<line fill="none" stroke="#4B4C4C" x1="-313.5" y1="1906.504" x2="1248.339" y2="45.646"/>
			</g>
			<g>
				<line fill="none" stroke="#4B4C4C" x1="-319.5" y1="1906.504" x2="1242.339" y2="45.646"/>
			</g>
			<g>
				<line fill="none" stroke="#4B4C4C" x1="-325.5" y1="1906.504" x2="1236.339" y2="45.646"/>
			</g>
			<g>
				<line fill="none" stroke="#4B4C4C" x1="-331.5" y1="1906.504" x2="1230.339" y2="45.646"/>
			</g>
			<g>
				<line fill="none" stroke="#4B4C4C" x1="-337.5" y1="1906.504" x2="1224.339" y2="45.646"/>
			</g>
			<g>
				<line fill="none" stroke="#4B4C4C" x1="-343.5" y1="1906.504" x2="1218.339" y2="45.646"/>
			</g>
			<g>
				<line fill="none" stroke="#4B4C4C" x1="-349.5" y1="1906.504" x2="1212.339" y2="45.646"/>
			</g>
			<g>
				<line fill="none" stroke="#4B4C4C" x1="-355.5" y1="1906.504" x2="1206.339" y2="45.646"/>
			</g>
			<g>
				<line fill="none" stroke="#4B4C4C" x1="-361.5" y1="1906.504" x2="1200.339" y2="45.646"/>
			</g>
			<g>
				<line fill="none" stroke="#4B4C4C" x1="-367.5" y1="1906.504" x2="1194.339" y2="45.646"/>
			</g>
			<g>
				<line fill="none" stroke="#4B4C4C" x1="-373.5" y1="1906.504" x2="1188.339" y2="45.646"/>
			</g>
			<g>
				<line fill="none" stroke="#4B4C4C" x1="-379.5" y1="1906.504" x2="1182.339" y2="45.646"/>
			</g>
			<g>
				<line fill="none" stroke="#4B4C4C" x1="-385.5" y1="1906.504" x2="1176.339" y2="45.646"/>
			</g>
			<g>
				<line fill="none" stroke="#4B4C4C" x1="-391.5" y1="1906.504" x2="1170.339" y2="45.646"/>
			</g>
			<g>
				<line fill="none" stroke="#4B4C4C" x1="-397.5" y1="1906.504" x2="1164.339" y2="45.646"/>
			</g>
			<g>
				<line fill="none" stroke="#4B4C4C" x1="-403.5" y1="1906.504" x2="1158.339" y2="45.646"/>
			</g>
			<g>
				<line fill="none" stroke="#4B4C4C" x1="-409.5" y1="1906.504" x2="1152.339" y2="45.646"/>
			</g>
			<g>
				<line fill="none" stroke="#4B4C4C" x1="-415.5" y1="1906.504" x2="1146.339" y2="45.646"/>
			</g>
			<g>
				<line fill="none" stroke="#4B4C4C" x1="-421.5" y1="1906.504" x2="1140.339" y2="45.646"/>
			</g>
			<g>
				<line fill="none" stroke="#4B4C4C" x1="-427.5" y1="1906.504" x2="1134.339" y2="45.646"/>
			</g>
			<g>
				<line fill="none" stroke="#4B4C4C" x1="-433.5" y1="1906.504" x2="1128.339" y2="45.646"/>
			</g>
			<g>
				<line fill="none" stroke="#4B4C4C" x1="-439.5" y1="1906.504" x2="1122.339" y2="45.646"/>
			</g>
			<g>
				<line fill="none" stroke="#4B4C4C" x1="-445.5" y1="1906.504" x2="1116.339" y2="45.646"/>
			</g>
			<g>
				<line fill="none" stroke="#4B4C4C" x1="-451.5" y1="1906.504" x2="1110.339" y2="45.646"/>
			</g>
			<g>
				<line fill="none" stroke="#4B4C4C" x1="-457.5" y1="1906.504" x2="1104.339" y2="45.646"/>
			</g>
			<g>
				<line fill="none" stroke="#4B4C4C" x1="-463.5" y1="1906.504" x2="1098.339" y2="45.646"/>
			</g>
			<g>
				<line fill="none" stroke="#4B4C4C" x1="-469.5" y1="1906.504" x2="1092.339" y2="45.646"/>
			</g>
			<g>
				<line fill="none" stroke="#4B4C4C" x1="-475.5" y1="1906.504" x2="1086.339" y2="45.646"/>
			</g>
			<g>
				<line fill="none" stroke="#4B4C4C" x1="-481.5" y1="1906.504" x2="1080.339" y2="45.646"/>
			</g>
			<g>
				<line fill="none" stroke="#4B4C4C" x1="-487.5" y1="1906.504" x2="1074.339" y2="45.646"/>
			</g>
			<g>
				<line fill="none" stroke="#4B4C4C" x1="-493.5" y1="1906.504" x2="1068.339" y2="45.646"/>
			</g>
			<g>
				<line fill="none" stroke="#4B4C4C" x1="-499.5" y1="1906.504" x2="1062.339" y2="45.646"/>
			</g>
			<g>
				<line fill="none" stroke="#4B4C4C" x1="-505.5" y1="1906.504" x2="1056.339" y2="45.646"/>
			</g>
			<g>
				<line fill="none" stroke="#4B4C4C" x1="-511.5" y1="1906.504" x2="1050.339" y2="45.646"/>
			</g>
			<g>
				<line fill="none" stroke="#4B4C4C" x1="-517.5" y1="1906.504" x2="1044.339" y2="45.646"/>
			</g>
			<g>
				<line fill="none" stroke="#4B4C4C" x1="-523.5" y1="1906.504" x2="1038.339" y2="45.646"/>
			</g>
			<g>
				<line fill="none" stroke="#4B4C4C" x1="-529.5" y1="1906.504" x2="1032.339" y2="45.646"/>
			</g>
			<g>
				<line fill="none" stroke="#4B4C4C" x1="-535.5" y1="1906.504" x2="1026.339" y2="45.646"/>
			</g>
			<g>
				<line fill="none" stroke="#4B4C4C" x1="-541.5" y1="1906.504" x2="1020.339" y2="45.646"/>
			</g>
			<g>
				<line fill="none" stroke="#4B4C4C" x1="-547.5" y1="1906.504" x2="1014.339" y2="45.646"/>
			</g>
			<g>
				<line fill="none" stroke="#4B4C4C" x1="-553.5" y1="1906.504" x2="1008.339" y2="45.646"/>
			</g>
			<g>
				<line fill="none" stroke="#4B4C4C" x1="-559.5" y1="1906.504" x2="1002.339" y2="45.646"/>
			</g>
			<g>
				<line fill="none" stroke="#4B4C4C" x1="-565.5" y1="1906.504" x2="996.339" y2="45.646"/>
			</g>
			<g>
				<line fill="none" stroke="#4B4C4C" x1="-571.5" y1="1906.504" x2="990.339" y2="45.646"/>
			</g>
			<g>
				<line fill="none" stroke="#4B4C4C" x1="-577.5" y1="1906.504" x2="984.339" y2="45.646"/>
			</g>
			<g>
				<line fill="none" stroke="#4B4C4C" x1="-583.5" y1="1906.504" x2="978.339" y2="45.646"/>
			</g>
			<g>
				<line fill="none" stroke="#4B4C4C" x1="-589.5" y1="1906.504" x2="972.339" y2="45.646"/>
			</g>
			<g>
				<line fill="none" stroke="#4B4C4C" x1="-595.5" y1="1906.504" x2="966.339" y2="45.646"/>
			</g>
			<g>
				<line fill="none" stroke="#4B4C4C" x1="-601.5" y1="1906.504" x2="960.339" y2="45.646"/>
			</g>
			<g>
				<line fill="none" stroke="#4B4C4C" x1="-607.5" y1="1906.504" x2="954.339" y2="45.646"/>
			</g>
			<g>
				<line fill="none" stroke="#4B4C4C" x1="-613.5" y1="1906.504" x2="948.339" y2="45.646"/>
			</g>
			<g>
				<line fill="none" stroke="#4B4C4C" x1="-619.5" y1="1906.504" x2="942.339" y2="45.646"/>
			</g>
			<g>
				<line fill="none" stroke="#4B4C4C" x1="-625.5" y1="1906.504" x2="936.339" y2="45.646"/>
			</g>
			<g>
				<line fill="none" stroke="#4B4C4C" x1="-631.5" y1="1906.504" x2="930.339" y2="45.646"/>
			</g>
			<g>
				<line fill="none" stroke="#4B4C4C" x1="-637.5" y1="1906.504" x2="924.339" y2="45.646"/>
			</g>
			<g>
				<line fill="none" stroke="#4B4C4C" x1="-643.5" y1="1906.504" x2="918.339" y2="45.646"/>
			</g>
			<g>
				<line fill="none" stroke="#4B4C4C" x1="-649.5" y1="1906.504" x2="912.339" y2="45.646"/>
			</g>
			<g>
				<line fill="none" stroke="#4B4C4C" x1="-655.5" y1="1906.504" x2="906.339" y2="45.646"/>
			</g>
			<g>
				<line fill="none" stroke="#4B4C4C" x1="-661.5" y1="1906.504" x2="900.339" y2="45.646"/>
			</g>
			<g>
				<line fill="none" stroke="#4B4C4C" x1="-667.5" y1="1906.504" x2="894.339" y2="45.646"/>
			</g>
			<g>
				<line fill="none" stroke="#4B4C4C" x1="-673.5" y1="1906.504" x2="888.339" y2="45.646"/>
			</g>
			<g>
				<line fill="none" stroke="#4B4C4C" x1="-679.5" y1="1906.504" x2="882.339" y2="45.646"/>
			</g>
			<g>
				<line fill="none" stroke="#4B4C4C" x1="-685.5" y1="1906.504" x2="876.339" y2="45.646"/>
			</g>
			<g>
				<line fill="none" stroke="#4B4C4C" x1="-691.5" y1="1906.504" x2="870.339" y2="45.646"/>
			</g>
			<g>
				<line fill="none" stroke="#4B4C4C" x1="-697.5" y1="1906.504" x2="864.339" y2="45.646"/>
			</g>
			<g>
				<line fill="none" stroke="#4B4C4C" x1="-703.5" y1="1906.504" x2="858.339" y2="45.646"/>
			</g>
			<g>
				<line fill="none" stroke="#4B4C4C" x1="-709.5" y1="1906.504" x2="852.339" y2="45.646"/>
			</g>
			<g>
				<line fill="none" stroke="#4B4C4C" x1="-715.5" y1="1906.504" x2="846.339" y2="45.646"/>
			</g>
			<g>
				<line fill="none" stroke="#4B4C4C" x1="-721.5" y1="1906.504" x2="840.339" y2="45.646"/>
			</g>
			<g>
				<line fill="none" stroke="#4B4C4C" x1="-727.5" y1="1906.504" x2="834.339" y2="45.646"/>
			</g>
			<g>
				<line fill="none" stroke="#4B4C4C" x1="-733.5" y1="1906.504" x2="828.339" y2="45.646"/>
			</g>
			<g>
				<line fill="none" stroke="#4B4C4C" x1="-739.5" y1="1906.504" x2="822.339" y2="45.646"/>
			</g>
			<g>
				<line fill="none" stroke="#4B4C4C" x1="-745.5" y1="1906.504" x2="816.339" y2="45.646"/>
			</g>
			<g>
				<line fill="none" stroke="#4B4C4C" x1="-751.5" y1="1906.504" x2="810.339" y2="45.646"/>
			</g>
			<g>
				<line fill="none" stroke="#4B4C4C" x1="-757.5" y1="1906.504" x2="804.339" y2="45.646"/>
			</g>
			<g>
				<line fill="none" stroke="#4B4C4C" x1="-763.5" y1="1906.504" x2="798.339" y2="45.646"/>
			</g>
			<g>
				<line fill="none" stroke="#4B4C4C" x1="-769.5" y1="1906.504" x2="792.339" y2="45.646"/>
			</g>
			<g>
				<line fill="none" stroke="#4B4C4C" x1="-775.5" y1="1906.504" x2="786.339" y2="45.646"/>
			</g>
			<g>
				<line fill="none" stroke="#4B4C4C" x1="-781.5" y1="1906.504" x2="780.339" y2="45.646"/>
			</g>
			<g>
				<line fill="none" stroke="#4B4C4C" x1="-787.5" y1="1906.504" x2="774.339" y2="45.646"/>
			</g>
			<g>
				<line fill="none" stroke="#4B4C4C" x1="-793.5" y1="1906.504" x2="768.339" y2="45.646"/>
			</g>
			<g>
				<line fill="none" stroke="#4B4C4C" x1="-799.5" y1="1906.504" x2="762.339" y2="45.646"/>
			</g>
			<g>
				<line fill="none" stroke="#4B4C4C" x1="-805.5" y1="1906.504" x2="756.339" y2="45.646"/>
			</g>
			<g>
				<line fill="none" stroke="#4B4C4C" x1="-811.5" y1="1906.504" x2="750.339" y2="45.646"/>
			</g>
			<g>
				<line fill="none" stroke="#4B4C4C" x1="-817.5" y1="1906.504" x2="744.339" y2="45.646"/>
			</g>
			<g>
				<line fill="none" stroke="#4B4C4C" x1="-823.5" y1="1906.504" x2="738.339" y2="45.646"/>
			</g>
			<g>
				<line fill="none" stroke="#4B4C4C" x1="-829.5" y1="1906.504" x2="732.339" y2="45.646"/>
			</g>
			<g>
				<line fill="none" stroke="#4B4C4C" x1="-835.5" y1="1906.504" x2="726.339" y2="45.646"/>
			</g>
			<g>
				<line fill="none" stroke="#4B4C4C" x1="-841.5" y1="1906.504" x2="720.339" y2="45.646"/>
			</g>
			<g>
				<line fill="none" stroke="#4B4C4C" x1="-847.5" y1="1906.504" x2="714.339" y2="45.646"/>
			</g>
			<g>
				<line fill="none" stroke="#4B4C4C" x1="-853.5" y1="1906.504" x2="708.339" y2="45.646"/>
			</g>
			<g>
				<line fill="none" stroke="#4B4C4C" x1="-859.5" y1="1906.504" x2="702.339" y2="45.646"/>
			</g>
			<g>
				<line fill="none" stroke="#4B4C4C" x1="-865.5" y1="1906.504" x2="696.339" y2="45.646"/>
			</g>
			<g>
				<line fill="none" stroke="#4B4C4C" x1="-871.5" y1="1906.504" x2="690.339" y2="45.646"/>
			</g>
			<g>
				<line fill="none" stroke="#4B4C4C" x1="-877.5" y1="1906.504" x2="684.339" y2="45.646"/>
			</g>
			<g>
				<line fill="none" stroke="#4B4C4C" x1="-883.5" y1="1906.504" x2="678.339" y2="45.646"/>
			</g>
			<g>
				<line fill="none" stroke="#4B4C4C" x1="-889.5" y1="1906.504" x2="672.339" y2="45.646"/>
			</g>
			<g>
				<line fill="none" stroke="#4B4C4C" x1="-895.5" y1="1906.504" x2="666.339" y2="45.646"/>
			</g>
			<g>
				<line fill="none" stroke="#4B4C4C" x1="-901.5" y1="1906.504" x2="660.339" y2="45.646"/>
			</g>
			<g>
				<line fill="none" stroke="#4B4C4C" x1="-907.5" y1="1906.504" x2="654.339" y2="45.646"/>
			</g>
			<g>
				<line fill="none" stroke="#4B4C4C" x1="-913.5" y1="1906.504" x2="648.339" y2="45.646"/>
			</g>
			<g>
				<line fill="none" stroke="#4B4C4C" x1="-919.5" y1="1906.504" x2="642.339" y2="45.646"/>
			</g>
			<g>
				<line fill="none" stroke="#4B4C4C" x1="-925.5" y1="1906.504" x2="636.339" y2="45.646"/>
			</g>
			<g>
				<line fill="none" stroke="#4B4C4C" x1="-931.5" y1="1906.504" x2="630.339" y2="45.646"/>
			</g>
			<g>
				<line fill="none" stroke="#4B4C4C" x1="-937.5" y1="1906.504" x2="624.339" y2="45.646"/>
			</g>
			<g>
				<line fill="none" stroke="#4B4C4C" x1="-943.5" y1="1906.504" x2="618.339" y2="45.646"/>
			</g>
			<g>
				<line fill="none" stroke="#4B4C4C" x1="-949.5" y1="1906.504" x2="612.339" y2="45.646"/>
			</g>
			<g>
				<line fill="none" stroke="#4B4C4C" x1="-955.5" y1="1906.504" x2="606.339" y2="45.646"/>
			</g>
			<g>
				<line fill="none" stroke="#4B4C4C" x1="-961.5" y1="1906.504" x2="600.339" y2="45.646"/>
			</g>
			<g>
				<line fill="none" stroke="#4B4C4C" x1="-967.5" y1="1906.504" x2="594.339" y2="45.646"/>
			</g>
			<g>
				<line fill="none" stroke="#4B4C4C" x1="-973.5" y1="1906.504" x2="588.339" y2="45.646"/>
			</g>
			<g>
				<line fill="none" stroke="#4B4C4C" x1="-979.5" y1="1906.504" x2="582.339" y2="45.646"/>
			</g>
			<g>
				<line fill="none" stroke="#4B4C4C" x1="-985.5" y1="1906.504" x2="576.339" y2="45.646"/>
			</g>
			<g>
				<line fill="none" stroke="#4B4C4C" x1="-991.5" y1="1906.504" x2="570.339" y2="45.646"/>
			</g>
			<g>
				<line fill="none" stroke="#4B4C4C" x1="-997.5" y1="1906.504" x2="564.339" y2="45.646"/>
			</g>
			<g>
				<line fill="none" stroke="#4B4C4C" x1="-1003.5" y1="1906.504" x2="558.339" y2="45.646"/>
			</g>
			<g>
				<line fill="none" stroke="#4B4C4C" x1="-1009.5" y1="1906.504" x2="552.339" y2="45.646"/>
			</g>
			<g>
				<line fill="none" stroke="#4B4C4C" x1="-1015.5" y1="1906.504" x2="546.339" y2="45.646"/>
			</g>
			<g>
				<line fill="none" stroke="#4B4C4C" x1="-1021.5" y1="1906.504" x2="540.339" y2="45.646"/>
			</g>
			<g>
				<line fill="none" stroke="#4B4C4C" x1="-1027.5" y1="1906.504" x2="534.339" y2="45.646"/>
			</g>
			<g>
				<line fill="none" stroke="#4B4C4C" x1="-1033.5" y1="1906.504" x2="528.339" y2="45.646"/>
			</g>
			<g>
				<line fill="none" stroke="#4B4C4C" x1="-1039.5" y1="1906.504" x2="522.339" y2="45.646"/>
			</g>
			<g>
				<line fill="none" stroke="#4B4C4C" x1="-1045.5" y1="1906.504" x2="516.339" y2="45.646"/>
			</g>
			<g>
				<line fill="none" stroke="#4B4C4C" x1="-1051.5" y1="1906.504" x2="510.339" y2="45.646"/>
			</g>
			<g>
				<line fill="none" stroke="#4B4C4C" x1="-1057.5" y1="1906.504" x2="504.339" y2="45.646"/>
			</g>
		</g>
	</g>
</g>
<g id="front_page">
	<circle fill="#F2B71A" stroke="#F2B71A" cx="516.325" cy="1363.248" r="3.461"/>
	<circle fill="#F2B71A" stroke="#F2B71A" cx="507.192" cy="1360.896" r="3.461"/>
	<circle fill="#F2B71A" stroke="#F2B71A" cx="505.525" cy="1350.003" r="3.461"/>
	<circle fill="#F2B71A" stroke="#F2B71A" cx="507.192" cy="1339.812" r="3.461"/>
	<circle fill="#F2B71A" stroke="#F2B71A" cx="514.114" cy="1332.516" r="3.461"/>
	<circle fill="#F2B71A" stroke="#F2B71A" cx="523.248" cy="1327.28" r="3.461"/>
	<circle fill="#F2B71A" stroke="#F2B71A" cx="514.114" cy="1354.865" r="3.461"/>
	<circle fill="#F2B71A" stroke="#F2B71A" cx="514.114" cy="1345.017" r="3.461"/>
	<circle fill="#F2B71A" stroke="#F2B71A" cx="521.037" cy="1338.094" r="3.461"/>
	<circle fill="#F2B71A" stroke="#F2B71A" cx="530.243" cy="1334.203" r="3.461"/>
	<circle fill="#3868B1" stroke="#3868B1" cx="548.905" cy="1387.606" r="3.461"/>
	<circle fill="#3868B1" stroke="#3868B1" cx="558.21" cy="1389.356" r="3.461"/>
	<circle fill="#3868B1" stroke="#3868B1" cx="565.132" cy="1384.146" r="3.461"/>
	<circle fill="#3868B1" stroke="#3868B1" cx="567.552" cy="1375.606" r="3.461"/>
	<circle fill="#3868B1" stroke="#3868B1" cx="564.536" cy="1366.716" r="3.461"/>
	<circle fill="none" stroke="#F2B71A" cx="532.776" cy="1352.732" r="12.918"/>
	<circle fill="none" stroke="#3868B1" cx="554.198" cy="1375.591" r="7.177"/>
</g>
<g id="title">
</g>
</svg>
