<?xml version="1.0" encoding="utf-8"?>
<!-- Generator: Adobe Illustrator 16.0.0, SVG Export Plug-In . SVG Version: 6.00 Build 0)  -->
<!DOCTYPE svg PUBLIC "-//W3C//DTD SVG 1.1//EN" "http://www.w3.org/Graphics/SVG/1.1/DTD/svg11.dtd">
<svg version="1.1" xmlns="http://www.w3.org/2000/svg" xmlns:xlink="http://www.w3.org/1999/xlink" x="0px" y="0px"
	 width="537.343px" height="535.693px" viewBox="369.109 1583.902 537.343 535.693"
	 enable-background="new 369.109 1583.902 537.343 535.693" xml:space="preserve">
<g id="web">
</g>
<g id="map">
</g>
<g id="Layer_10">
</g>
<g id="svg-dot" display="none">
</g>
<g id="sidebar" display="none">
</g>
<g id="collide" display="none">
</g>
<g id="lines" display="none">
</g>
<g id="users" display="none">
</g>
<g id="Layer_7" display="none">
</g>
<g id="overlay">
	<g>
		<defs>
			<rect id="SVGID_5_" x="143.594" y="124.879" width="1625.759" height="1045.957"/>
		</defs>
		<clipPath id="SVGID_2_">
			<use xlink:href="#SVGID_5_"  overflow="visible"/>
		</clipPath>
		<g opacity="0.6" clip-path="url(#SVGID_2_)">
			<g>
				<line fill="none" stroke="#4B4C4C" x1="904.5" y1="1906.504" x2="2466.339" y2="45.646"/>
			</g>
			<g>
				<line fill="none" stroke="#4B4C4C" x1="898.5" y1="1906.504" x2="2460.339" y2="45.646"/>
			</g>
			<g>
				<line fill="none" stroke="#4B4C4C" x1="892.5" y1="1906.504" x2="2454.339" y2="45.646"/>
			</g>
			<g>
				<line fill="none" stroke="#4B4C4C" x1="886.5" y1="1906.504" x2="2448.339" y2="45.646"/>
			</g>
			<g>
				<line fill="none" stroke="#4B4C4C" x1="880.5" y1="1906.504" x2="2442.339" y2="45.646"/>
			</g>
			<g>
				<line fill="none" stroke="#4B4C4C" x1="874.5" y1="1906.504" x2="2436.339" y2="45.646"/>
			</g>
			<g>
				<line fill="none" stroke="#4B4C4C" x1="868.5" y1="1906.504" x2="2430.339" y2="45.646"/>
			</g>
			<g>
				<line fill="none" stroke="#4B4C4C" x1="862.5" y1="1906.504" x2="2424.339" y2="45.646"/>
			</g>
			<g>
				<line fill="none" stroke="#4B4C4C" x1="856.5" y1="1906.504" x2="2418.339" y2="45.646"/>
			</g>
			<g>
				<line fill="none" stroke="#4B4C4C" x1="850.5" y1="1906.504" x2="2412.339" y2="45.646"/>
			</g>
			<g>
				<line fill="none" stroke="#4B4C4C" x1="844.5" y1="1906.504" x2="2406.339" y2="45.646"/>
			</g>
			<g>
				<line fill="none" stroke="#4B4C4C" x1="838.5" y1="1906.504" x2="2400.339" y2="45.646"/>
			</g>
			<g>
				<line fill="none" stroke="#4B4C4C" x1="832.5" y1="1906.504" x2="2394.339" y2="45.646"/>
			</g>
			<g>
				<line fill="none" stroke="#4B4C4C" x1="826.5" y1="1906.504" x2="2388.339" y2="45.646"/>
			</g>
			<g>
				<line fill="none" stroke="#4B4C4C" x1="820.5" y1="1906.504" x2="2382.339" y2="45.646"/>
			</g>
			<g>
				<line fill="none" stroke="#4B4C4C" x1="814.5" y1="1906.504" x2="2376.339" y2="45.646"/>
			</g>
			<g>
				<line fill="none" stroke="#4B4C4C" x1="808.5" y1="1906.504" x2="2370.339" y2="45.646"/>
			</g>
			<g>
				<line fill="none" stroke="#4B4C4C" x1="802.5" y1="1906.504" x2="2364.339" y2="45.646"/>
			</g>
			<g>
				<line fill="none" stroke="#4B4C4C" x1="796.5" y1="1906.504" x2="2358.339" y2="45.646"/>
			</g>
			<g>
				<line fill="none" stroke="#4B4C4C" x1="790.5" y1="1906.504" x2="2352.339" y2="45.646"/>
			</g>
			<g>
				<line fill="none" stroke="#4B4C4C" x1="784.5" y1="1906.504" x2="2346.339" y2="45.646"/>
			</g>
			<g>
				<line fill="none" stroke="#4B4C4C" x1="778.5" y1="1906.504" x2="2340.339" y2="45.646"/>
			</g>
			<g>
				<line fill="none" stroke="#4B4C4C" x1="772.5" y1="1906.504" x2="2334.339" y2="45.646"/>
			</g>
			<g>
				<line fill="none" stroke="#4B4C4C" x1="766.5" y1="1906.504" x2="2328.339" y2="45.646"/>
			</g>
			<g>
				<line fill="none" stroke="#4B4C4C" x1="760.5" y1="1906.504" x2="2322.339" y2="45.646"/>
			</g>
			<g>
				<line fill="none" stroke="#4B4C4C" x1="754.5" y1="1906.504" x2="2316.339" y2="45.646"/>
			</g>
			<g>
				<line fill="none" stroke="#4B4C4C" x1="748.5" y1="1906.504" x2="2310.339" y2="45.646"/>
			</g>
			<g>
				<line fill="none" stroke="#4B4C4C" x1="742.5" y1="1906.504" x2="2304.339" y2="45.646"/>
			</g>
			<g>
				<line fill="none" stroke="#4B4C4C" x1="736.5" y1="1906.504" x2="2298.339" y2="45.646"/>
			</g>
			<g>
				<line fill="none" stroke="#4B4C4C" x1="730.5" y1="1906.504" x2="2292.339" y2="45.646"/>
			</g>
			<g>
				<line fill="none" stroke="#4B4C4C" x1="724.5" y1="1906.504" x2="2286.339" y2="45.646"/>
			</g>
			<g>
				<line fill="none" stroke="#4B4C4C" x1="718.5" y1="1906.504" x2="2280.339" y2="45.646"/>
			</g>
			<g>
				<line fill="none" stroke="#4B4C4C" x1="712.5" y1="1906.504" x2="2274.339" y2="45.646"/>
			</g>
			<g>
				<line fill="none" stroke="#4B4C4C" x1="706.5" y1="1906.504" x2="2268.339" y2="45.646"/>
			</g>
			<g>
				<line fill="none" stroke="#4B4C4C" x1="700.5" y1="1906.504" x2="2262.339" y2="45.646"/>
			</g>
			<g>
				<line fill="none" stroke="#4B4C4C" x1="694.5" y1="1906.504" x2="2256.339" y2="45.646"/>
			</g>
			<g>
				<line fill="none" stroke="#4B4C4C" x1="688.5" y1="1906.504" x2="2250.339" y2="45.646"/>
			</g>
			<g>
				<line fill="none" stroke="#4B4C4C" x1="682.5" y1="1906.504" x2="2244.339" y2="45.646"/>
			</g>
			<g>
				<line fill="none" stroke="#4B4C4C" x1="676.5" y1="1906.504" x2="2238.339" y2="45.646"/>
			</g>
			<g>
				<line fill="none" stroke="#4B4C4C" x1="670.5" y1="1906.504" x2="2232.339" y2="45.646"/>
			</g>
			<g>
				<line fill="none" stroke="#4B4C4C" x1="664.5" y1="1906.504" x2="2226.339" y2="45.646"/>
			</g>
			<g>
				<line fill="none" stroke="#4B4C4C" x1="658.5" y1="1906.504" x2="2220.339" y2="45.646"/>
			</g>
			<g>
				<line fill="none" stroke="#4B4C4C" x1="652.5" y1="1906.504" x2="2214.339" y2="45.646"/>
			</g>
			<g>
				<line fill="none" stroke="#4B4C4C" x1="646.5" y1="1906.504" x2="2208.339" y2="45.646"/>
			</g>
			<g>
				<line fill="none" stroke="#4B4C4C" x1="640.5" y1="1906.504" x2="2202.339" y2="45.646"/>
			</g>
			<g>
				<line fill="none" stroke="#4B4C4C" x1="634.5" y1="1906.504" x2="2196.339" y2="45.646"/>
			</g>
			<g>
				<line fill="none" stroke="#4B4C4C" x1="628.5" y1="1906.504" x2="2190.339" y2="45.646"/>
			</g>
			<g>
				<line fill="none" stroke="#4B4C4C" x1="622.5" y1="1906.504" x2="2184.339" y2="45.646"/>
			</g>
			<g>
				<line fill="none" stroke="#4B4C4C" x1="616.5" y1="1906.504" x2="2178.339" y2="45.646"/>
			</g>
			<g>
				<line fill="none" stroke="#4B4C4C" x1="610.5" y1="1906.504" x2="2172.339" y2="45.646"/>
			</g>
			<g>
				<line fill="none" stroke="#4B4C4C" x1="604.5" y1="1906.504" x2="2166.339" y2="45.646"/>
			</g>
			<g>
				<line fill="none" stroke="#4B4C4C" x1="598.5" y1="1906.504" x2="2160.339" y2="45.646"/>
			</g>
			<g>
				<line fill="none" stroke="#4B4C4C" x1="592.5" y1="1906.504" x2="2154.339" y2="45.646"/>
			</g>
			<g>
				<line fill="none" stroke="#4B4C4C" x1="586.5" y1="1906.504" x2="2148.339" y2="45.646"/>
			</g>
			<g>
				<line fill="none" stroke="#4B4C4C" x1="580.5" y1="1906.504" x2="2142.339" y2="45.646"/>
			</g>
			<g>
				<line fill="none" stroke="#4B4C4C" x1="574.5" y1="1906.504" x2="2136.339" y2="45.646"/>
			</g>
			<g>
				<line fill="none" stroke="#4B4C4C" x1="568.5" y1="1906.504" x2="2130.339" y2="45.646"/>
			</g>
			<g>
				<line fill="none" stroke="#4B4C4C" x1="562.5" y1="1906.504" x2="2124.339" y2="45.646"/>
			</g>
			<g>
				<line fill="none" stroke="#4B4C4C" x1="556.5" y1="1906.504" x2="2118.339" y2="45.646"/>
			</g>
			<g>
				<line fill="none" stroke="#4B4C4C" x1="550.5" y1="1906.504" x2="2112.339" y2="45.646"/>
			</g>
			<g>
				<line fill="none" stroke="#4B4C4C" x1="544.5" y1="1906.504" x2="2106.339" y2="45.646"/>
			</g>
			<g>
				<line fill="none" stroke="#4B4C4C" x1="538.5" y1="1906.504" x2="2100.339" y2="45.646"/>
			</g>
			<g>
				<line fill="none" stroke="#4B4C4C" x1="532.5" y1="1906.504" x2="2094.339" y2="45.646"/>
			</g>
			<g>
				<line fill="none" stroke="#4B4C4C" x1="526.5" y1="1906.504" x2="2088.339" y2="45.646"/>
			</g>
			<g>
				<line fill="none" stroke="#4B4C4C" x1="520.5" y1="1906.504" x2="2082.339" y2="45.646"/>
			</g>
			<g>
				<line fill="none" stroke="#4B4C4C" x1="514.5" y1="1906.504" x2="2076.339" y2="45.646"/>
			</g>
			<g>
				<line fill="none" stroke="#4B4C4C" x1="508.5" y1="1906.504" x2="2070.339" y2="45.646"/>
			</g>
			<g>
				<line fill="none" stroke="#4B4C4C" x1="502.5" y1="1906.504" x2="2064.339" y2="45.646"/>
			</g>
			<g>
				<line fill="none" stroke="#4B4C4C" x1="496.5" y1="1906.504" x2="2058.339" y2="45.646"/>
			</g>
			<g>
				<line fill="none" stroke="#4B4C4C" x1="490.5" y1="1906.504" x2="2052.339" y2="45.646"/>
			</g>
			<g>
				<line fill="none" stroke="#4B4C4C" x1="484.5" y1="1906.504" x2="2046.339" y2="45.646"/>
			</g>
			<g>
				<line fill="none" stroke="#4B4C4C" x1="478.5" y1="1906.504" x2="2040.339" y2="45.646"/>
			</g>
			<g>
				<line fill="none" stroke="#4B4C4C" x1="472.5" y1="1906.504" x2="2034.339" y2="45.646"/>
			</g>
			<g>
				<line fill="none" stroke="#4B4C4C" x1="466.5" y1="1906.504" x2="2028.339" y2="45.646"/>
			</g>
			<g>
				<line fill="none" stroke="#4B4C4C" x1="460.5" y1="1906.504" x2="2022.339" y2="45.646"/>
			</g>
			<g>
				<line fill="none" stroke="#4B4C4C" x1="454.5" y1="1906.504" x2="2016.339" y2="45.646"/>
			</g>
			<g>
				<line fill="none" stroke="#4B4C4C" x1="448.5" y1="1906.504" x2="2010.339" y2="45.646"/>
			</g>
			<g>
				<line fill="none" stroke="#4B4C4C" x1="442.5" y1="1906.504" x2="2004.339" y2="45.646"/>
			</g>
			<g>
				<line fill="none" stroke="#4B4C4C" x1="436.5" y1="1906.504" x2="1998.339" y2="45.646"/>
			</g>
			<g>
				<line fill="none" stroke="#4B4C4C" x1="430.5" y1="1906.504" x2="1992.339" y2="45.646"/>
			</g>
			<g>
				<line fill="none" stroke="#4B4C4C" x1="424.5" y1="1906.504" x2="1986.339" y2="45.646"/>
			</g>
			<g>
				<line fill="none" stroke="#4B4C4C" x1="418.5" y1="1906.504" x2="1980.339" y2="45.646"/>
			</g>
			<g>
				<line fill="none" stroke="#4B4C4C" x1="412.5" y1="1906.504" x2="1974.339" y2="45.646"/>
			</g>
			<g>
				<line fill="none" stroke="#4B4C4C" x1="406.5" y1="1906.504" x2="1968.339" y2="45.646"/>
			</g>
			<g>
				<line fill="none" stroke="#4B4C4C" x1="400.5" y1="1906.504" x2="1962.339" y2="45.646"/>
			</g>
			<g>
				<line fill="none" stroke="#4B4C4C" x1="394.5" y1="1906.504" x2="1956.339" y2="45.646"/>
			</g>
			<g>
				<line fill="none" stroke="#4B4C4C" x1="388.5" y1="1906.504" x2="1950.339" y2="45.646"/>
			</g>
			<g>
				<line fill="none" stroke="#4B4C4C" x1="382.5" y1="1906.504" x2="1944.339" y2="45.646"/>
			</g>
			<g>
				<line fill="none" stroke="#4B4C4C" x1="376.5" y1="1906.504" x2="1938.339" y2="45.646"/>
			</g>
			<g>
				<line fill="none" stroke="#4B4C4C" x1="370.5" y1="1906.504" x2="1932.339" y2="45.646"/>
			</g>
			<g>
				<line fill="none" stroke="#4B4C4C" x1="364.5" y1="1906.504" x2="1926.339" y2="45.646"/>
			</g>
			<g>
				<line fill="none" stroke="#4B4C4C" x1="358.5" y1="1906.504" x2="1920.339" y2="45.646"/>
			</g>
			<g>
				<line fill="none" stroke="#4B4C4C" x1="352.5" y1="1906.504" x2="1914.339" y2="45.646"/>
			</g>
			<g>
				<line fill="none" stroke="#4B4C4C" x1="346.5" y1="1906.504" x2="1908.339" y2="45.646"/>
			</g>
			<g>
				<line fill="none" stroke="#4B4C4C" x1="340.5" y1="1906.504" x2="1902.339" y2="45.646"/>
			</g>
			<g>
				<line fill="none" stroke="#4B4C4C" x1="334.5" y1="1906.504" x2="1896.339" y2="45.646"/>
			</g>
			<g>
				<line fill="none" stroke="#4B4C4C" x1="328.5" y1="1906.504" x2="1890.339" y2="45.646"/>
			</g>
			<g>
				<line fill="none" stroke="#4B4C4C" x1="322.5" y1="1906.504" x2="1884.339" y2="45.646"/>
			</g>
			<g>
				<line fill="none" stroke="#4B4C4C" x1="316.5" y1="1906.504" x2="1878.339" y2="45.646"/>
			</g>
			<g>
				<line fill="none" stroke="#4B4C4C" x1="310.5" y1="1906.504" x2="1872.339" y2="45.646"/>
			</g>
			<g>
				<line fill="none" stroke="#4B4C4C" x1="304.5" y1="1906.504" x2="1866.339" y2="45.646"/>
			</g>
			<g>
				<line fill="none" stroke="#4B4C4C" x1="298.5" y1="1906.504" x2="1860.339" y2="45.646"/>
			</g>
			<g>
				<line fill="none" stroke="#4B4C4C" x1="292.5" y1="1906.504" x2="1854.339" y2="45.646"/>
			</g>
			<g>
				<line fill="none" stroke="#4B4C4C" x1="286.5" y1="1906.504" x2="1848.339" y2="45.646"/>
			</g>
			<g>
				<line fill="none" stroke="#4B4C4C" x1="280.5" y1="1906.504" x2="1842.339" y2="45.646"/>
			</g>
			<g>
				<line fill="none" stroke="#4B4C4C" x1="274.5" y1="1906.504" x2="1836.339" y2="45.646"/>
			</g>
			<g>
				<line fill="none" stroke="#4B4C4C" x1="268.5" y1="1906.504" x2="1830.339" y2="45.646"/>
			</g>
			<g>
				<line fill="none" stroke="#4B4C4C" x1="262.5" y1="1906.504" x2="1824.339" y2="45.646"/>
			</g>
			<g>
				<line fill="none" stroke="#4B4C4C" x1="256.5" y1="1906.504" x2="1818.339" y2="45.646"/>
			</g>
			<g>
				<line fill="none" stroke="#4B4C4C" x1="250.5" y1="1906.504" x2="1812.339" y2="45.646"/>
			</g>
			<g>
				<line fill="none" stroke="#4B4C4C" x1="244.5" y1="1906.504" x2="1806.339" y2="45.646"/>
			</g>
			<g>
				<line fill="none" stroke="#4B4C4C" x1="238.5" y1="1906.504" x2="1800.339" y2="45.646"/>
			</g>
			<g>
				<line fill="none" stroke="#4B4C4C" x1="232.5" y1="1906.504" x2="1794.339" y2="45.646"/>
			</g>
			<g>
				<line fill="none" stroke="#4B4C4C" x1="226.5" y1="1906.504" x2="1788.339" y2="45.646"/>
			</g>
			<g>
				<line fill="none" stroke="#4B4C4C" x1="220.5" y1="1906.504" x2="1782.339" y2="45.646"/>
			</g>
			<g>
				<line fill="none" stroke="#4B4C4C" x1="214.5" y1="1906.504" x2="1776.339" y2="45.646"/>
			</g>
			<g>
				<line fill="none" stroke="#4B4C4C" x1="208.5" y1="1906.504" x2="1770.339" y2="45.646"/>
			</g>
			<g>
				<line fill="none" stroke="#4B4C4C" x1="202.5" y1="1906.504" x2="1764.339" y2="45.646"/>
			</g>
			<g>
				<line fill="none" stroke="#4B4C4C" x1="196.5" y1="1906.504" x2="1758.339" y2="45.646"/>
			</g>
			<g>
				<line fill="none" stroke="#4B4C4C" x1="190.5" y1="1906.504" x2="1752.339" y2="45.646"/>
			</g>
			<g>
				<line fill="none" stroke="#4B4C4C" x1="184.5" y1="1906.504" x2="1746.339" y2="45.646"/>
			</g>
			<g>
				<line fill="none" stroke="#4B4C4C" x1="178.5" y1="1906.504" x2="1740.339" y2="45.646"/>
			</g>
			<g>
				<line fill="none" stroke="#4B4C4C" x1="172.5" y1="1906.504" x2="1734.339" y2="45.646"/>
			</g>
			<g>
				<line fill="none" stroke="#4B4C4C" x1="166.5" y1="1906.504" x2="1728.339" y2="45.646"/>
			</g>
			<g>
				<line fill="none" stroke="#4B4C4C" x1="160.5" y1="1906.504" x2="1722.339" y2="45.646"/>
			</g>
			<g>
				<line fill="none" stroke="#4B4C4C" x1="154.5" y1="1906.504" x2="1716.339" y2="45.646"/>
			</g>
			<g>
				<line fill="none" stroke="#4B4C4C" x1="148.5" y1="1906.504" x2="1710.339" y2="45.646"/>
			</g>
			<g>
				<line fill="none" stroke="#4B4C4C" x1="142.5" y1="1906.504" x2="1704.339" y2="45.646"/>
			</g>
			<g>
				<line fill="none" stroke="#4B4C4C" x1="136.5" y1="1906.504" x2="1698.339" y2="45.646"/>
			</g>
			<g>
				<line fill="none" stroke="#4B4C4C" x1="130.5" y1="1906.504" x2="1692.339" y2="45.646"/>
			</g>
			<g>
				<line fill="none" stroke="#4B4C4C" x1="124.5" y1="1906.504" x2="1686.339" y2="45.646"/>
			</g>
			<g>
				<line fill="none" stroke="#4B4C4C" x1="118.5" y1="1906.504" x2="1680.339" y2="45.646"/>
			</g>
			<g>
				<line fill="none" stroke="#4B4C4C" x1="112.5" y1="1906.504" x2="1674.339" y2="45.646"/>
			</g>
			<g>
				<line fill="none" stroke="#4B4C4C" x1="106.5" y1="1906.504" x2="1668.339" y2="45.646"/>
			</g>
			<g>
				<line fill="none" stroke="#4B4C4C" x1="100.5" y1="1906.504" x2="1662.339" y2="45.646"/>
			</g>
			<g>
				<line fill="none" stroke="#4B4C4C" x1="94.5" y1="1906.504" x2="1656.339" y2="45.646"/>
			</g>
			<g>
				<line fill="none" stroke="#4B4C4C" x1="88.5" y1="1906.504" x2="1650.339" y2="45.646"/>
			</g>
			<g>
				<line fill="none" stroke="#4B4C4C" x1="82.5" y1="1906.504" x2="1644.339" y2="45.646"/>
			</g>
			<g>
				<line fill="none" stroke="#4B4C4C" x1="76.5" y1="1906.504" x2="1638.339" y2="45.646"/>
			</g>
			<g>
				<line fill="none" stroke="#4B4C4C" x1="70.5" y1="1906.504" x2="1632.339" y2="45.646"/>
			</g>
			<g>
				<line fill="none" stroke="#4B4C4C" x1="64.5" y1="1906.504" x2="1626.339" y2="45.646"/>
			</g>
			<g>
				<line fill="none" stroke="#4B4C4C" x1="58.5" y1="1906.504" x2="1620.339" y2="45.646"/>
			</g>
			<g>
				<line fill="none" stroke="#4B4C4C" x1="52.5" y1="1906.504" x2="1614.339" y2="45.646"/>
			</g>
			<g>
				<line fill="none" stroke="#4B4C4C" x1="46.5" y1="1906.504" x2="1608.339" y2="45.646"/>
			</g>
			<g>
				<line fill="none" stroke="#4B4C4C" x1="40.5" y1="1906.504" x2="1602.339" y2="45.646"/>
			</g>
			<g>
				<line fill="none" stroke="#4B4C4C" x1="34.5" y1="1906.504" x2="1596.339" y2="45.646"/>
			</g>
			<g>
				<line fill="none" stroke="#4B4C4C" x1="28.5" y1="1906.504" x2="1590.339" y2="45.646"/>
			</g>
			<g>
				<line fill="none" stroke="#4B4C4C" x1="22.5" y1="1906.504" x2="1584.339" y2="45.646"/>
			</g>
			<g>
				<line fill="none" stroke="#4B4C4C" x1="16.5" y1="1906.504" x2="1578.339" y2="45.646"/>
			</g>
			<g>
				<line fill="none" stroke="#4B4C4C" x1="10.5" y1="1906.504" x2="1572.339" y2="45.646"/>
			</g>
			<g>
				<line fill="none" stroke="#4B4C4C" x1="4.5" y1="1906.504" x2="1566.339" y2="45.646"/>
			</g>
			<g>
				<line fill="none" stroke="#4B4C4C" x1="-1.5" y1="1906.504" x2="1560.339" y2="45.646"/>
			</g>
			<g>
				<line fill="none" stroke="#4B4C4C" x1="-7.5" y1="1906.504" x2="1554.339" y2="45.646"/>
			</g>
			<g>
				<line fill="none" stroke="#4B4C4C" x1="-13.5" y1="1906.504" x2="1548.339" y2="45.646"/>
			</g>
			<g>
				<line fill="none" stroke="#4B4C4C" x1="-19.5" y1="1906.504" x2="1542.339" y2="45.646"/>
			</g>
			<g>
				<line fill="none" stroke="#4B4C4C" x1="-25.5" y1="1906.504" x2="1536.339" y2="45.646"/>
			</g>
			<g>
				<line fill="none" stroke="#4B4C4C" x1="-31.5" y1="1906.504" x2="1530.339" y2="45.646"/>
			</g>
			<g>
				<line fill="none" stroke="#4B4C4C" x1="-37.5" y1="1906.504" x2="1524.339" y2="45.646"/>
			</g>
			<g>
				<line fill="none" stroke="#4B4C4C" x1="-43.5" y1="1906.504" x2="1518.339" y2="45.646"/>
			</g>
			<g>
				<line fill="none" stroke="#4B4C4C" x1="-49.5" y1="1906.504" x2="1512.339" y2="45.646"/>
			</g>
			<g>
				<line fill="none" stroke="#4B4C4C" x1="-55.5" y1="1906.504" x2="1506.339" y2="45.646"/>
			</g>
			<g>
				<line fill="none" stroke="#4B4C4C" x1="-61.5" y1="1906.504" x2="1500.339" y2="45.646"/>
			</g>
			<g>
				<line fill="none" stroke="#4B4C4C" x1="-67.5" y1="1906.504" x2="1494.339" y2="45.646"/>
			</g>
			<g>
				<line fill="none" stroke="#4B4C4C" x1="-73.5" y1="1906.504" x2="1488.339" y2="45.646"/>
			</g>
			<g>
				<line fill="none" stroke="#4B4C4C" x1="-79.5" y1="1906.504" x2="1482.339" y2="45.646"/>
			</g>
			<g>
				<line fill="none" stroke="#4B4C4C" x1="-85.5" y1="1906.504" x2="1476.339" y2="45.646"/>
			</g>
			<g>
				<line fill="none" stroke="#4B4C4C" x1="-91.5" y1="1906.504" x2="1470.339" y2="45.646"/>
			</g>
			<g>
				<line fill="none" stroke="#4B4C4C" x1="-97.5" y1="1906.504" x2="1464.339" y2="45.646"/>
			</g>
			<g>
				<line fill="none" stroke="#4B4C4C" x1="-103.5" y1="1906.504" x2="1458.339" y2="45.646"/>
			</g>
			<g>
				<line fill="none" stroke="#4B4C4C" x1="-109.5" y1="1906.504" x2="1452.339" y2="45.646"/>
			</g>
			<g>
				<line fill="none" stroke="#4B4C4C" x1="-115.5" y1="1906.504" x2="1446.339" y2="45.646"/>
			</g>
			<g>
				<line fill="none" stroke="#4B4C4C" x1="-121.5" y1="1906.504" x2="1440.339" y2="45.646"/>
			</g>
			<g>
				<line fill="none" stroke="#4B4C4C" x1="-127.5" y1="1906.504" x2="1434.339" y2="45.646"/>
			</g>
			<g>
				<line fill="none" stroke="#4B4C4C" x1="-133.5" y1="1906.504" x2="1428.339" y2="45.646"/>
			</g>
			<g>
				<line fill="none" stroke="#4B4C4C" x1="-139.5" y1="1906.504" x2="1422.339" y2="45.646"/>
			</g>
			<g>
				<line fill="none" stroke="#4B4C4C" x1="-145.5" y1="1906.504" x2="1416.339" y2="45.646"/>
			</g>
			<g>
				<line fill="none" stroke="#4B4C4C" x1="-151.5" y1="1906.504" x2="1410.339" y2="45.646"/>
			</g>
			<g>
				<line fill="none" stroke="#4B4C4C" x1="-157.5" y1="1906.504" x2="1404.339" y2="45.646"/>
			</g>
			<g>
				<line fill="none" stroke="#4B4C4C" x1="-163.5" y1="1906.504" x2="1398.339" y2="45.646"/>
			</g>
			<g>
				<line fill="none" stroke="#4B4C4C" x1="-169.5" y1="1906.504" x2="1392.339" y2="45.646"/>
			</g>
			<g>
				<line fill="none" stroke="#4B4C4C" x1="-175.5" y1="1906.504" x2="1386.339" y2="45.646"/>
			</g>
			<g>
				<line fill="none" stroke="#4B4C4C" x1="-181.5" y1="1906.504" x2="1380.339" y2="45.646"/>
			</g>
			<g>
				<line fill="none" stroke="#4B4C4C" x1="-187.5" y1="1906.504" x2="1374.339" y2="45.646"/>
			</g>
			<g>
				<line fill="none" stroke="#4B4C4C" x1="-193.5" y1="1906.504" x2="1368.339" y2="45.646"/>
			</g>
			<g>
				<line fill="none" stroke="#4B4C4C" x1="-199.5" y1="1906.504" x2="1362.339" y2="45.646"/>
			</g>
			<g>
				<line fill="none" stroke="#4B4C4C" x1="-205.5" y1="1906.504" x2="1356.339" y2="45.646"/>
			</g>
			<g>
				<line fill="none" stroke="#4B4C4C" x1="-211.5" y1="1906.504" x2="1350.339" y2="45.646"/>
			</g>
			<g>
				<line fill="none" stroke="#4B4C4C" x1="-217.5" y1="1906.504" x2="1344.339" y2="45.646"/>
			</g>
			<g>
				<line fill="none" stroke="#4B4C4C" x1="-223.5" y1="1906.504" x2="1338.339" y2="45.646"/>
			</g>
			<g>
				<line fill="none" stroke="#4B4C4C" x1="-229.5" y1="1906.504" x2="1332.339" y2="45.646"/>
			</g>
			<g>
				<line fill="none" stroke="#4B4C4C" x1="-235.5" y1="1906.504" x2="1326.339" y2="45.646"/>
			</g>
			<g>
				<line fill="none" stroke="#4B4C4C" x1="-241.5" y1="1906.504" x2="1320.339" y2="45.646"/>
			</g>
			<g>
				<line fill="none" stroke="#4B4C4C" x1="-247.5" y1="1906.504" x2="1314.339" y2="45.646"/>
			</g>
			<g>
				<line fill="none" stroke="#4B4C4C" x1="-253.5" y1="1906.504" x2="1308.339" y2="45.646"/>
			</g>
			<g>
				<line fill="none" stroke="#4B4C4C" x1="-259.5" y1="1906.504" x2="1302.339" y2="45.646"/>
			</g>
			<g>
				<line fill="none" stroke="#4B4C4C" x1="-265.5" y1="1906.504" x2="1296.339" y2="45.646"/>
			</g>
			<g>
				<line fill="none" stroke="#4B4C4C" x1="-271.5" y1="1906.504" x2="1290.339" y2="45.646"/>
			</g>
			<g>
				<line fill="none" stroke="#4B4C4C" x1="-277.5" y1="1906.504" x2="1284.339" y2="45.646"/>
			</g>
			<g>
				<line fill="none" stroke="#4B4C4C" x1="-283.5" y1="1906.504" x2="1278.339" y2="45.646"/>
			</g>
			<g>
				<line fill="none" stroke="#4B4C4C" x1="-289.5" y1="1906.504" x2="1272.339" y2="45.646"/>
			</g>
			<g>
				<line fill="none" stroke="#4B4C4C" x1="-295.5" y1="1906.504" x2="1266.339" y2="45.646"/>
			</g>
			<g>
				<line fill="none" stroke="#4B4C4C" x1="-301.5" y1="1906.504" x2="1260.339" y2="45.646"/>
			</g>
			<g>
				<line fill="none" stroke="#4B4C4C" x1="-307.5" y1="1906.504" x2="1254.339" y2="45.646"/>
			</g>
			<g>
				<line fill="none" stroke="#4B4C4C" x1="-313.5" y1="1906.504" x2="1248.339" y2="45.646"/>
			</g>
			<g>
				<line fill="none" stroke="#4B4C4C" x1="-319.5" y1="1906.504" x2="1242.339" y2="45.646"/>
			</g>
			<g>
				<line fill="none" stroke="#4B4C4C" x1="-325.5" y1="1906.504" x2="1236.339" y2="45.646"/>
			</g>
			<g>
				<line fill="none" stroke="#4B4C4C" x1="-331.5" y1="1906.504" x2="1230.339" y2="45.646"/>
			</g>
			<g>
				<line fill="none" stroke="#4B4C4C" x1="-337.5" y1="1906.504" x2="1224.339" y2="45.646"/>
			</g>
			<g>
				<line fill="none" stroke="#4B4C4C" x1="-343.5" y1="1906.504" x2="1218.339" y2="45.646"/>
			</g>
			<g>
				<line fill="none" stroke="#4B4C4C" x1="-349.5" y1="1906.504" x2="1212.339" y2="45.646"/>
			</g>
			<g>
				<line fill="none" stroke="#4B4C4C" x1="-355.5" y1="1906.504" x2="1206.339" y2="45.646"/>
			</g>
			<g>
				<line fill="none" stroke="#4B4C4C" x1="-361.5" y1="1906.504" x2="1200.339" y2="45.646"/>
			</g>
			<g>
				<line fill="none" stroke="#4B4C4C" x1="-367.5" y1="1906.504" x2="1194.339" y2="45.646"/>
			</g>
			<g>
				<line fill="none" stroke="#4B4C4C" x1="-373.5" y1="1906.504" x2="1188.339" y2="45.646"/>
			</g>
			<g>
				<line fill="none" stroke="#4B4C4C" x1="-379.5" y1="1906.504" x2="1182.339" y2="45.646"/>
			</g>
			<g>
				<line fill="none" stroke="#4B4C4C" x1="-385.5" y1="1906.504" x2="1176.339" y2="45.646"/>
			</g>
			<g>
				<line fill="none" stroke="#4B4C4C" x1="-391.5" y1="1906.504" x2="1170.339" y2="45.646"/>
			</g>
			<g>
				<line fill="none" stroke="#4B4C4C" x1="-397.5" y1="1906.504" x2="1164.339" y2="45.646"/>
			</g>
			<g>
				<line fill="none" stroke="#4B4C4C" x1="-403.5" y1="1906.504" x2="1158.339" y2="45.646"/>
			</g>
			<g>
				<line fill="none" stroke="#4B4C4C" x1="-409.5" y1="1906.504" x2="1152.339" y2="45.646"/>
			</g>
			<g>
				<line fill="none" stroke="#4B4C4C" x1="-415.5" y1="1906.504" x2="1146.339" y2="45.646"/>
			</g>
			<g>
				<line fill="none" stroke="#4B4C4C" x1="-421.5" y1="1906.504" x2="1140.339" y2="45.646"/>
			</g>
			<g>
				<line fill="none" stroke="#4B4C4C" x1="-427.5" y1="1906.504" x2="1134.339" y2="45.646"/>
			</g>
			<g>
				<line fill="none" stroke="#4B4C4C" x1="-433.5" y1="1906.504" x2="1128.339" y2="45.646"/>
			</g>
			<g>
				<line fill="none" stroke="#4B4C4C" x1="-439.5" y1="1906.504" x2="1122.339" y2="45.646"/>
			</g>
			<g>
				<line fill="none" stroke="#4B4C4C" x1="-445.5" y1="1906.504" x2="1116.339" y2="45.646"/>
			</g>
			<g>
				<line fill="none" stroke="#4B4C4C" x1="-451.5" y1="1906.504" x2="1110.339" y2="45.646"/>
			</g>
			<g>
				<line fill="none" stroke="#4B4C4C" x1="-457.5" y1="1906.504" x2="1104.339" y2="45.646"/>
			</g>
			<g>
				<line fill="none" stroke="#4B4C4C" x1="-463.5" y1="1906.504" x2="1098.339" y2="45.646"/>
			</g>
			<g>
				<line fill="none" stroke="#4B4C4C" x1="-469.5" y1="1906.504" x2="1092.339" y2="45.646"/>
			</g>
			<g>
				<line fill="none" stroke="#4B4C4C" x1="-475.5" y1="1906.504" x2="1086.339" y2="45.646"/>
			</g>
			<g>
				<line fill="none" stroke="#4B4C4C" x1="-481.5" y1="1906.504" x2="1080.339" y2="45.646"/>
			</g>
			<g>
				<line fill="none" stroke="#4B4C4C" x1="-487.5" y1="1906.504" x2="1074.339" y2="45.646"/>
			</g>
			<g>
				<line fill="none" stroke="#4B4C4C" x1="-493.5" y1="1906.504" x2="1068.339" y2="45.646"/>
			</g>
			<g>
				<line fill="none" stroke="#4B4C4C" x1="-499.5" y1="1906.504" x2="1062.339" y2="45.646"/>
			</g>
			<g>
				<line fill="none" stroke="#4B4C4C" x1="-505.5" y1="1906.504" x2="1056.339" y2="45.646"/>
			</g>
			<g>
				<line fill="none" stroke="#4B4C4C" x1="-511.5" y1="1906.504" x2="1050.339" y2="45.646"/>
			</g>
			<g>
				<line fill="none" stroke="#4B4C4C" x1="-517.5" y1="1906.504" x2="1044.339" y2="45.646"/>
			</g>
			<g>
				<line fill="none" stroke="#4B4C4C" x1="-523.5" y1="1906.504" x2="1038.339" y2="45.646"/>
			</g>
			<g>
				<line fill="none" stroke="#4B4C4C" x1="-529.5" y1="1906.504" x2="1032.339" y2="45.646"/>
			</g>
			<g>
				<line fill="none" stroke="#4B4C4C" x1="-535.5" y1="1906.504" x2="1026.339" y2="45.646"/>
			</g>
			<g>
				<line fill="none" stroke="#4B4C4C" x1="-541.5" y1="1906.504" x2="1020.339" y2="45.646"/>
			</g>
			<g>
				<line fill="none" stroke="#4B4C4C" x1="-547.5" y1="1906.504" x2="1014.339" y2="45.646"/>
			</g>
			<g>
				<line fill="none" stroke="#4B4C4C" x1="-553.5" y1="1906.504" x2="1008.339" y2="45.646"/>
			</g>
			<g>
				<line fill="none" stroke="#4B4C4C" x1="-559.5" y1="1906.504" x2="1002.339" y2="45.646"/>
			</g>
			<g>
				<line fill="none" stroke="#4B4C4C" x1="-565.5" y1="1906.504" x2="996.339" y2="45.646"/>
			</g>
			<g>
				<line fill="none" stroke="#4B4C4C" x1="-571.5" y1="1906.504" x2="990.339" y2="45.646"/>
			</g>
			<g>
				<line fill="none" stroke="#4B4C4C" x1="-577.5" y1="1906.504" x2="984.339" y2="45.646"/>
			</g>
			<g>
				<line fill="none" stroke="#4B4C4C" x1="-583.5" y1="1906.504" x2="978.339" y2="45.646"/>
			</g>
			<g>
				<line fill="none" stroke="#4B4C4C" x1="-589.5" y1="1906.504" x2="972.339" y2="45.646"/>
			</g>
			<g>
				<line fill="none" stroke="#4B4C4C" x1="-595.5" y1="1906.504" x2="966.339" y2="45.646"/>
			</g>
			<g>
				<line fill="none" stroke="#4B4C4C" x1="-601.5" y1="1906.504" x2="960.339" y2="45.646"/>
			</g>
			<g>
				<line fill="none" stroke="#4B4C4C" x1="-607.5" y1="1906.504" x2="954.339" y2="45.646"/>
			</g>
			<g>
				<line fill="none" stroke="#4B4C4C" x1="-613.5" y1="1906.504" x2="948.339" y2="45.646"/>
			</g>
			<g>
				<line fill="none" stroke="#4B4C4C" x1="-619.5" y1="1906.504" x2="942.339" y2="45.646"/>
			</g>
			<g>
				<line fill="none" stroke="#4B4C4C" x1="-625.5" y1="1906.504" x2="936.339" y2="45.646"/>
			</g>
			<g>
				<line fill="none" stroke="#4B4C4C" x1="-631.5" y1="1906.504" x2="930.339" y2="45.646"/>
			</g>
			<g>
				<line fill="none" stroke="#4B4C4C" x1="-637.5" y1="1906.504" x2="924.339" y2="45.646"/>
			</g>
			<g>
				<line fill="none" stroke="#4B4C4C" x1="-643.5" y1="1906.504" x2="918.339" y2="45.646"/>
			</g>
			<g>
				<line fill="none" stroke="#4B4C4C" x1="-649.5" y1="1906.504" x2="912.339" y2="45.646"/>
			</g>
			<g>
				<line fill="none" stroke="#4B4C4C" x1="-655.5" y1="1906.504" x2="906.339" y2="45.646"/>
			</g>
			<g>
				<line fill="none" stroke="#4B4C4C" x1="-661.5" y1="1906.504" x2="900.339" y2="45.646"/>
			</g>
			<g>
				<line fill="none" stroke="#4B4C4C" x1="-667.5" y1="1906.504" x2="894.339" y2="45.646"/>
			</g>
			<g>
				<line fill="none" stroke="#4B4C4C" x1="-673.5" y1="1906.504" x2="888.339" y2="45.646"/>
			</g>
			<g>
				<line fill="none" stroke="#4B4C4C" x1="-679.5" y1="1906.504" x2="882.339" y2="45.646"/>
			</g>
			<g>
				<line fill="none" stroke="#4B4C4C" x1="-685.5" y1="1906.504" x2="876.339" y2="45.646"/>
			</g>
			<g>
				<line fill="none" stroke="#4B4C4C" x1="-691.5" y1="1906.504" x2="870.339" y2="45.646"/>
			</g>
			<g>
				<line fill="none" stroke="#4B4C4C" x1="-697.5" y1="1906.504" x2="864.339" y2="45.646"/>
			</g>
			<g>
				<line fill="none" stroke="#4B4C4C" x1="-703.5" y1="1906.504" x2="858.339" y2="45.646"/>
			</g>
			<g>
				<line fill="none" stroke="#4B4C4C" x1="-709.5" y1="1906.504" x2="852.339" y2="45.646"/>
			</g>
			<g>
				<line fill="none" stroke="#4B4C4C" x1="-715.5" y1="1906.504" x2="846.339" y2="45.646"/>
			</g>
			<g>
				<line fill="none" stroke="#4B4C4C" x1="-721.5" y1="1906.504" x2="840.339" y2="45.646"/>
			</g>
			<g>
				<line fill="none" stroke="#4B4C4C" x1="-727.5" y1="1906.504" x2="834.339" y2="45.646"/>
			</g>
			<g>
				<line fill="none" stroke="#4B4C4C" x1="-733.5" y1="1906.504" x2="828.339" y2="45.646"/>
			</g>
			<g>
				<line fill="none" stroke="#4B4C4C" x1="-739.5" y1="1906.504" x2="822.339" y2="45.646"/>
			</g>
			<g>
				<line fill="none" stroke="#4B4C4C" x1="-745.5" y1="1906.504" x2="816.339" y2="45.646"/>
			</g>
			<g>
				<line fill="none" stroke="#4B4C4C" x1="-751.5" y1="1906.504" x2="810.339" y2="45.646"/>
			</g>
			<g>
				<line fill="none" stroke="#4B4C4C" x1="-757.5" y1="1906.504" x2="804.339" y2="45.646"/>
			</g>
			<g>
				<line fill="none" stroke="#4B4C4C" x1="-763.5" y1="1906.504" x2="798.339" y2="45.646"/>
			</g>
			<g>
				<line fill="none" stroke="#4B4C4C" x1="-769.5" y1="1906.504" x2="792.339" y2="45.646"/>
			</g>
			<g>
				<line fill="none" stroke="#4B4C4C" x1="-775.5" y1="1906.504" x2="786.339" y2="45.646"/>
			</g>
			<g>
				<line fill="none" stroke="#4B4C4C" x1="-781.5" y1="1906.504" x2="780.339" y2="45.646"/>
			</g>
			<g>
				<line fill="none" stroke="#4B4C4C" x1="-787.5" y1="1906.504" x2="774.339" y2="45.646"/>
			</g>
			<g>
				<line fill="none" stroke="#4B4C4C" x1="-793.5" y1="1906.504" x2="768.339" y2="45.646"/>
			</g>
			<g>
				<line fill="none" stroke="#4B4C4C" x1="-799.5" y1="1906.504" x2="762.339" y2="45.646"/>
			</g>
			<g>
				<line fill="none" stroke="#4B4C4C" x1="-805.5" y1="1906.504" x2="756.339" y2="45.646"/>
			</g>
			<g>
				<line fill="none" stroke="#4B4C4C" x1="-811.5" y1="1906.504" x2="750.339" y2="45.646"/>
			</g>
			<g>
				<line fill="none" stroke="#4B4C4C" x1="-817.5" y1="1906.504" x2="744.339" y2="45.646"/>
			</g>
			<g>
				<line fill="none" stroke="#4B4C4C" x1="-823.5" y1="1906.504" x2="738.339" y2="45.646"/>
			</g>
			<g>
				<line fill="none" stroke="#4B4C4C" x1="-829.5" y1="1906.504" x2="732.339" y2="45.646"/>
			</g>
			<g>
				<line fill="none" stroke="#4B4C4C" x1="-835.5" y1="1906.504" x2="726.339" y2="45.646"/>
			</g>
			<g>
				<line fill="none" stroke="#4B4C4C" x1="-841.5" y1="1906.504" x2="720.339" y2="45.646"/>
			</g>
			<g>
				<line fill="none" stroke="#4B4C4C" x1="-847.5" y1="1906.504" x2="714.339" y2="45.646"/>
			</g>
			<g>
				<line fill="none" stroke="#4B4C4C" x1="-853.5" y1="1906.504" x2="708.339" y2="45.646"/>
			</g>
			<g>
				<line fill="none" stroke="#4B4C4C" x1="-859.5" y1="1906.504" x2="702.339" y2="45.646"/>
			</g>
			<g>
				<line fill="none" stroke="#4B4C4C" x1="-865.5" y1="1906.504" x2="696.339" y2="45.646"/>
			</g>
			<g>
				<line fill="none" stroke="#4B4C4C" x1="-871.5" y1="1906.504" x2="690.339" y2="45.646"/>
			</g>
			<g>
				<line fill="none" stroke="#4B4C4C" x1="-877.5" y1="1906.504" x2="684.339" y2="45.646"/>
			</g>
			<g>
				<line fill="none" stroke="#4B4C4C" x1="-883.5" y1="1906.504" x2="678.339" y2="45.646"/>
			</g>
			<g>
				<line fill="none" stroke="#4B4C4C" x1="-889.5" y1="1906.504" x2="672.339" y2="45.646"/>
			</g>
			<g>
				<line fill="none" stroke="#4B4C4C" x1="-895.5" y1="1906.504" x2="666.339" y2="45.646"/>
			</g>
			<g>
				<line fill="none" stroke="#4B4C4C" x1="-901.5" y1="1906.504" x2="660.339" y2="45.646"/>
			</g>
			<g>
				<line fill="none" stroke="#4B4C4C" x1="-907.5" y1="1906.504" x2="654.339" y2="45.646"/>
			</g>
			<g>
				<line fill="none" stroke="#4B4C4C" x1="-913.5" y1="1906.504" x2="648.339" y2="45.646"/>
			</g>
			<g>
				<line fill="none" stroke="#4B4C4C" x1="-919.5" y1="1906.504" x2="642.339" y2="45.646"/>
			</g>
			<g>
				<line fill="none" stroke="#4B4C4C" x1="-925.5" y1="1906.504" x2="636.339" y2="45.646"/>
			</g>
			<g>
				<line fill="none" stroke="#4B4C4C" x1="-931.5" y1="1906.504" x2="630.339" y2="45.646"/>
			</g>
			<g>
				<line fill="none" stroke="#4B4C4C" x1="-937.5" y1="1906.504" x2="624.339" y2="45.646"/>
			</g>
			<g>
				<line fill="none" stroke="#4B4C4C" x1="-943.5" y1="1906.504" x2="618.339" y2="45.646"/>
			</g>
			<g>
				<line fill="none" stroke="#4B4C4C" x1="-949.5" y1="1906.504" x2="612.339" y2="45.646"/>
			</g>
			<g>
				<line fill="none" stroke="#4B4C4C" x1="-955.5" y1="1906.504" x2="606.339" y2="45.646"/>
			</g>
			<g>
				<line fill="none" stroke="#4B4C4C" x1="-961.5" y1="1906.504" x2="600.339" y2="45.646"/>
			</g>
			<g>
				<line fill="none" stroke="#4B4C4C" x1="-967.5" y1="1906.504" x2="594.339" y2="45.646"/>
			</g>
			<g>
				<line fill="none" stroke="#4B4C4C" x1="-973.5" y1="1906.504" x2="588.339" y2="45.646"/>
			</g>
			<g>
				<line fill="none" stroke="#4B4C4C" x1="-979.5" y1="1906.504" x2="582.339" y2="45.646"/>
			</g>
			<g>
				<line fill="none" stroke="#4B4C4C" x1="-985.5" y1="1906.504" x2="576.339" y2="45.646"/>
			</g>
			<g>
				<line fill="none" stroke="#4B4C4C" x1="-991.5" y1="1906.504" x2="570.339" y2="45.646"/>
			</g>
			<g>
				<line fill="none" stroke="#4B4C4C" x1="-997.5" y1="1906.504" x2="564.339" y2="45.646"/>
			</g>
			<g>
				<line fill="none" stroke="#4B4C4C" x1="-1003.5" y1="1906.504" x2="558.339" y2="45.646"/>
			</g>
			<g>
				<line fill="none" stroke="#4B4C4C" x1="-1009.5" y1="1906.504" x2="552.339" y2="45.646"/>
			</g>
			<g>
				<line fill="none" stroke="#4B4C4C" x1="-1015.5" y1="1906.504" x2="546.339" y2="45.646"/>
			</g>
			<g>
				<line fill="none" stroke="#4B4C4C" x1="-1021.5" y1="1906.504" x2="540.339" y2="45.646"/>
			</g>
			<g>
				<line fill="none" stroke="#4B4C4C" x1="-1027.5" y1="1906.504" x2="534.339" y2="45.646"/>
			</g>
			<g>
				<line fill="none" stroke="#4B4C4C" x1="-1033.5" y1="1906.504" x2="528.339" y2="45.646"/>
			</g>
			<g>
				<line fill="none" stroke="#4B4C4C" x1="-1039.5" y1="1906.504" x2="522.339" y2="45.646"/>
			</g>
			<g>
				<line fill="none" stroke="#4B4C4C" x1="-1045.5" y1="1906.504" x2="516.339" y2="45.646"/>
			</g>
			<g>
				<line fill="none" stroke="#4B4C4C" x1="-1051.5" y1="1906.504" x2="510.339" y2="45.646"/>
			</g>
			<g>
				<line fill="none" stroke="#4B4C4C" x1="-1057.5" y1="1906.504" x2="504.339" y2="45.646"/>
			</g>
			<g>
				<line fill="none" stroke="#4B4C4C" x1="-1063.5" y1="1906.504" x2="498.339" y2="45.646"/>
			</g>
			<g>
				<line fill="none" stroke="#4B4C4C" x1="-1069.5" y1="1906.504" x2="492.339" y2="45.646"/>
			</g>
			<g>
				<line fill="none" stroke="#4B4C4C" x1="-1075.5" y1="1906.504" x2="486.339" y2="45.646"/>
			</g>
			<g>
				<line fill="none" stroke="#4B4C4C" x1="-1081.5" y1="1906.504" x2="480.339" y2="45.646"/>
			</g>
			<g>
				<line fill="none" stroke="#4B4C4C" x1="-1087.5" y1="1906.504" x2="474.339" y2="45.646"/>
			</g>
			<g>
				<line fill="none" stroke="#4B4C4C" x1="-1093.5" y1="1906.504" x2="468.339" y2="45.646"/>
			</g>
			<g>
				<line fill="none" stroke="#4B4C4C" x1="-1099.5" y1="1906.504" x2="462.339" y2="45.646"/>
			</g>
			<g>
				<line fill="none" stroke="#4B4C4C" x1="-1105.5" y1="1906.504" x2="456.339" y2="45.646"/>
			</g>
			<g>
				<line fill="none" stroke="#4B4C4C" x1="-1111.5" y1="1906.504" x2="450.339" y2="45.646"/>
			</g>
			<g>
				<line fill="none" stroke="#4B4C4C" x1="-1117.5" y1="1906.504" x2="444.339" y2="45.646"/>
			</g>
			<g>
				<line fill="none" stroke="#4B4C4C" x1="-1123.5" y1="1906.504" x2="438.339" y2="45.646"/>
			</g>
			<g>
				<line fill="none" stroke="#4B4C4C" x1="-1129.5" y1="1906.504" x2="432.339" y2="45.646"/>
			</g>
			<g>
				<line fill="none" stroke="#4B4C4C" x1="-1135.5" y1="1906.504" x2="426.339" y2="45.646"/>
			</g>
			<g>
				<line fill="none" stroke="#4B4C4C" x1="-1141.5" y1="1906.504" x2="420.339" y2="45.646"/>
			</g>
			<g>
				<line fill="none" stroke="#4B4C4C" x1="-1147.5" y1="1906.504" x2="414.339" y2="45.646"/>
			</g>
			<g>
				<line fill="none" stroke="#4B4C4C" x1="-1153.5" y1="1906.504" x2="408.339" y2="45.646"/>
			</g>
			<g>
				<line fill="none" stroke="#4B4C4C" x1="-1159.5" y1="1906.504" x2="402.339" y2="45.646"/>
			</g>
			<g>
				<line fill="none" stroke="#4B4C4C" x1="-1165.5" y1="1906.504" x2="396.339" y2="45.646"/>
			</g>
			<g>
				<line fill="none" stroke="#4B4C4C" x1="-1171.5" y1="1906.504" x2="390.339" y2="45.646"/>
			</g>
			<g>
				<line fill="none" stroke="#4B4C4C" x1="-1177.5" y1="1906.504" x2="384.339" y2="45.646"/>
			</g>
			<g>
				<line fill="none" stroke="#4B4C4C" x1="-1183.5" y1="1906.504" x2="378.339" y2="45.646"/>
			</g>
			<g>
				<line fill="none" stroke="#4B4C4C" x1="-1189.5" y1="1906.504" x2="372.339" y2="45.646"/>
			</g>
		</g>
	</g>
</g>
<g id="front_page">
	<g>
		<circle opacity="0.4" fill="#9ACA45" cx="810.502" cy="1851.751" r="95.949"/>
		<g>
			<path fill="#9ACA45" d="M850.109,1851.747c0,21.875-17.732,39.609-39.605,39.609c-21.875,0-39.607-17.734-39.607-39.609
				c0-21.873,17.732-39.605,39.607-39.605C832.376,1812.142,850.109,1829.874,850.109,1851.747z M821.04,1832.812
				c1.479-1.685,2.43-3.86,1.546-4.742c-0.231-0.236-0.558-0.337-0.941-0.337c-1.058,0-2.562,0.798-3.796,1.885
				c-1.051,0.922-4.249,4.202-5.748,5.766l-1.222-0.401c0.472-0.47,0.665-0.673,0.774-0.785c0.043-0.044,0.076-0.079,0.105-0.105
				c0.398-0.406,0.377-0.836-0.073-1.286c-0.235-0.24-0.47-0.353-0.692-0.353c-0.203,0-0.4,0.093-0.588,0.28
				c-0.029,0.031-0.064,0.063-0.108,0.104c-0.126,0.121-0.357,0.349-0.941,0.931c-0.194,0.198-0.351,0.384-0.468,0.556
				c-2.698-0.891-6.259-2.002-7.787-2.48c-0.467-0.15-0.78-0.245-0.84-0.265c-0.127-0.042-0.26-0.062-0.391-0.062
				c-0.641,0-1.254,0.452-1.519,0.677c-0.202,0.176-0.304,0.432-0.265,0.696c0.035,0.258,0.207,0.494,0.443,0.6
				c0.021,0.012,6.896,3.376,7.754,3.804c0.49,0.244,1.676,1.14,2.398,1.699c-0.235,0.247-0.359,0.38-0.41,0.433
				c-1.439,1.42-3.393,3.545-4.639,5.044c-0.079,0.091-0.18,0.234-0.299,0.408c-0.404-0.112-1.506-0.403-3.285-0.857
				c-0.038-0.007-0.076-0.016-0.113-0.016c-0.127,0-0.251,0.06-0.342,0.165l-0.418,0.525c-0.086,0.107-0.117,0.246-0.086,0.374
				c0.02,0.082,0.061,0.157,0.121,0.219c0.006,0.009,0.018,0.018,0.033,0.028c0.021,0.018,0.043,0.033,0.072,0.047
				c0.004,0.006,0.012,0.009,0.018,0.013c0.311,0.172,2.48,1.581,2.491,1.585l0.009,0.007c0.068,0.035,0.131,0.07,0.186,0.097
				c-0.031,0.064-0.064,0.128-0.098,0.196c-0.072,0.142-0.141,0.273-0.207,0.399c-0.5,0.968-0.75,1.451-0.529,1.676l0.139,0.139
				c0.056,0.053,0.129,0.077,0.219,0.077c0.275,0,0.728-0.231,1.453-0.608c0.125-0.066,0.26-0.132,0.401-0.205l0.035-0.018
				c0.053-0.028,0.106-0.053,0.159-0.082c0.028,0.054,0.059,0.113,0.092,0.177l0.01,0.016c0.008,0.02,1.42,2.183,1.589,2.491
				c0.005,0.004,0.007,0.013,0.009,0.024c0.016,0.024,0.031,0.046,0.053,0.072c0.066,0.077,0.15,0.131,0.238,0.146
				c0.035,0.009,0.07,0.012,0.105,0.012c0.1,0,0.197-0.026,0.275-0.093l0.525-0.424c0.135-0.107,0.193-0.282,0.15-0.449
				c-0.457-1.775-0.746-2.877-0.86-3.283c0.179-0.121,0.319-0.223,0.412-0.302c1.501-1.248,3.622-3.197,5.044-4.639
				c0.061-0.06,0.25-0.238,0.431-0.408c0.412,0.531,1.442,1.883,1.7,2.396c0.35,0.701,3.463,7.007,3.796,7.741l0.007,0.009
				c0.105,0.238,0.342,0.412,0.598,0.449c0.037,0.005,0.074,0.005,0.109,0.005c0.223,0,0.438-0.1,0.587-0.271
				c0.271-0.317,0.876-1.145,0.62-1.911c-0.025-0.062-0.124-0.384-0.287-0.891c-0.507-1.586-1.555-4.879-2.484-7.722
				c0.178-0.116,0.377-0.279,0.577-0.478c0.582-0.589,0.81-0.82,0.929-0.944c0.044-0.048,0.076-0.077,0.104-0.105
				c0.4-0.403,0.379-0.836-0.068-1.285c-0.236-0.234-0.47-0.355-0.692-0.355c-0.203,0-0.399,0.098-0.591,0.287
				c-0.031,0.028-0.062,0.057-0.11,0.104c-0.112,0.11-0.315,0.309-0.798,0.787c-0.144-0.443-0.275-0.86-0.393-1.229
				C816.84,1837.055,820.133,1833.845,821.04,1832.812z"/>
			<rect x="780.516" y="1860.302" fill="none" width="59.975" height="9.147"/>
			<text transform="matrix(1 0 0 1 797.2075 1867.6553)" fill="#F1F1F2" font-family="'TradeGothic-Roman'" font-size="10.1845">Travel</text>
		</g>
		<g>
			<circle opacity="0.4" fill="#F2B71A" cx="465.058" cy="1679.851" r="95.949"/>
			<g>
				<path fill="#F2B71A" d="M504.665,1679.851c0,21.873-17.733,39.608-39.606,39.608c-21.875,0-39.607-17.735-39.607-39.608
					c0-21.875,17.732-39.607,39.607-39.607C486.932,1640.243,504.665,1657.976,504.665,1679.851z M474.31,1657.748
					c-2.122-2.123-5.565-2.123-7.691,0c-2.122,2.123-2.122,5.567,0,7.688c2.126,2.128,5.57,2.128,7.691,0
					C476.434,1663.315,476.434,1659.871,474.31,1657.748z M456.982,1675.855l12.408-7.714c-1.329-0.263-2.597-0.906-3.623-1.937
					c-1.025-1.022-1.67-2.288-1.931-3.617l-7.713,12.408L456.982,1675.855z M453.508,1679.141c-0.018,0.212,0.031,0.461,0.207,0.637
					l0,0c0.193,0.186,0.451,0.248,0.736,0.248l0,0c0.864-0.018,2.314-0.559,4.938-1.93l0,0c5.043-2.654,8.626-4.967,11.272-6.354
					l0,0c1.322-0.697,2.411-1.158,3.306-1.326l0,0c0.9-0.169,1.583-0.059,2.217,0.364l0.365-0.54l0,0
					c-0.787-0.538-1.698-0.659-2.703-0.463l0,0c-3.011,0.584-7.219,3.781-14.762,7.74l0,0c-1.721,0.911-2.937,1.436-3.741,1.681l0,0
					c-0.4,0.123-0.701,0.174-0.895,0.174l0,0c-0.199,0-0.264-0.046-0.268-0.051l0,0c-0.009-0.007-0.027-0.026-0.022-0.128l0,0
					c0.011-0.381,0.586-1.307,1.169-2.035l0,0c0.581-0.749,1.151-1.355,1.156-1.355l-0.477-0.443l0,0
					c-0.004,0.005-0.767,0.816-1.45,1.735l0,0c-0.338,0.458-0.661,0.944-0.86,1.392l0,0
					C453.598,1678.711,453.528,1678.922,453.508,1679.141L453.508,1679.141z"/>
				<rect x="432.95" y="1684.1" fill="none" width="64.217" height="23.198"/>
				<text transform="matrix(1 0 0 1 455.5874 1691.4531)"><tspan x="0" y="0" fill="#F1F1F2" font-family="'TradeGothic-Roman'" font-size="10.1845">Art / </tspan><tspan x="-22.212" y="9.053" fill="#F1F1F2" font-family="'TradeGothic-Roman'" font-size="10.1845">Entertainment</tspan></text>
			</g>
		</g>
		<g>
			<circle opacity="0.4" fill="#3868B1" cx="636.956" cy="1679.852" r="95.949"/>
			<g>
				<path fill="#3868B1" d="M649.642,1665.237h-4.084v13.081h-4.896v-9.454h-7.412v9.454h-4.899v-13.081h-4.082l12.685-9.728
					L649.642,1665.237z M636.957,1640.244c-21.875,0-39.606,17.733-39.606,39.605c0,21.875,17.731,39.608,39.606,39.608
					c21.873,0,39.605-17.733,39.605-39.608C676.562,1657.978,658.83,1640.244,636.957,1640.244z"/>
				<g>
					<rect x="606.968" y="1684.1" fill="none" width="59.975" height="20.164"/>
					<text transform="matrix(1 0 0 1 620.9771 1691.4512)"><tspan x="0" y="0" fill="#F1F1F2" font-family="'TradeGothic-Roman'" font-size="10.1845">Home /</tspan><tspan x="4.949" y="9.053" fill="#F1F1F2" font-family="'TradeGothic-Roman'" font-size="10.1845">Work</tspan></text>
				</g>
			</g>
		</g>
		<g>
			<circle opacity="0.4" fill="#DF6335" cx="810.502" cy="1679.852" r="95.949"/>
			<g>
				<path fill="#DF6335" d="M820.64,1659.347h-2.392l2.716-2.843l-0.646-0.716l-3.396,3.559h-15.681l9.052,9.964v8.183
					c0,0,0,2.134-2.263,2.134h-0.645v0.713h2.908h1.293h2.912v-0.713h-0.648c0,0-2.263,0-2.263-2.134v-8.184L820.64,1659.347z
					 M850.108,1679.853c0,21.874-17.732,39.605-39.604,39.605c-21.874,0-39.606-17.731-39.606-39.605
					c0-21.875,17.732-39.606,39.606-39.606C832.375,1640.246,850.108,1657.978,850.108,1679.853z"/>
				<rect x="780.517" y="1688.407" fill="none" width="59.975" height="8.736"/>
				<text transform="matrix(1 0 0 1 791.2661 1695.7598)" fill="#F1F1F2" font-family="'TradeGothic-Roman'" font-size="10.1845">Nightlife</text>
				<ellipse fill="#DF6335" cx="812.881" cy="1664.328" rx="1.293" ry="1.424"/>
			</g>
		</g>
		<g>
			<circle opacity="0.4" fill="#2B7B3D" cx="465.058" cy="1851.749" r="95.949"/>
			<g>
				<path fill="#2B7B3D" d="M471.477,1838.127c0.378-0.376,0.564-0.871,0.56-1.364c0.002-0.333-0.078-0.67-0.257-0.975
					c-0.146-0.256-0.344-0.462-0.569-0.618l-4.218-4.219c-0.002,0-0.003,0-0.004-0.003c-0.017-0.013-0.032-0.026-0.048-0.046
					c-0.008-0.007-0.016-0.014-0.025-0.02c-0.009-0.012-0.02-0.021-0.029-0.027c-0.016-0.014-0.031-0.029-0.048-0.04
					c0-0.003-0.002-0.005-0.003-0.006c-0.18-0.143-0.378-0.25-0.586-0.319c-0.004,0-0.006,0-0.009-0.001
					c-0.024-0.011-0.052-0.015-0.077-0.023c-0.007,0-0.016-0.005-0.024-0.007c-0.02-0.007-0.04-0.013-0.062-0.016
					c-0.012-0.001-0.022-0.006-0.035-0.009c-0.018-0.004-0.034-0.007-0.05-0.009c-0.017-0.002-0.031-0.002-0.046-0.007
					c-0.016-0.004-0.031-0.006-0.044-0.009c-0.018-0.002-0.033-0.002-0.051-0.002c-0.014-0.004-0.026-0.007-0.041-0.009
					c-0.017,0-0.033-0.002-0.05-0.002c-0.015,0-0.027,0-0.042,0c-0.016-0.005-0.031-0.005-0.048-0.005s-0.031,0-0.046,0
					c-0.014,0-0.028,0-0.043,0.003c-0.016,0.002-0.035,0.002-0.053,0.002c-0.012,0-0.022,0.002-0.034,0.002
					c-0.02,0.002-0.041,0.002-0.062,0.009c-0.009,0-0.017,0-0.024,0c-0.022,0.005-0.046,0.007-0.071,0.014
					c-0.004,0-0.01,0.002-0.015,0.002c-0.025,0.002-0.051,0.007-0.076,0.014c-0.004,0-0.007,0-0.01,0
					c-0.027,0.006-0.056,0.015-0.084,0.021c0,0,0,0-0.001,0c-0.088,0.022-0.174,0.054-0.257,0.09c-0.001,0-0.001,0.001-0.003,0.001
					c-0.025,0.01-0.053,0.021-0.078,0.038c-0.003,0-0.007,0.002-0.009,0.002c-0.024,0.012-0.046,0.024-0.068,0.036
					c-0.007,0.006-0.016,0.009-0.021,0.013c-0.019,0.009-0.038,0.018-0.056,0.031c-0.01,0.006-0.022,0.013-0.034,0.021
					c-0.014,0.007-0.026,0.018-0.04,0.024c-0.018,0.014-0.033,0.024-0.05,0.033c-0.008,0.009-0.014,0.013-0.022,0.018
					c-0.022,0.016-0.042,0.033-0.066,0.051c-0.001,0.003-0.003,0.003-0.005,0.008c-0.1,0.077-0.189,0.17-0.271,0.269
					c0,0.003-0.003,0.003-0.003,0.003c-0.016,0.02-0.028,0.035-0.042,0.053c-0.006,0.009-0.013,0.018-0.02,0.028
					c-0.007,0.009-0.015,0.018-0.021,0.028c-0.012,0.018-0.024,0.036-0.033,0.054c-0.007,0.006-0.008,0.009-0.011,0.013
					c-0.016,0.022-0.029,0.049-0.044,0.073h-0.001l-2.38,4.125h-3.222c-0.525,0-0.95,0.426-0.95,0.95c0,0.523,0.425,0.95,0.95,0.95
					h3.807l0,0c0.328,0,0.647-0.17,0.824-0.474l1.657-2.873l2.787,2.787l-2.89,1.677c-0.522,0.301-0.807,0.855-0.792,1.42h-0.002
					v6.348c0,0.696,0.569,1.266,1.271,1.266c0.699,0,1.267-0.569,1.267-1.266v-5.112l4.41-2.557
					C471.007,1838.495,471.262,1838.343,471.477,1838.127z M504.664,1851.748c0,21.874-17.732,39.606-39.604,39.606
					c-21.875,0-39.606-17.732-39.606-39.606s17.731-39.606,39.606-39.606C486.931,1812.142,504.664,1829.874,504.664,1851.748z
					 M456.494,1839.275c-3.328,0-6.026,2.699-6.026,6.028c0,3.325,2.698,6.024,6.026,6.024s6.027-2.699,6.027-6.024
					C462.521,1841.975,459.822,1839.275,456.494,1839.275z M473.621,1839.275c-3.326,0-6.027,2.699-6.027,6.028
					c0,3.325,2.701,6.024,6.027,6.024c3.328,0,6.027-2.699,6.027-6.024C479.648,1841.975,476.949,1839.275,473.621,1839.275z
					 M462.521,1826.693c-1.245,0-2.257,1.01-2.257,2.257c0,1.246,1.012,2.256,2.257,2.256c1.247,0,2.257-1.01,2.257-2.256
					C464.778,1827.703,463.768,1826.693,462.521,1826.693z"/>
				<g>
					<rect x="435.07" y="1855.995" fill="none" width="59.976" height="20.162"/>
					<text transform="matrix(1 0 0 1 444.5469 1863.3477)"><tspan x="0" y="0" fill="#F1F1F2" font-family="'TradeGothic-Roman'" font-size="10.1845">Outdoor /</tspan><tspan x="6.37" y="9.054" fill="#F1F1F2" font-family="'TradeGothic-Roman'" font-size="10.1845">Sports</tspan></text>
				</g>
				<circle fill="#2B7B3D" cx="456.494" cy="1845.303" r="4.441"/>
				<circle fill="#2B7B3D" cx="473.621" cy="1845.303" r="4.441"/>
			</g>
		</g>
		<g>
			<circle opacity="0.4" fill="#AA2B4E" cx="466.706" cy="2023.646" r="95.949"/>
			<g>
				<path fill="#AA2B4E" d="M471.997,2006.328v-0.826c0-1.823-0.547-3.394-1.503-4.511c-0.948-1.127-2.313-1.784-3.788-1.777
					c-1.477-0.007-2.845,0.65-3.793,1.777c-0.955,1.117-1.502,2.688-1.502,4.511v0.826h-3.483v18.176h17.555v-18.176H471.997z
					 M506.313,2023.646c0,21.875-17.732,39.605-39.606,39.605s-39.606-17.73-39.606-39.605c0-21.873,17.732-39.605,39.606-39.605
					S506.313,2001.773,506.313,2023.646z"/>
				<rect x="436.72" y="2032.201" fill="none" width="59.975" height="9.146"/>
				<text transform="matrix(1 0 0 1 445.7632 2039.5537)" fill="#F1F1F2" font-family="'TradeGothic-Roman'" font-size="10.1845">Shopping</text>
				<path fill="#AA2B4E" d="M463.853,2008.956c-0.481,0-0.875,0.393-0.875,0.878s0.394,0.877,0.875,0.877
					c0.485,0,0.877-0.392,0.877-0.877S464.338,2008.956,463.853,2008.956z M464.156,2016.988l-2.519-6.072l1.551-2.749l3.043,0.845
					l2.519,6.069L464.156,2016.988z"/>
				<path fill="#AA2B4E" d="M470.229,2006.328h-7.047v-0.826c0.04-2.966,1.65-4.507,3.525-4.518c1.87,0.011,3.48,1.552,3.522,4.518
					V2006.328z"/>
			</g>
		</g>
		<g>
			<circle opacity="0.4" fill="#83CBF0" cx="638.605" cy="2023.646" r="95.949"/>
			<g>
				<path fill="#83CBF0" d="M678.211,2023.648c0,21.873-17.733,39.605-39.606,39.605c-21.875,0-39.605-17.732-39.605-39.605
					c0-21.875,17.73-39.607,39.605-39.607C660.478,1984.041,678.211,2001.773,678.211,2023.648z M636.449,2000.535l-14.595,6.115
					l5.772,1.096c-0.877,1.99-1.305,5.381-0.754,8.004c0.271,1.289,2.778,1.059,2.719,0.832c-0.851-3.238-0.829-6.121,0.152-8.436
					l13.912,2.641l11.701-7.857L636.449,2000.535z M643.836,2011.273l-11.669-2.287c0,0-0.708,2.498-0.511,3.105
					c0.558,1.705,1.735,2.643,3.995,4.084c1.821,1.164,5.126,2.73,8.349,1.77c3.226-0.963,4.824-3.248,5.049-4.102
					c0.329-1.25-1.371-5.244-1.371-5.244L643.836,2011.273z"/>
				<g>
					<rect x="608.617" y="2027.896" fill="none" width="59.975" height="20.16"/>
					<text transform="matrix(1 0 0 1 619.5088 2035.248)"><tspan x="0" y="0" fill="#F1F1F2" font-family="'TradeGothic-Roman'" font-size="10.1845">College /</tspan><tspan x="-8.631" y="9.054" fill="#F1F1F2" font-family="'TradeGothic-Roman'" font-size="10.1845">Organization</tspan></text>
				</g>
				<path fill="#83CBF0" d="M638.219,2004.506c-0.009-0.275,0.505-0.609,1.151-0.631c0.644-0.027,1.175,0.271,1.184,0.551
					C640.565,2004.699,638.23,2004.785,638.219,2004.506z"/>
			</g>
		</g>
		<g>
			<circle opacity="0.4" fill="#E44B52" cx="810.503" cy="2023.646" r="95.949"/>
			<g>
				<path fill="#E44B52" d="M810.504,2001.723c-5.283,0-9.566,4.281-9.566,9.56c0,5.287,4.283,9.566,9.566,9.566
					s9.56-4.279,9.56-9.566C820.064,2006.004,815.788,2001.723,810.504,2001.723z M850.11,2023.645
					c0,21.875-17.732,39.607-39.607,39.607c-21.873,0-39.605-17.732-39.605-39.607c0-21.873,17.732-39.605,39.605-39.605
					C832.377,1984.039,850.11,2001.771,850.11,2023.645z M798.954,1999.229c-0.332,0-0.605,0.33-0.605,0.745v5.275
					c-0.307-0.055-0.643-0.093-0.999-0.11v-5.165c0-0.415-0.273-0.745-0.604-0.745c-0.342,0-0.613,0.33-0.613,0.745v5.159
					c-0.35,0.023-0.689,0.06-0.996,0.112v-5.271c0-0.415-0.271-0.745-0.608-0.745c-0.335,0-0.608,0.33-0.608,0.745v5.703
					c0,0.047,0.004,0.091,0.014,0.142c-0.016,0.033-0.025,0.068-0.025,0.112v1.483c0,1.08,0.706,1.962,1.574,1.962h0.402v13.742
					c0,0.644,0.425,1.169,0.954,1.169c0.526,0,0.959-0.525,0.959-1.169v-13.742h0.185c0.869,0,1.572-0.882,1.572-1.962v-1.483
					c0-0.024-0.006-0.051-0.008-0.079c0.008-0.056,0.02-0.115,0.02-0.175v-5.703C799.565,1999.56,799.292,1999.229,798.954,1999.229
					z M824.207,1999.086c-0.891,0-1.614,0.889-1.614,1.979v9.6c0,0.154,0.016,0.3,0.04,0.443v12.011
					c0,0.644,0.431,1.169,0.957,1.169c0.522,0,0.954-0.525,0.954-1.169v-10.517c0.732-0.188,1.281-0.983,1.281-1.938v-9.6
					C825.825,1999.975,825.102,1999.086,824.207,1999.086z"/>
				<rect x="781.715" y="2032.199" fill="none" width="59.975" height="9.145"/>
				<text transform="matrix(1 0 0 1 782.2808 2039.5518)" fill="#F1F1F2" font-family="'TradeGothic-Roman'" font-size="10.1845">Food / Drinks</text>
				<path fill="#E44B52" d="M810.502,2018.701c-4.07,0-7.377-3.307-7.377-7.375c0-4.069,3.307-7.372,7.377-7.372
					c4.067,0,7.375,3.303,7.375,7.372C817.877,2015.395,814.57,2018.701,810.502,2018.701z"/>
			</g>
		</g>
	</g>
</g>
<g id="title">
</g>
</svg>
